<?xml version="1.0" encoding="UTF-8"?>
<svg version="1.1" xmlns="http://www.w3.org/2000/svg" width="400" height="187">
<path d="M0 0 C132 0 264 0 400 0 C400 61.71 400 123.42 400 187 C268 187 136 187 0 187 C0 125.29 0 63.58 0 0 Z " fill="#FDFEFE" transform="translate(0,0)"/>
<path d="M0 0 C8.25011413 0.11426032 15.23440465 1.75093223 21.65112305 7.25097656 C24.24957698 12.25517612 25.20340324 16.52048849 25.15112305 22.18847656 C25.14685303 22.89069336 25.14258301 23.59291016 25.13818359 24.31640625 C24.89119092 31.83266398 22.40816004 35.56463282 17.21362305 40.62597656 C11.06861429 44.52281138 5.3180418 44.50656849 -1.72387695 44.37597656 C-3.11413086 44.36244141 -3.11413086 44.36244141 -4.5324707 44.34863281 C-6.80487772 44.32520594 -9.07673876 44.29240405 -11.34887695 44.25097656 C-11.37352209 38.14542946 -11.39171066 32.03991105 -11.40380859 25.93432617 C-11.40884984 23.855545 -11.4156827 21.7767674 -11.42431641 19.69799805 C-11.43639118 16.71695071 -11.44210719 13.73595007 -11.4465332 10.75488281 C-11.45427513 9.35176598 -11.45427513 9.35176598 -11.46217346 7.92030334 C-11.46224899 7.05948654 -11.46232452 6.19866974 -11.46240234 5.31176758 C-11.46462296 4.55009781 -11.46684357 3.78842804 -11.46913147 3.00367737 C-11.14131991 -1.77415218 -3.637619 0.00151237 0 0 Z " fill="#0FAFDE" transform="translate(137.348876953125,105.7490234375)"/>
<path d="M0 0 C5.9709375 -0.185625 5.9709375 -0.185625 12.0625 -0.375 C13.30394775 -0.42962402 14.54539551 -0.48424805 15.82446289 -0.54052734 C22.21881359 -0.63657428 26.16867627 -0.21654235 30.86865234 4.29785156 C33.05310768 7.58443391 32.55713295 10.16197298 32 14 C31.25 16.4375 31.25 16.4375 30 18 C27.875 18.75 27.875 18.75 26 19 C26 19.66 26 20.32 26 21 C26.763125 21.0825 27.52625 21.165 28.3125 21.25 C31 22 31 22 32.8125 23.5 C34.63528823 27.33744891 34.77191661 30.83742165 34 35 C32.29639185 38.31607677 30.05484945 40.47740995 26.68286133 42.14794922 C23.72066083 43.08871541 21.36462594 43.22849867 18.26171875 43.1953125 C16.81865356 43.18781982 16.81865356 43.18781982 15.34643555 43.18017578 C14.13898682 43.16196777 12.93153809 43.14375977 11.6875 43.125 C7.830625 43.08375 3.97375 43.0425 0 43 C0 28.81 0 14.62 0 0 Z " fill="#BFD739" transform="translate(226,55)"/>
<path d="M0 0 C0.75796875 0.40605469 1.5159375 0.81210938 2.296875 1.23046875 C4.80105089 2.13175513 4.80105089 2.13175513 7.296875 2.23046875 C7.93625 1.71484375 8.575625 1.19921875 9.234375 0.66796875 C9.915 0.19359375 10.595625 -0.28078125 11.296875 -0.76953125 C14.92498276 -0.0439097 17.82792796 1.48690058 20.99609375 3.3203125 C22.08535156 3.95066406 23.17460938 4.58101563 24.296875 5.23046875 C26.67923964 24.61436481 26.67923964 24.61436481 22.88916016 30.3671875 C18.93653159 34.27133738 14.25095518 36.81264077 9.296875 39.23046875 C8.5853125 39.70871094 7.87375 40.18695313 7.140625 40.6796875 C5.296875 41.23046875 5.296875 41.23046875 2.78125 40.10546875 C1.87890625 39.48671875 0.9765625 38.86796875 0.046875 38.23046875 C-0.84515625 37.63234375 -1.7371875 37.03421875 -2.65625 36.41796875 C-3.66171875 35.69609375 -4.6671875 34.97421875 -5.703125 34.23046875 C-6.755 33.65014893 -6.755 33.65014893 -7.828125 33.05810547 C-10.2052218 31.61720127 -11.92118145 30.37246622 -13.703125 28.23046875 C-14.67185753 24.2264732 -14.46499849 20.44472396 -14.203125 16.35546875 C-14.14898437 14.75058594 -14.14898437 14.75058594 -14.09375 13.11328125 C-13.99977456 10.48196895 -13.86858454 7.8580936 -13.703125 5.23046875 C-11.98741276 4.16678726 -10.25488899 3.13018703 -8.515625 2.10546875 C-7.55269531 1.52539062 -6.58976562 0.9453125 -5.59765625 0.34765625 C-2.703125 -0.76953125 -2.703125 -0.76953125 0 0 Z " fill="#0EAFDD" transform="translate(81.703125,80.76953125)"/>
<path d="M0 0 C4.62 0 9.24 0 14 0 C17.39207712 7.91484661 20.36498403 15.80217253 23 24 C23.33 16.41 23.66 8.82 24 1 C27.3 1 30.6 1 34 1 C34 15.19 34 29.38 34 44 C29.38 44 24.76 44 20 44 C16.22189126 35.39430787 13.44822727 27.06750839 11 18 C10.67 26.58 10.34 35.16 10 44 C6.7 44 3.4 44 0 44 C0 29.48 0 14.96 0 0 Z " fill="#0FAFDE" transform="translate(300,106)"/>
<path d="M0 0 C1.0199707 0.41668945 1.0199707 0.41668945 2.06054688 0.84179688 C7.01797672 2.89297672 7.01797672 2.89297672 8.1875 4.0625 C9.62981894 11.1391254 10.37919822 19.10751097 8.1875 26.0625 C3.94235615 31.51222972 -3.13088653 35.43564603 -9.8125 37.0625 C-12.9375 36.515625 -12.9375 36.515625 -15.8125 35.0625 C-17.01648438 34.60359375 -18.22046875 34.1446875 -19.4609375 33.671875 C-23.53636875 31.76583209 -27.2452861 29.86719736 -29.8125 26.0625 C-31.57860565 18.91546051 -30.66920422 11.29929707 -29.8125 4.0625 C-18.99231405 -1.50812986 -11.64612299 -4.96522512 0 0 Z " fill="#BCD532" transform="translate(97.8125,43.9375)"/>
<path d="M0 0 C1.88323108 0.94496648 3.7040701 2.01251048 5.5078125 3.1015625 C5.5078125 4.0915625 5.5078125 5.0815625 5.5078125 6.1015625 C3.7578125 7.8515625 3.7578125 7.8515625 1.5078125 9.1015625 C0.16524719 8.80761136 -1.16764818 8.46828377 -2.4921875 8.1015625 C-4.00915439 7.96485145 -5.53188665 7.88248231 -7.0546875 7.8515625 C-7.81910156 7.82578125 -8.58351563 7.8 -9.37109375 7.7734375 C-12.04795457 8.18753752 -12.8597277 8.9778762 -14.4921875 11.1015625 C-15.65014227 14.57542682 -15.66048599 17.37925554 -15.6796875 21.0390625 C-15.70095703 22.87791016 -15.70095703 22.87791016 -15.72265625 24.75390625 C-15.47245361 28.77077045 -15.47245361 28.77077045 -13.4921875 32.1015625 C-11.30677198 32.8009139 -11.30677198 32.8009139 -8.8671875 32.8515625 C-7.4234375 32.9340625 -5.9796875 33.0165625 -4.4921875 33.1015625 C-4.4921875 30.1315625 -4.4921875 27.1615625 -4.4921875 24.1015625 C-6.1421875 24.1015625 -7.7921875 24.1015625 -9.4921875 24.1015625 C-9.4921875 21.7915625 -9.4921875 19.4815625 -9.4921875 17.1015625 C-4.2121875 17.1015625 1.0678125 17.1015625 6.5078125 17.1015625 C6.5078125 24.0315625 6.5078125 30.9615625 6.5078125 38.1015625 C-1.3563028 42.03362015 -8.65578784 43.57707426 -17.1796875 40.9765625 C-23.21986399 37.55759468 -26.45034247 32.65695971 -28.4921875 26.1015625 C-29.62251184 18.02781723 -28.06982605 11.83633483 -23.4921875 5.1015625 C-17.24749666 -1.14312834 -8.36174854 -3.01442345 0 0 Z " fill="#10AFDE" transform="translate(287.4921875,107.8984375)"/>
<path d="M0 0 C8.91 0 17.82 0 27 0 C27 2.64 27 5.28 27 8 C26 9 26 9 22.62109375 9.09765625 C21.22652923 9.09098369 19.83198257 9.07902532 18.4375 9.0625 C17.72658203 9.05798828 17.01566406 9.05347656 16.28320312 9.04882812 C14.52209987 9.03700864 12.76103964 9.01907263 11 9 C11 11.97 11 14.94 11 18 C15.29 18 19.58 18 24 18 C24 20.64 24 23.28 24 26 C19.71 26 15.42 26 11 26 C11 29.3 11 32.6 11 36 C16.28 36 21.56 36 27 36 C27 38.64 27 41.28 27 44 C18.09 44 9.18 44 0 44 C0 29.48 0 14.96 0 0 Z " fill="#0DAFDE" transform="translate(169,106)"/>
<path d="M0 0 C5.28936127 1.69733235 9.07378855 5.1333979 13.18359375 8.71875 C15.01482618 10.2823232 15.01482618 10.2823232 18 12 C22.56607853 11.29752638 26.16080201 7.72671276 29.6875 4.875 C35.73760331 0 35.73760331 0 38 0 C39.90410235 19.29667917 39.90410235 19.29667917 35.796875 24.4453125 C32.99282239 26.95057262 30.17593364 28.99414718 27 31 C25.70628468 32.080886 24.41421167 33.16374627 23.125 34.25 C20 36 20 36 17.65234375 35.41796875 C14.42394678 33.69203635 12.09401366 31.57861377 9.4375 29.0625 C5.85071013 25.60049022 5.85071013 25.60049022 1.8605957 22.65478516 C0 21 0 21 -0.45410156 18.73168945 C-0.4331543 17.86761475 -0.41220703 17.00354004 -0.390625 16.11328125 C-0.37773438 15.17548828 -0.36484375 14.23769531 -0.3515625 13.27148438 C-0.31804687 12.29501953 -0.28453125 11.31855469 -0.25 10.3125 C-0.23195313 9.32443359 -0.21390625 8.33636719 -0.1953125 7.31835938 C-0.14815447 4.87793158 -0.08236042 2.43945231 0 0 Z " fill="#0FAFDD" transform="translate(68,113)"/>
<path d="M0 0 C1.21171875 -0.02578125 2.4234375 -0.0515625 3.671875 -0.078125 C7.57901323 0.28017152 9.95786394 1.14066731 13.25 3.25 C13.58 4.24 13.91 5.23 14.25 6.25 C12.8125 8.4375 12.8125 8.4375 11.25 10.25 C6.375 9.375 6.375 9.375 5.25 8.25 C1.10723125 8.00266863 1.10723125 8.00266863 -2.75 9.25 C-2.75 10.57 -2.75 11.89 -2.75 13.25 C-1.71359375 13.61351563 -0.6771875 13.97703125 0.390625 14.3515625 C1.76080007 14.85833958 3.130571 15.3662103 4.5 15.875 C5.18191406 16.11089844 5.86382812 16.34679687 6.56640625 16.58984375 C11.47309118 18.44771474 13.79284015 20.4103282 16.25 25.25 C17.17190088 29.19892975 16.42852082 32.66980733 15.25 36.5 C11.9395662 41.05184647 8.1503458 42.78681045 2.6328125 43.66796875 C-4.57269803 44.04559466 -9.65483553 41.95205217 -15.75 38.25 C-15.0078125 34.46875 -15.0078125 34.46875 -12.6875 32.5 C-12.048125 32.0875 -11.40875 31.675 -10.75 31.25 C-9.904375 31.745 -9.05875 32.24 -8.1875 32.75 C-4.36997752 34.41582799 -1.87108352 34.64625803 2.25 34.25 C2.91 33.59 3.57 32.93 4.25 32.25 C4.25 30.93 4.25 29.61 4.25 28.25 C3.28578125 27.86328125 2.3215625 27.4765625 1.328125 27.078125 C0.0518675 26.5526072 -1.22416231 26.02653619 -2.5 25.5 C-3.13421875 25.24734375 -3.7684375 24.9946875 -4.421875 24.734375 C-8.29511262 23.12052599 -11.09561987 21.52287648 -13.75 18.25 C-14.98534045 14.54397865 -15.20528745 12.15246386 -14.75 8.25 C-10.65929379 1.88108509 -7.53562039 0.0953876 0 0 Z " fill="#10B0DD" transform="translate(218.75,106.75)"/>
<path d="M0 0 C4.29 0 8.58 0 13 0 C18 10.75 18 10.75 18 13 C18.66 13 19.32 13 20 13 C20.268125 12.154375 20.53625 11.30875 20.8125 10.4375 C22.0478595 6.86145933 23.476988 3.46139092 25 0 C29.29 0 33.58 0 38 0 C36.94333277 2.48179768 35.88033061 4.96050555 34.8125 7.4375 C34.49587402 8.17887207 34.17924805 8.92024414 33.85302734 9.68408203 C32.19798512 13.49678415 30.48317903 16.93800593 28.125 20.375 C24.22031703 26.89133977 25.08738976 35.63542654 25 43 C21.04 43 17.08 43 13 43 C13.06703125 41.9790625 13.1340625 40.958125 13.203125 39.90625 C13.54640746 25.70894989 7.91326697 15.21336533 1.08569336 3.03100586 C0 1 0 1 0 0 Z " fill="#BDD634" transform="translate(261,55)"/>
<path d="M0 0 C0.07089844 0.76054688 0.14179687 1.52109375 0.21484375 2.3046875 C1.22673042 5.77832832 2.47467223 6.35638503 5.5625 8.125 C8.06640625 9.5703125 8.06640625 9.5703125 10 11 C10 11.99 10 12.98 10 14 C3.375 18 3.375 18 0 18 C0 25.26 0 32.52 0 40 C-3.49817665 38.60072934 -5.64150571 37.73854639 -8.515625 35.65234375 C-9.12664063 35.21212891 -9.73765625 34.77191406 -10.3671875 34.31835938 C-10.98851562 33.86267578 -11.60984375 33.40699219 -12.25 32.9375 C-13.20519531 32.24817383 -13.20519531 32.24817383 -14.1796875 31.54492188 C-18.80851834 28.19148166 -18.80851834 28.19148166 -20 27 C-20.08669432 25.5112814 -20.10703494 24.018555 -20.09765625 22.52734375 C-20.09443359 21.62822266 -20.09121094 20.72910156 -20.08789062 19.80273438 C-20.07951172 18.85720703 -20.07113281 17.91167969 -20.0625 16.9375 C-20.05798828 15.98810547 -20.05347656 15.03871094 -20.04882812 14.06054688 C-20.0370011 11.70696935 -20.02052025 9.35351523 -20 7 C-17.23174812 5.82685974 -14.46071514 4.66129785 -11.6875 3.5 C-10.50897461 2.99919922 -10.50897461 2.99919922 -9.30664062 2.48828125 C-8.54931641 2.17246094 -7.79199219 1.85664062 -7.01171875 1.53125 C-6.31522217 1.23798828 -5.61872559 0.94472656 -4.90112305 0.64257812 C-3 0 -3 0 0 0 Z " fill="#56C9EA" transform="translate(65,66)"/>
<path d="M0 0 C4.56736441 0.70062483 8.5699505 2.31270207 12.8125 4.0625 C13.50537109 4.34416016 14.19824219 4.62582031 14.91210938 4.91601562 C16.60967624 5.60674973 18.30506312 6.30283728 20 7 C22.37732399 23.59250229 22.37732399 23.59250229 18.60839844 28.99462891 C13.26200573 34.15986286 6.82937654 37.26824938 0 40 C0 32.74 0 25.48 0 18 C-1.98 17.34 -3.96 16.68 -6 16 C-8.01470098 15.02995879 -10.01922047 14.03755118 -12 13 C-9.64033993 10.35718072 -7.44391426 8.64109361 -4.3125 7.0625 C-0.79878665 5.35962001 -0.79878665 5.35962001 -0.0625 2.25 C-0.041875 1.5075 -0.02125 0.765 0 0 Z " fill="#16B1DE" transform="translate(109,66)"/>
<path d="M0 0 C10.89 0 21.78 0 33 0 C33 2.64 33 5.28 33 8 C29.37 8 25.74 8 22 8 C22 19.55 22 31.1 22 43 C18.37 43 14.74 43 11 43 C11 31.45 11 19.9 11 8 C7.37 8 3.74 8 0 8 C0 5.36 0 2.72 0 0 Z " fill="#0CAEDD" transform="translate(180,55)"/>
<path d="M0 0 C0.66 0.33 1.32 0.66 2 1 C1.91097412 1.61407715 1.82194824 2.2281543 1.73022461 2.86083984 C-0.07698385 14.48109766 -0.07698385 14.48109766 3.58789062 25.05566406 C7.99510218 28.76666394 13.34167818 31.75811675 19 33 C21.67909966 32.61413664 21.67909966 32.61413664 24 31 C25.18286564 30.35023525 26.36652623 29.70191652 27.55078125 29.0546875 C28.80694842 28.33204098 30.06043078 27.60472366 31.3125 26.875 C33.519375 25.59625 35.72625 24.3175 38 23 C38 15.41 38 7.82 38 0 C38.66 0 39.32 0 40 0 C40 7.59 40 15.18 40 23 C40.66 23.33 41.32 23.66 42 24 C38.37 26.31 34.74 28.62 31 31 C34.63 32.98 38.26 34.96 42 37 C42 44.26 42 51.52 42 59 C42.66 59 43.32 59 44 59 C44.14034877 63.91220685 43.22637602 68.26969248 42 73 C41.34 73 40.68 73 40 73 C40.05220703 74.55460937 40.05220703 74.55460937 40.10546875 76.140625 C40.13361482 77.51040042 40.16091411 78.88019341 40.1875 80.25 C40.21263672 80.93191406 40.23777344 81.61382812 40.26367188 82.31640625 C40.32593982 86.59213878 39.92485266 88.8598663 37 92 C36.731875 92.721875 36.46375 93.44375 36.1875 94.1875 C35 96 35 96 31.875 96.75 C30.92625 96.8325 29.9775 96.915 29 97 C30.36306743 93.77368835 31.67994259 92.35550174 34.56640625 90.4296875 C36.88692963 88.51767731 37.86992407 87.47991222 38.66357422 84.55175781 C38.9108075 81.72349001 38.97019412 78.96361894 38.9375 76.125 C38.95361328 75.15046875 38.96972656 74.1759375 38.98632812 73.171875 C39.02150558 70.77980834 39.02517629 68.39206589 39 66 C38.48091064 66.40428223 37.96182129 66.80856445 37.42700195 67.22509766 C35.06959301 69.04423375 32.69177914 70.83457869 30.3125 72.625 C29.49587891 73.26179688 28.67925781 73.89859375 27.83789062 74.5546875 C26.64389648 75.44414062 26.64389648 75.44414062 25.42578125 76.3515625 C24.69786377 76.90666504 23.96994629 77.46176758 23.2199707 78.03369141 C21 79 21 79 18.37963867 78.28051758 C15.6297563 76.80076657 13.39179294 75.06936376 11 73.0625 C7.71045684 70.31264751 4.72945805 68.23767483 1 66 C1 72.93 1 79.86 1 87 C0.67 87 0.34 87 0 87 C0 79.08 0 71.16 0 63 C-0.66 62.67 -1.32 62.34 -2 62 C-1.34 62 -0.68 62 0 62 C-0.13844847 58.20802551 -0.28700744 54.4165141 -0.4375 50.625 C-0.47681641 49.54476562 -0.51613281 48.46453125 -0.55664062 47.3515625 C-0.59853516 46.3203125 -0.64042969 45.2890625 -0.68359375 44.2265625 C-0.72025146 43.27346191 -0.75690918 42.32036133 -0.79467773 41.33837891 C-0.85763465 38.97867651 -0.85763465 38.97867651 -2 37 C2.95 34.525 2.95 34.525 8 32 C5.69545638 29.51818379 3.68431875 27.81180541 0.75 26.0625 C-0.1575 25.381875 -1.065 24.70125 -2 24 C-2.375 21.25 -2.375 21.25 -2 19 C-2.66 18.67 -3.32 18.34 -4 18 C-3.01 17.67 -2.02 17.34 -1 17 C-0.67 11.39 -0.34 5.78 0 0 Z M6.375 36 C5.37210938 36.556875 4.36921875 37.11375 3.3359375 37.6875 C2.56507812 38.120625 1.79421875 38.55375 1 39 C-1.19275828 52.13843892 -1.19275828 52.13843892 2.62011719 64.25097656 C7.85771408 69.11605589 14.22952756 72.74317585 21 75 C22.9822552 74.03819603 22.9822552 74.03819603 24.9765625 72.5078125 C26.10578125 71.69763672 26.10578125 71.69763672 27.2578125 70.87109375 C28.03898437 70.29488281 28.82015625 69.71867187 29.625 69.125 C30.41390625 68.55652344 31.2028125 67.98804688 32.015625 67.40234375 C35.65657047 64.88096356 35.65657047 64.88096356 39 62 C39.08713831 60.29227642 39.10700007 58.58101351 39.09765625 56.87109375 C39.09443359 55.83662109 39.09121094 54.80214844 39.08789062 53.73632812 C39.07951172 52.64771484 39.07113281 51.55910156 39.0625 50.4375 C39.05798828 49.34501953 39.05347656 48.25253906 39.04882812 47.12695312 C39.03699826 44.41791505 39.02051543 41.70898401 39 39 C37.28428776 37.93631851 35.55176399 36.89971828 33.8125 35.875 C32.84957031 35.29492188 31.88664062 34.71484375 30.89453125 34.1171875 C28.06034599 32.68974719 28.06034599 32.68974719 25.296875 33.76953125 C24.53890625 34.17558594 23.7809375 34.58164063 23 35 C20.4375 35.8125 20.4375 35.8125 18 36 C15.8125 34.5625 15.8125 34.5625 14 33 C10.9728902 33 8.99583932 34.53720596 6.375 36 Z " fill="#DFF4F7" transform="translate(67,47)"/>
<path d="M0 0 C5.7234375 -0.185625 5.7234375 -0.185625 11.5625 -0.375 C13.34636108 -0.45693604 13.34636108 -0.45693604 15.16625977 -0.54052734 C21.45449259 -0.63898776 25.22438128 -0.10838894 29.85107422 4.29785156 C32.0639559 7.57626446 31.55796711 10.1562266 31 14 C30.25 16.4375 30.25 16.4375 29 18 C26.875 18.75 26.875 18.75 25 19 C25 19.66 25 20.32 25 21 C25.763125 21.0825 26.52625 21.165 27.3125 21.25 C30 22 30 22 31.8125 23.5 C33.63260468 27.33179933 33.78378971 30.84375732 33 35 C31.06658451 38.57052209 28.91644101 40.69451966 25 42 C22.60509014 42.06970052 20.20832309 42.08448003 17.8125 42.0625 C16.54019531 42.05347656 15.26789063 42.04445312 13.95703125 42.03515625 C12.49330078 42.01775391 12.49330078 42.01775391 11 42 C12.28062485 40.2925002 13.61767557 38.62626404 15 37 C15.66 37 16.32 37 17 37 C17 36.34 17 35.68 17 35 C18.32 35 19.64 35 21 35 C21.33 34.34 21.66 33.68 22 33 C22.33 32.67 22.66 32.34 23 32 C22.67 32 22.34 32 22 32 C22.020625 30.7625 22.04125 29.525 22.0625 28.25 C22.06766681 25.3359175 21.93015558 22.79046673 21 20 C21.66 20 22.32 20 23 20 C23 19.34 23 18.68 23 18 C21.35 17.34 19.7 16.68 18 16 C18.020625 15.030625 18.04125 14.06125 18.0625 13.0625 C18.35618499 10.12534105 18.35618499 10.12534105 17 9 C14.67182036 8.63239269 12.3381615 8.29758419 10 8 C10 10.97 10 13.94 10 17 C9.67 17 9.34 17 9 17 C9 14.36 9 11.72 9 9 C8.01 8.67 7.02 8.34 6 8 C5.3125 5.9375 5.3125 5.9375 5 4 C6.32 4 7.64 4 9 4 C8.67 3.34 8.34 2.68 8 2 C5.69 1.67 3.38 1.34 1 1 C1 14.53 1 28.06 1 42 C0.67 42 0.34 42 0 42 C0 28.14 0 14.28 0 0 Z " fill="#BED636" transform="translate(227,55)"/>
<path d="M0 0 C3.96 0 7.92 0 12 0 C12 14.52 12 29.04 12 44 C8.04 44 4.08 44 0 44 C0 29.48 0 14.96 0 0 Z " fill="#0BAEDD" transform="translate(241,106)"/>
<path d="M0 0 C3.96 0 7.92 0 12 0 C12 14.52 12 29.04 12 44 C8.04 44 4.08 44 0 44 C0 29.48 0 14.96 0 0 Z " fill="#1FB4E1" transform="translate(162,54)"/>
<path d="M0 0 C6.88611718 1.78882741 12.66454149 4.72549336 19 8 C19.33 15.92 19.66 23.84 20 32 C3.89821183 26.63273728 3.89821183 26.63273728 0 21 C-1.75081713 14.18470264 -0.85966846 6.9066331 0 0 Z " fill="#D2E275" transform="translate(68,49)"/>
<path d="M0 0 C4.31186357 0.9004411 7.55897238 3.10078931 11.1875 5.5 C11.82880859 5.91636719 12.47011719 6.33273438 13.13085938 6.76171875 C17.82515672 9.82515672 17.82515672 9.82515672 19 11 C19.08700342 12.63472882 19.10701063 14.27314055 19.09765625 15.91015625 C19.09443359 16.89951172 19.09121094 17.88886719 19.08789062 18.90820312 C19.07951172 19.94912109 19.07113281 20.99003906 19.0625 22.0625 C19.05798828 23.10728516 19.05347656 24.15207031 19.04882812 25.22851562 C19.03699913 27.8190666 19.02051689 30.40950559 19 33 C4.07299305 27.12102127 4.07299305 27.12102127 0 21 C-1.73292776 14.17255497 -0.86850711 6.91560718 0 0 Z " fill="#52C8EA" transform="translate(68,88)"/>
<path d="M0 0 C7.11842018 2.572431 14.95069982 6.31078234 19 13 C20.73739834 20.50534912 19.87024268 28.41358773 19 36 C17.58884522 35.05422605 16.17799496 34.10799507 14.76855469 33.15966797 C13.62292261 32.40845974 12.46248595 31.67917609 11.28613281 30.97705078 C6.88326502 28.31954293 2.6459405 25.50960294 0 21 C-1.57796208 14.13383856 -0.81625579 6.93672524 0 0 Z " fill="#53C9EA" transform="translate(68,113)"/>
<path d="M0 0 C0.75796875 0.40605469 1.5159375 0.81210938 2.296875 1.23046875 C4.80105089 2.13175513 4.80105089 2.13175513 7.296875 2.23046875 C7.93625 1.71484375 8.575625 1.19921875 9.234375 0.66796875 C9.915 0.19359375 10.595625 -0.28078125 11.296875 -0.76953125 C16.13633941 0.19836163 20.10987463 2.71826853 24.296875 5.23046875 C22.40282766 8.57290523 21.35595909 9.21044024 17.609375 10.48046875 C15.9696875 10.85171875 15.9696875 10.85171875 14.296875 11.23046875 C14.296875 12.22046875 14.296875 13.21046875 14.296875 14.23046875 C13.07460859 14.76729543 11.84359415 15.28422407 10.609375 15.79296875 C9.92488281 16.08300781 9.24039063 16.37304688 8.53515625 16.671875 C5.66211252 17.38888242 4.1216909 17.13829449 1.296875 16.23046875 C-0.79170648 14.97189497 -2.83209157 13.63119396 -4.828125 12.23046875 C-9.02882642 9.26042914 -9.02882642 9.26042914 -13.703125 7.23046875 C-13.703125 6.57046875 -13.703125 5.91046875 -13.703125 5.23046875 C-11.98741276 4.16678726 -10.25488899 3.13018703 -8.515625 2.10546875 C-7.55269531 1.52539062 -6.58976562 0.9453125 -5.59765625 0.34765625 C-2.703125 -0.76953125 -2.703125 -0.76953125 0 0 Z " fill="#1B95BA" transform="translate(81.703125,80.76953125)"/>
<path d="M0 0 C4.45165631 1.39909198 6.96606091 3.47407079 10 7 C13.28767674 13.41441825 12.6994655 21.00534498 12 28 C10.8077935 31.1914451 9.31954268 33.52364317 7 36 C6.5565625 36.5775 6.113125 37.155 5.65625 37.75 C4 39 4 39 1.51953125 38.85546875 C0.17955078 38.52482422 0.17955078 38.52482422 -1.1875 38.1875 C-2.08855469 37.97480469 -2.98960937 37.76210937 -3.91796875 37.54296875 C-4.60503906 37.36378906 -5.29210937 37.18460938 -6 37 C-5.64649837 33.81848535 -5.44358785 32.3885692 -2.984375 30.234375 C-0.00117537 26.8753392 -0.3294407 23.60479494 -0.25 19.25 C-0.22035156 18.45722656 -0.19070312 17.66445312 -0.16015625 16.84765625 C-0.08972213 14.89897906 -0.04256518 12.94948505 0 11 C0.66 11.66 1.32 12.32 2 13 C3.32 11.02 4.64 9.04 6 7 C5.34 7 4.68 7 4 7 C3.67 7.99 3.34 8.98 3 10 C3 7.69 3 5.38 3 3 C2.01 3 1.02 3 0 3 C0 2.01 0 1.02 0 0 Z " fill="#12B0DE" transform="translate(150,108)"/>
<path d="M0 0 C2.93423195 1.79646854 4.47205355 2.9441071 6 6 C6.12272016 10.5406461 5.86358012 13.98402339 2.875 17.5 C-0.58462207 19.30502021 -3.09373338 19.93024524 -7 20 C-10.64886208 18.42435501 -13.13562322 16.53250338 -15 13 C-15.6550201 8.57861434 -15.27541164 6.50492133 -13.125 2.5625 C-9.51502056 -1.28470666 -4.89295724 -0.96412951 0 0 Z " fill="#E1F4F8" transform="translate(361,131)"/>
<path d="M0 0 C0.68835938 0.28617188 1.37671875 0.57234375 2.0859375 0.8671875 C3.76958078 1.56870553 5.4478668 2.28305756 7.125 3 C4.42488659 6.18122452 0.96939794 7.88900272 -2.6875 9.75 C-3.29142578 10.07871094 -3.89535156 10.40742187 -4.51757812 10.74609375 C-8.77054148 12.91606644 -11.31880041 13.40054384 -15.875 12 C-18.40002317 10.87266096 -20.81165063 9.72285118 -23.25 8.4375 C-24.21099609 7.9434668 -24.21099609 7.9434668 -25.19140625 7.43945312 C-26.75638632 6.63360518 -28.31624021 5.81781507 -29.875 5 C-28.25981265 1.7696253 -24.89501037 1.14584297 -21.6875 -0.125 C-21.02685547 -0.40214844 -20.36621094 -0.67929687 -19.68554688 -0.96484375 C-12.23857309 -3.94951439 -7.20678911 -3.10059532 0 0 Z " fill="#A7BD38" transform="translate(97.875,44)"/>
<path d="M0 0 C6.16163774 0 6.90836217 0.02526611 11 4 C12.4935473 6.9870946 12.30631228 10.0373448 12.375 13.3125 C12.42398438 14.62863281 12.47296875 15.94476563 12.5234375 17.30078125 C11.88374324 21.82160558 10.46709028 23.15698597 7 26 C6.67 26.33 6.34 26.66 6 27 C4.02 27 2.04 27 0 27 C0 18.09 0 9.18 0 0 Z " fill="#F1F9FA" transform="translate(138,115)"/>
<path d="M0 0 C0.07089844 0.76054688 0.14179687 1.52109375 0.21484375 2.3046875 C1.22673042 5.77832832 2.47467223 6.35638503 5.5625 8.125 C8.06640625 9.5703125 8.06640625 9.5703125 10 11 C10 11.99 10 12.98 10 14 C6.80370925 16.31575078 3.84833521 18.03920069 0 19 C-4.15499789 17.73344202 -7.42382318 15.41777185 -11 13 C-12.54817192 12.18066731 -14.10929524 11.38487637 -15.6875 10.625 C-17.3271875 9.820625 -17.3271875 9.820625 -19 9 C-18.67 8.01 -18.34 7.02 -18 6 C-15.5386285 4.79281183 -13.17935235 3.77394303 -10.625 2.8125 C-9.93921875 2.53986328 -9.2534375 2.26722656 -8.546875 1.98632812 C-5.56405784 0.82860045 -3.22557496 0 0 0 Z " fill="#1E96BA" transform="translate(65,66)"/>
<path d="M0 0 C4.40958108 0.66607439 8.26572186 2.26624729 12.3125 4.0625 C13.28026367 4.48499023 13.28026367 4.48499023 14.26757812 4.91601562 C15.84698358 5.6062743 17.42376493 6.30253198 19 7 C19 7.66 19 8.32 19 9 C16.35261084 10.4606285 15.10551666 11 12 11 C11.67 11.99 11.34 12.98 11 14 C9.328125 14.9140625 9.328125 14.9140625 7.25 15.625 C6.57453125 15.86476563 5.8990625 16.10453125 5.203125 16.3515625 C4.47609375 16.56554687 3.7490625 16.77953125 3 17 C1.79537109 17.36544922 1.79537109 17.36544922 0.56640625 17.73828125 C-2.76925975 18.0784481 -4.39545095 17.15715348 -7.3125 15.5625 C-8.19550781 15.08941406 -9.07851562 14.61632812 -9.98828125 14.12890625 C-10.65214844 13.75636719 -11.31601563 13.38382813 -12 13 C-9.64033993 10.35718072 -7.44391426 8.64109361 -4.3125 7.0625 C-0.79878665 5.35962001 -0.79878665 5.35962001 -0.0625 2.25 C-0.041875 1.5075 -0.02125 0.765 0 0 Z " fill="#1C95B9" transform="translate(109,66)"/>
<path d="M0 0 C0.66 0.33 1.32 0.66 2 1 C2 7.6 2 14.2 2 21 C2.66 21 3.32 21 4 21 C4.14034877 25.91220685 3.22637602 30.26969248 2 35 C1.34 35 0.68 35 0 35 C0.05220703 36.55460937 0.05220703 36.55460937 0.10546875 38.140625 C0.13361482 39.51040042 0.16091411 40.88019341 0.1875 42.25 C0.21263672 42.93191406 0.23777344 43.61382812 0.26367188 44.31640625 C0.32593982 48.59213878 -0.07514734 50.8598663 -3 54 C-3.268125 54.721875 -3.53625 55.44375 -3.8125 56.1875 C-5 58 -5 58 -8.125 58.75 C-9.07375 58.8325 -10.0225 58.915 -11 59 C-9.63693257 55.77368835 -8.32005741 54.35550174 -5.43359375 52.4296875 C-3.11307037 50.51767731 -2.13007593 49.47991222 -1.33642578 46.55175781 C-1.0891925 43.72349001 -1.02980588 40.96361894 -1.0625 38.125 C-1.04638672 37.15046875 -1.03027344 36.1759375 -1.01367188 35.171875 C-0.97849442 32.77980834 -0.97482371 30.39206589 -1 28 C-1.51908936 28.40428223 -2.03817871 28.80856445 -2.57299805 29.22509766 C-4.93040699 31.04423375 -7.30822086 32.83457869 -9.6875 34.625 C-10.50412109 35.26179688 -11.32074219 35.89859375 -12.16210938 36.5546875 C-12.95810547 37.14765625 -13.75410156 37.740625 -14.57421875 38.3515625 C-15.30213623 38.90666504 -16.03005371 39.46176758 -16.7800293 40.03369141 C-19 41 -19 41 -21.77661133 40.16552734 C-22.51032959 39.78090332 -23.24404785 39.3962793 -24 39 C-24 38.01 -24 37.02 -24 36 C-23.26031982 36.05414063 -22.52063965 36.10828125 -21.75854492 36.1640625 C-18.56637981 35.97421075 -17.39651475 35.26651335 -14.86328125 33.375 C-14.12142578 32.83359375 -13.37957031 32.2921875 -12.61523438 31.734375 C-11.85533203 31.16203125 -11.09542969 30.5896875 -10.3125 30 C-8.79069098 28.87103892 -7.26608547 27.74583454 -5.73828125 26.625 C-5.06837158 26.12226562 -4.39846191 25.61953125 -3.70825195 25.1015625 C-2 24 -2 24 0 24 C0 16.08 0 8.16 0 0 Z " fill="#F3FAF8" transform="translate(107,85)"/>
<path d="M0 0 C4.62 0 9.24 0 14 0 C14 0.33 14 0.66 14 1 C9.71 1 5.42 1 1 1 C1 13.87 1 26.74 1 40 C1.66 40 2.32 40 3 40 C2.97679687 38.85402344 2.95359375 37.70804688 2.9296875 36.52734375 C2.91091521 34.9974024 2.89271659 33.46745394 2.875 31.9375 C2.84986328 30.80924805 2.84986328 30.80924805 2.82421875 29.65820312 C2.78134879 24.70672291 3.41600625 20.69585549 5 16 C5.474375 16.66 5.94875 17.32 6.4375 18 C7.2109375 18.99 7.2109375 18.99 8 20 C8.33 20 8.66 20 9 20 C9.33 27.92 9.66 35.84 10 44 C6.7 44 3.4 44 0 44 C0 29.48 0 14.96 0 0 Z " fill="#19B3E0" transform="translate(300,106)"/>
<path d="M0 0 C0.99 0 1.98 0 3 0 C3 14.19 3 28.38 3 43 C0.69 42.67 -1.62 42.34 -4 42 C-3.67 31.11 -3.34 20.22 -3 9 C-2.67 9 -2.34 9 -2 9 C-1.34 6.03 -0.68 3.06 0 0 Z " fill="#0BAEDC" transform="translate(170,55)"/>
<path d="M0 0 C2.97 0.495 2.97 0.495 6 1 C5.01 1.33 4.02 1.66 3 2 C3 2.66 3 3.32 3 4 C3.66 4 4.32 4 5 4 C5 15.88 5 27.76 5 40 C4.34 39.67 3.68 39.34 3 39 C2.67 39.66 2.34 40.32 2 41 C3.32 41.33 4.64 41.66 6 42 C4.02 42 2.04 42 0 42 C0 28.14 0 14.28 0 0 Z " fill="#0AADDE" transform="translate(242,107)"/>
<path d="M0 0 C7.92 0 15.84 0 24 0 C24 0.66 24 1.32 24 2 C17.4 2 10.8 2 4 2 C4 13.55 4 25.1 4 37 C3.34 37 2.68 37 2 37 C2.33 38.65 2.66 40.3 3 42 C2.01 42 1.02 42 0 42 C0 28.14 0 14.28 0 0 Z " fill="#09AEDC" transform="translate(169,107)"/>
<path d="M0 0 C0.33 0 0.66 0 1 0 C1 14.52 1 29.04 1 44 C0.67 44 0.34 44 0 44 C-0.33 39.71 -0.66 35.42 -1 31 C-1.66 31 -2.32 31 -3 31 C-3.66 32.32 -4.32 33.64 -5 35 C-5.99 34.67 -6.98 34.34 -8 34 C-7.83886719 33.50371094 -7.67773438 33.00742188 -7.51171875 32.49609375 C-6.79988289 29.02385624 -6.81571652 25.59102044 -6.8125 22.0625 C-6.80025391 21.35931641 -6.78800781 20.65613281 -6.77539062 19.93164062 C-6.76374954 15.79129349 -7.30656607 12.75709228 -9 9 C-8.625 6.6875 -8.625 6.6875 -8 5 C-7.38125 5.928125 -7.38125 5.928125 -6.75 6.875 C-4.94426121 9.06768281 -3.5909466 9.92788417 -1 11 C-1.57344937 13.86724686 -1.8614515 14.8614515 -4 17 C-4.16687448 19.58354218 -4.16687448 19.58354218 -4 22 C-3.34 21.34 -2.68 20.68 -2 20 C-2 20.66 -2 21.32 -2 22 C-1.34 22 -0.68 22 0 22 C0 14.74 0 7.48 0 0 Z " fill="#DEF3F8" transform="translate(168,106)"/>
<path d="M0 0 C6.27 0 12.54 0 19 0 C18.01 0.495 18.01 0.495 17 1 C17 2.65 17 4.3 17 6 C16.34 6 15.68 6 15 6 C15 6.66 15 7.32 15 8 C13.35 8 11.7 8 10 8 C10 10.97 10 13.94 10 17 C9.67 17 9.34 17 9 17 C9 14.36 9 11.72 9 9 C8.01 8.67 7.02 8.34 6 8 C5.3125 5.9375 5.3125 5.9375 5 4 C6.32 4 7.64 4 9 4 C8.67 3.34 8.34 2.68 8 2 C5.69 1.67 3.38 1.34 1 1 C1 14.53 1 28.06 1 42 C0.67 42 0.34 42 0 42 C0 28.14 0 14.28 0 0 Z " fill="#BBD42E" transform="translate(227,55)"/>
<path d="M0 0 C2.93423195 1.79646854 4.47205355 2.9441071 6 6 C6.12272016 10.5406461 5.86358012 13.98402339 2.875 17.5 C-0.58462207 19.30502021 -3.09373338 19.93024524 -7 20 C-10.64886208 18.42435501 -13.13562322 16.53250338 -15 13 C-15.6550201 8.57861434 -15.27541164 6.50492133 -13.125 2.5625 C-9.51502056 -1.28470666 -4.89295724 -0.96412951 0 0 Z M-12 6 C-12.83333333 9.5 -12.83333333 9.5 -12 13 C-9.71408345 16.06965937 -8.24497671 17.68875582 -4.5 18.625 C-0.75502329 17.68875582 0.71408345 16.06965937 3 13 C3.83333333 9.5 3.83333333 9.5 3 6 C0.71408345 2.93034063 -0.75502329 1.31124418 -4.5 0.375 C-8.24497671 1.31124418 -9.71408345 2.93034063 -12 6 Z " fill="#22B5DE" transform="translate(361,131)"/>
<path d="M0 0 C0.66 0 1.32 0 2 0 C2 7.59 2 15.18 2 23 C2.66 23.33 3.32 23.66 4 24 C0.37 26.31 -3.26 28.62 -7 31 C-3.37 32.98 0.26 34.96 4 37 C3.67 37.66 3.34 38.32 3 39 C2.84733388 40.73868744 2.75067404 42.48247501 2.68359375 44.2265625 C2.64169922 45.2578125 2.59980469 46.2890625 2.55664062 47.3515625 C2.51732422 48.43179688 2.47800781 49.51203125 2.4375 50.625 C2.39431641 51.71296875 2.35113281 52.8009375 2.30664062 53.921875 C2.2003547 56.6144517 2.09831943 59.30712253 2 62 C1.67 62 1.34 62 1 62 C1 54.41 1 46.82 1 39 C-0.65 38.34 -2.3 37.68 -4 37 C-5.03125 36.46375 -6.0625 35.9275 -7.125 35.375 C-9.91991924 33.78427225 -9.91991924 33.78427225 -13 34 C-12.87890625 32.14453125 -12.87890625 32.14453125 -12 30 C-9.99803685 29.18140674 -7.97311145 28.41841546 -5.9375 27.6875 C-2.46895706 26.10124209 -2.46895706 26.10124209 0 23 C1.63835124 15.53025312 0.71895497 7.55179243 0 0 Z " fill="#D5EDDE" transform="translate(105,47)"/>
<path d="M0 0 C3.96 0 7.92 0 12 0 C12 0.33 12 0.66 12 1 C8.37 1 4.74 1 1 1 C1 14.86 1 28.72 1 43 C1.99 42.505 1.99 42.505 3 42 C3.65213292 39.97536745 3.65213292 39.97536745 4 38 C4.66 38.66 5.32 39.32 6 40 C7.65 40 9.3 40 11 40 C10.67 28.12 10.34 16.24 10 4 C10.66 4 11.32 4 12 4 C12 17.2 12 30.4 12 44 C8.04 44 4.08 44 0 44 C0 29.48 0 14.96 0 0 Z " fill="#43C1E7" transform="translate(241,106)"/>
<path d="M0 0 C2.15419405 0.70408289 4.29829093 1.43912223 6.4375 2.1875 C8.22994141 2.79658203 8.22994141 2.79658203 10.05859375 3.41796875 C13 5 13 5 13.97265625 7.5625 C14 10 14 10 13 11.8125 C9.89472072 13.65625957 7.54791615 13.36080503 4 13 C0.5625 11.5 0.5625 11.5 -2 10 C-1.484375 9.4225 -0.96875 8.845 -0.4375 8.25 C1.25747521 6.13860011 1.25747521 6.13860011 0.6875 3.875 C0.460625 3.25625 0.23375 2.6375 0 2 C0 1.34 0 0.68 0 0 Z " fill="#EFF8F9" transform="translate(210,129)"/>
<path d="M0 0 C0.66 0.33 1.32 0.66 2 1 C1.91097412 1.61407715 1.82194824 2.2281543 1.73022461 2.86083984 C-0.06150718 14.46387701 -0.06150718 14.46387701 3.55566406 25.05566406 C7.92092678 28.8019235 13.31110023 31.90494756 19 33 C21.65487049 32.70168621 23.50030041 32.0357321 26 31 C25.6875 32.875 25.6875 32.875 25 35 C22 37 22 37 19.625 36.75 C16.99482278 35.99852079 14.53284743 35.02683004 12 34 C11.34 34 10.68 34 10 34 C10 32.68 10 31.36 10 30 C9.42765625 29.88140625 8.8553125 29.7628125 8.265625 29.640625 C4.40548634 28.54913752 1.04030626 26.61321562 -2 24 C-2.5 21.1875 -2.5 21.1875 -2 19 C-2.66 18.67 -3.32 18.34 -4 18 C-3.01 17.67 -2.02 17.34 -1 17 C-0.67 11.39 -0.34 5.78 0 0 Z " fill="#EFF7F3" transform="translate(67,47)"/>
<path d="M0 0 C2.7996541 2.7996541 3.53357998 6.12061344 4.6875 9.8125 C4.92533203 10.52470703 5.16316406 11.23691406 5.40820312 11.97070312 C6.66438079 15.95289685 7.50600721 18.93010735 6 23 C3.5 25.8125 3.5 25.8125 1 28 C0.67 28 0.34 28 0 28 C0 18.76 0 9.52 0 0 Z " fill="#DFF3F8" transform="translate(310,122)"/>
<path d="M0 0 C0.99 0.66 1.98 1.32 3 2 C5.64632287 1.6878236 5.64632287 1.6878236 8 1 C7.67 2.32 7.34 3.64 7 5 C5.68 5.33 4.36 5.66 3 6 C3.99 6.99 4.98 7.98 6 9 C5.67 9.66 5.34 10.32 5 11 C3.22739369 10.54857225 1.4569632 10.08859477 -0.3125 9.625 C-1.29863281 9.36976562 -2.28476563 9.11453125 -3.30078125 8.8515625 C-6 8 -6 8 -9 6 C-8.625 3.5625 -8.625 3.5625 -8 1 C-5.22899606 -0.38550197 -3.0665294 -0.1877467 0 0 Z " fill="#E6F5F8" transform="translate(224,114)"/>
<path d="M0 0 C6.625 -0.25 6.625 -0.25 10 2 C10.3125 5 10.3125 5 10 8 C8 10 8 10 6.0546875 10.1953125 C4.03645833 10.13020833 2.01822917 10.06510417 0 10 C0 6.7 0 3.4 0 0 Z " fill="#FCFCF5" transform="translate(238,80)"/>
<path d="M0 0 C0.33 0 0.66 0 1 0 C1 13.53 1 27.06 1 41 C5.455 40.505 5.455 40.505 10 40 C11.85334407 39.9409763 13.70840019 39.91138592 15.5625 39.9375 C16.83287109 39.95103516 16.83287109 39.95103516 18.12890625 39.96484375 C18.74636719 39.97644531 19.36382812 39.98804688 20 40 C20 40.99 20 41.98 20 43 C13.4 43 6.8 43 0 43 C0 28.81 0 14.62 0 0 Z " fill="#4CC4E7" transform="translate(126,107)"/>
<path d="M0 0 C0.99 0 1.98 0 3 0 C3.3893647 2.60275329 3.76193662 5.20606349 4.125 7.8125 C4.23714844 8.55048828 4.34929687 9.28847656 4.46484375 10.04882812 C5.2265625 15.66015625 5.2265625 15.66015625 3 19 C2.67 19.66 2.34 20.32 2 21 C-0.475 20.01 -0.475 20.01 -3 19 C-3 17.02 -3 15.04 -3 13 C-2.34 12.67 -1.68 12.34 -1 12 C-0.53101037 9.1840151 -0.53101037 9.1840151 -0.375 5.9375 C-0.30023438 4.83277344 -0.22546875 3.72804688 -0.1484375 2.58984375 C-0.09945313 1.73519531 -0.05046875 0.88054687 0 0 Z " fill="#0CAEDD" transform="translate(266,120)"/>
<path d="M0 0 C2.9375 0.75 2.9375 0.75 6 2 C6.875 4.125 6.875 4.125 7 6 C5.25 7.5625 5.25 7.5625 3 9 C1.65626344 8.71145026 0.32329207 8.37119668 -1 8 C-2.51790784 7.88688035 -4.04043743 7.82537701 -5.5625 7.8125 C-6.32691406 7.79832031 -7.09132813 7.78414063 -7.87890625 7.76953125 C-10.30153503 7.8676625 -10.30153503 7.8676625 -13 10 C-14.125 6.25 -14.125 6.25 -13 4 C-11.35 4.33 -9.7 4.66 -8 5 C-8 4.34 -8 3.68 -8 3 C-7.01 3.33 -6.02 3.66 -5 4 C-3.64082319 4.11602431 -3.64082319 4.11602431 -1.9375 2 C-1.298125 1.34 -0.65875 0.68 0 0 Z " fill="#11AFDD" transform="translate(286,108)"/>
<path d="M0 0 C4.29 0.33 8.58 0.66 13 1 C13 1.33 13 1.66 13 2 C7.555 2.495 7.555 2.495 2 3 C2.680625 4.27875 3.36125 5.5575 4.0625 6.875 C5.22265625 9.0546875 5.22265625 9.0546875 6 11 C5.67 11.66 5.34 12.32 5 13 C3.68 12.67 2.36 12.34 1 12 C1 11.34 1 10.68 1 10 C0.34 10 -0.32 10 -1 10 C-0.67 11.98 -0.34 13.96 0 16 C-0.99 16.66 -1.98 17.32 -3 18 C-2.96519531 17.32453125 -2.93039062 16.6490625 -2.89453125 15.953125 C-2.86746094 15.06109375 -2.84039062 14.1690625 -2.8125 13.25 C-2.77769531 12.36828125 -2.74289062 11.4865625 -2.70703125 10.578125 C-3.05076316 7.55328417 -4.00227459 6.24416398 -6 4 C-5.01 3.34 -4.02 2.68 -3 2 C-2.01 2.33 -1.02 2.66 0 3 C0 2.01 0 1.02 0 0 Z " fill="#F3F7DB" transform="translate(260,53)"/>
<path d="M0 0 C1.98 0.66 3.96 1.32 6 2 C6 4.64 6 7.28 6 10 C6.66 10 7.32 10 8 10 C8 11.98 8 13.96 8 16 C-3.52164009 17.33257403 -3.52164009 17.33257403 -9 16 C-8.0625 14 -8.0625 14 -6 12 C-1.32120751 11.25069618 2.02499663 11.34999775 6 14 C5.34 12.02 4.68 10.04 4 8 C3.67 8 3.34 8 3 8 C3 6.02 3 4.04 3 2 C2.01 2 1.02 2 0 2 C0 1.34 0 0.68 0 0 Z " fill="#0AAEDC" transform="translate(281,130)"/>
<path d="M0 0 C2 2 2 2 3 4 C5.39734077 4.79911359 7.73822606 5.46021952 10.1875 6.0625 C12.0746875 6.5265625 12.0746875 6.5265625 14 7 C13.67 7.66 13.34 8.32 13 9 C15.475 9.495 15.475 9.495 18 10 C18 10.33 18 10.66 18 11 C9.65357353 11.71404789 4.15360619 10.3449235 -3 6 C-2.42655063 3.13275314 -2.1385485 2.1385485 0 0 Z " fill="#1AB2DF" transform="translate(206,139)"/>
<path d="M0 0 C2.875 -0.125 2.875 -0.125 6 0 C8 2 8 2 8.1953125 4.1640625 C8.17210937 4.97617188 8.14890625 5.78828125 8.125 6.625 C8.10695313 7.44226563 8.08890625 8.25953125 8.0703125 9.1015625 C8.03550781 10.04128906 8.03550781 10.04128906 8 11 C7.34 11 6.68 11 6 11 C5.67 9.68 5.34 8.36 5 7 C4.01 7 3.02 7 2 7 C2 8.32 2 9.64 2 11 C1.34 11 0.68 11 0 11 C0 7.37 0 3.74 0 0 Z " fill="#21B5DE" transform="translate(353,135)"/>
<path d="M0 0 C2.875 -0.125 2.875 -0.125 6 0 C8 2 8 2 8.25 4.5 C8 7 8 7 6 9 C2.875 9.125 2.875 9.125 0 9 C0 6.03 0 3.06 0 0 Z " fill="#FAFBF0" transform="translate(238,63)"/>
<path d="M0 0 C8.91 0 17.82 0 27 0 C27 2.64 27 5.28 27 8 C26 9 26 9 22.62109375 9.09765625 C21.22652923 9.09098369 19.83198257 9.07902532 18.4375 9.0625 C17.72658203 9.05798828 17.01566406 9.05347656 16.28320312 9.04882812 C14.52209987 9.03700864 12.76103964 9.01907263 11 9 C11 8.67 11 8.34 11 8 C15.29 8 19.58 8 24 8 C24 6.02 24 4.04 24 2 C16.08 1.67 8.16 1.34 0 1 C0 0.67 0 0.34 0 0 Z " fill="#54C6E8" transform="translate(169,106)"/>
<path d="M0 0 C0.66 0 1.32 0 2 0 C2 1.65 2 3.3 2 5 C-4.75 9 -4.75 9 -7 9 C-7 16.59 -7 24.18 -7 32 C-7.33 32 -7.66 32 -8 32 C-8.02505615 31.31373535 -8.0501123 30.6274707 -8.07592773 29.92041016 C-8.19171427 26.82174183 -8.31451885 23.72339077 -8.4375 20.625 C-8.47681641 19.54476562 -8.51613281 18.46453125 -8.55664062 17.3515625 C-8.59853516 16.3203125 -8.64042969 15.2890625 -8.68359375 14.2265625 C-8.72025146 13.27346191 -8.75690918 12.32036133 -8.79467773 11.33837891 C-8.85763465 8.97867651 -8.85763465 8.97867651 -10 7 C-6.7 5.35 -3.4 3.7 0 2 C0 1.34 0 0.68 0 0 Z " fill="#CDEAF2" transform="translate(75,77)"/>
<path d="M0 0 C0.66 0 1.32 0 2 0 C2.0871747 3.74985325 2.14045003 7.49944555 2.1875 11.25 C2.22520508 12.84521484 2.22520508 12.84521484 2.26367188 14.47265625 C2.27817383 16.00986328 2.27817383 16.00986328 2.29296875 17.578125 C2.31653442 18.99206543 2.31653442 18.99206543 2.34057617 20.43457031 C1.94005283 23.45155908 0.94773931 24.71496697 -1 27 C-1.268125 27.721875 -1.53625 28.44375 -1.8125 29.1875 C-3 31 -3 31 -6.125 31.75 C-7.548125 31.87375 -7.548125 31.87375 -9 32 C-7.63338006 28.75368579 -6.31910872 27.3717262 -3.40234375 25.4609375 C-1.01747789 23.49591191 -0.11315424 22.50478234 0.56982422 19.45800781 C0.68819713 16.48598401 0.61181154 13.59404271 0.4375 10.625 C0.40591797 9.60277344 0.37433594 8.58054687 0.34179688 7.52734375 C0.25962544 5.01524566 0.14484348 2.50913466 0 0 Z " fill="#C5EAF6" transform="translate(105,112)"/>
<path d="M0 0 C0.99 0.33 1.98 0.66 3 1 C3 1.99 3 2.98 3 4 C4.98 4.99 6.96 5.98 9 7 C6.37888816 8.40416706 3.96836854 9.6169847 1 10 C0.01 9.34 -0.98 8.68 -2 8 C-2 6 -2 6 -1 5 C-0.63557767 3.33985384 -0.30027117 1.67293936 0 0 Z M-5 1 C-4.67 1 -4.34 1 -4 1 C-4 3.31 -4 5.62 -4 8 C-3.34 8 -2.68 8 -2 8 C-2.33 8.99 -2.66 9.98 -3 11 C-3 10.34 -3 9.68 -3 9 C-3.66 9 -4.32 9 -5 9 C-5 6.36 -5 3.72 -5 1 Z " fill="#EEF7F9" transform="translate(201,141)"/>
<path d="M0 0 C5.28 0 10.56 0 16 0 C16 6.93 16 13.86 16 21 C15.67 21 15.34 21 15 21 C15 14.4 15 7.8 15 1 C9.06 1.495 9.06 1.495 3 2 C3 2.66 3 3.32 3 4 C3.66 4.33 4.32 4.66 5 5 C4.34 5 3.68 5 3 5 C3 5.66 3 6.32 3 7 C2.01 7 1.02 7 0 7 C0 4.69 0 2.38 0 0 Z " fill="#35BDE1" transform="translate(278,125)"/>
<path d="M0 0 C4.67461851 -0.32613618 7.16674383 0.29417212 11 3 C10.43850643 6.25666272 9.62770014 7.95623323 7 10 C4.8125 10.6875 4.8125 10.6875 3 11 C3.66 10.01 4.32 9.02 5 8 C5.66 8 6.32 8 7 8 C6.67 7.01 6.34 6.02 6 5 C2.49705129 3.28432339 2.49705129 3.28432339 -1 2 C-0.67 1.34 -0.34 0.68 0 0 Z M8 0 C10 1 10 1 10 1 Z " fill="#EBF6F6" transform="translate(286,106)"/>
<path d="M0 0 C0.66 0.33 1.32 0.66 2 1 C1.98428955 1.65597168 1.9685791 2.31194336 1.95239258 2.98779297 C1.89016348 5.95010816 1.85104832 8.9122861 1.8125 11.875 C1.78736328 12.90753906 1.76222656 13.94007812 1.73632812 15.00390625 C1.72666016 15.99003906 1.71699219 16.97617187 1.70703125 17.9921875 C1.6913208 18.90339355 1.67561035 19.81459961 1.65942383 20.75341797 C1.77181396 21.49479004 1.8842041 22.23616211 2 23 C2.99 23.66 3.98 24.32 5 25 C4.67 25.99 4.34 26.98 4 28 C1 26.3125 1 26.3125 -2 24 C-2.375 21.25 -2.375 21.25 -2 19 C-2.66 18.67 -3.32 18.34 -4 18 C-3.01 17.67 -2.02 17.34 -1 17 C-0.67 11.39 -0.34 5.78 0 0 Z " fill="#EBF4E1" transform="translate(67,47)"/>
<path d="M0 0 C0 3.3 0 6.6 0 10 C0.99 10 1.98 10 3 10 C3 8.68 3 7.36 3 6 C3.99 6 4.98 6 6 6 C6 7.98 6 9.96 6 12 C0.57831325 12.48192771 0.57831325 12.48192771 -1.875 10.4375 C-3.3704944 7.19726212 -3.20330402 4.52393641 -3 1 C-1 0 -1 0 0 0 Z " fill="#F0F8F9" transform="translate(352,136)"/>
<path d="M0 0 C0.33 0 0.66 0 1 0 C1.03738281 0.69867188 1.07476562 1.39734375 1.11328125 2.1171875 C1.17902344 3.02726562 1.24476563 3.93734375 1.3125 4.875 C1.37050781 5.77992187 1.42851562 6.68484375 1.48828125 7.6171875 C1.7882039 10.36221601 1.7882039 10.36221601 5 12 C4.67 12.66 4.34 13.32 4 14 C2.35 14 0.7 14 -1 14 C-1 14.66 -1 15.32 -1 16 C-0.34 16.33 0.32 16.66 1 17 C-0.65 17 -2.3 17 -4 17 C-4.1875 14.1875 -4.1875 14.1875 -4 11 C-3.525625 10.54625 -3.05125 10.0925 -2.5625 9.625 C0.03938936 6.91903506 -0.29975568 3.65701926 0 0 Z " fill="#BBD52D" transform="translate(236,80)"/>
<path d="M0 0 C2.25696728 4.51393456 2.08092895 8.06333406 2 13 C1.34 13 0.68 13 0 13 C-0.33 11.68 -0.66 10.36 -1 9 C-1.66 9 -2.32 9 -3 9 C-3 12.3 -3 15.6 -3 19 C-3.33 19 -3.66 19 -4 19 C-4.50146657 11.42228293 -3.94998798 6.54216759 0 0 Z " fill="#30BBE0" transform="translate(263,115)"/>
<path d="M0 0 C0.99 0.33 1.98 0.66 3 1 C2.67 3.64 2.34 6.28 2 9 C2.99 9 3.98 9 5 9 C4.67 13.62 4.34 18.24 4 23 C3.67 23 3.34 23 3 23 C2.79503906 21.79601562 2.59007812 20.59203125 2.37890625 19.3515625 C2.10693641 17.77601308 1.83479193 16.20049379 1.5625 14.625 C1.42779297 13.8309375 1.29308594 13.036875 1.15429688 12.21875 C0.48582411 7.98605017 0.48582411 7.98605017 -1 4 C-1.66 3.67 -2.32 3.34 -3 3 C-2.01 2.01 -1.02 1.02 0 0 Z " fill="#1BB3DE" transform="translate(267,110)"/>
<path d="M0 0 C0.33 0.66 0.66 1.32 1 2 C3.02463255 2.65213292 3.02463255 2.65213292 5 3 C4.34 3.66 3.68 4.32 3 5 C2.85502015 7.58064129 2.81322455 10.04943884 2.875 12.625 C2.88853516 13.68460938 2.88853516 13.68460938 2.90234375 14.765625 C2.92592397 16.51056098 2.96179539 18.25532295 3 20 C2.01 20 1.02 20 0 20 C0 13.4 0 6.8 0 0 Z " fill="#62CDE8" transform="translate(45,73)"/>
<path d="M0 0 C4.62 0.66 9.24 1.32 14 2 C14 2.33 14 2.66 14 3 C13.20335937 3.01417969 12.40671875 3.02835937 11.5859375 3.04296875 C4.59800711 3.35751063 0.80713376 3.81335568 -4 9 C-4.66 9.66 -5.32 10.32 -6 11 C-6.20086443 7.28400809 -6.1519437 6.22791555 -4 3 C-3.01 2.67 -2.02 2.34 -1 2 C-0.67 1.34 -0.34 0.68 0 0 Z " fill="#CEEDF7" transform="translate(210,104)"/>
<path d="M0 0 C0 2.64 0 5.28 0 8 C-0.66 7.01 -1.32 6.02 -2 5 C-3.96361864 4.42251197 -3.96361864 4.42251197 -6.125 4.3125 C-7.40375 4.209375 -8.6825 4.10625 -10 4 C-10.33 3.01 -10.66 2.02 -11 1 C-9.35422741 0.83273455 -7.70838013 0.66620388 -6.0625 0.5 C-4.68771484 0.36078125 -4.68771484 0.36078125 -3.28515625 0.21875 C-1 0 -1 0 0 0 Z " fill="#1CB3DF" transform="translate(213,55)"/>
<path d="M0 0 C2.97 0.33 5.94 0.66 9 1 C8.67 1.66 8.34 2.32 8 3 C9.65 3.33 11.3 3.66 13 4 C13 4.33 13 4.66 13 5 C9.37 5 5.74 5 2 5 C0 1 0 1 0 0 Z " fill="#29B7E2" transform="translate(211,145)"/>
<path d="M0 0 C0.33 0 0.66 0 1 0 C1 5.61 1 11.22 1 17 C-0.65 17 -2.3 17 -4 17 C-4 16.34 -4 15.68 -4 15 C-4.99 14.67 -5.98 14.34 -7 14 C-6.34 13.67 -5.68 13.34 -5 13 C-2.875 13.9375 -2.875 13.9375 -1 15 C-1.33 14.01 -1.66 13.02 -2 12 C-1.34 12 -0.68 12 0 12 C0 9.36 0 6.72 0 4 C-0.66 3.67 -1.32 3.34 -2 3 C-1.34 3 -0.68 3 0 3 C0 2.01 0 1.02 0 0 Z " fill="#05ADDA" transform="translate(127,76)"/>
<path d="M0 0 C3.8555225 0.88355724 6.47228379 1.91056908 9 5 C7.35 5.66 5.7 6.32 4 7 C4 6.34 4 5.68 4 5 C3.34 5 2.68 5 2 5 C1.67 4.34 1.34 3.68 1 3 C-1.02463255 2.34786708 -1.02463255 2.34786708 -3 2 C-2.01 1.34 -1.02 0.68 0 0 Z " fill="#289ABA" transform="translate(93,80)"/>
<path d="M0 0 C0.99 0.99 1.98 1.98 3 3 C2 5 2 5 1 6 C7.93 6.495 7.93 6.495 15 7 C15 7.33 15 7.66 15 8 C10.05 8.33 5.1 8.66 0 9 C0 6.03 0 3.06 0 0 Z " fill="#22B1E1" transform="translate(178,124)"/>
<path d="M0 0 C0.53625 0.2475 1.0725 0.495 1.625 0.75 C0.635 2.235 0.635 2.235 -0.375 3.75 C-0.375 4.41 -0.375 5.07 -0.375 5.75 C-4.09099191 5.95086443 -5.14708445 5.9019437 -8.375 3.75 C-2.95961538 -0.31153846 -2.95961538 -0.31153846 0 0 Z " fill="#F1F9F8" transform="translate(126.375,96.25)"/>
<path d="M0 0 C3 1 3 1 5 4 C3.906875 4.12375 2.81375 4.2475 1.6875 4.375 C-2.07381802 4.75464801 -2.07381802 4.75464801 -5 7 C-6.125 3.25 -6.125 3.25 -5 1 C-3.35 1.33 -1.7 1.66 0 2 C0 1.34 0 0.68 0 0 Z " fill="#26B5E3" transform="translate(278,111)"/>
<path d="M0 0 C-0.66 1.32 -1.32 2.64 -2 4 C-8.0546875 4.1953125 -8.0546875 4.1953125 -10 4 C-10.66 3.34 -11.32 2.68 -12 2 C-7.82262526 0.40861915 -4.46839215 -0.21278058 0 0 Z " fill="#ADC146" transform="translate(90,41)"/>
<path d="M0 0 C3 2 3 2 3.51171875 4.3828125 C3.56972656 5.28773438 3.62773437 6.19265625 3.6875 7.125 C3.75324219 8.03507813 3.81898438 8.94515625 3.88671875 9.8828125 C3.92410156 10.58148438 3.96148437 11.28015625 4 12 C1.525 11.01 1.525 11.01 -1 10 C-0.67 6.7 -0.34 3.4 0 0 Z " fill="#2CB8E3" transform="translate(283,132)"/>
<path d="M0 0 C1.04449911 3.13349732 0.93423645 3.98968256 0 7 C-2.31 6.01 -4.62 5.02 -7 4 C-5.53303752 1.06607504 -3.25996861 0 0 0 Z " fill="#ADC145" transform="translate(75,45)"/>
<path d="M0 0 C2.875 -0.125 2.875 -0.125 6 0 C8 2 8 2 8 5 C6.02 5 4.04 5 2 5 C2 3.68 2 2.36 2 1 C1.34 0.67 0.68 0.34 0 0 Z " fill="#6BCCE7" transform="translate(353,135)"/>
<path d="M0 0 C2.59482129 2.59482129 2.69990302 4.39883625 3 8 C2.34 8.66 1.68 9.32 1 10 C0.34 10 -0.32 10 -1 10 C-1.125 2.25 -1.125 2.25 0 0 Z " fill="#21B5E1" transform="translate(320,124)"/>
<path d="M0 0 C-0.639375 0.309375 -1.27875 0.61875 -1.9375 0.9375 C-3.93610821 1.8345163 -3.93610821 1.8345163 -5 3 C-5.23363881 4.84891946 -5.41303635 6.70488031 -5.5625 8.5625 C-5.64628906 9.57441406 -5.73007812 10.58632812 -5.81640625 11.62890625 C-5.87699219 12.41136719 -5.93757813 13.19382813 -6 14 C-6.33 14 -6.66 14 -7 14 C-7.16873478 12.56274129 -7.33490737 11.12518162 -7.5 9.6875 C-7.5928125 8.88699219 -7.685625 8.08648437 -7.78125 7.26171875 C-8 5 -8 5 -8 2 C-4.77208445 -0.1519437 -3.71599191 -0.20086443 0 0 Z " fill="#AAE2F3" transform="translate(359,132)"/>
<path d="M0 0 C0.66 0.99 1.32 1.98 2 3 C-0.31 4.65 -2.62 6.3 -5 8 C-4.64950425 4.75791433 -4.43778819 3.38472296 -1.9375 1.1875 C-1.298125 0.795625 -0.65875 0.40375 0 0 Z " fill="#DCF3F6" transform="translate(102,111)"/>
<path d="M0 0 C0.99 0.33 1.98 0.66 3 1 C2.979375 1.94875 2.95875 2.8975 2.9375 3.875 C2.77448174 6.90666283 2.77448174 6.90666283 4 9 C3.34 9 2.68 9 2 9 C1.67 9.99 1.34 10.98 1 12 C0.34 11.34 -0.32 10.68 -1 10 C-0.67 9.67 -0.34 9.34 0 9 C0.25005386 6.04182893 0.25005386 6.04182893 0 3 C-0.66 2.34 -1.32 1.68 -2 1 C-1.34 0.67 -0.68 0.34 0 0 Z " fill="#C3DA44" transform="translate(247,79)"/>
<path d="M0 0 C-2.80804268 2.96404505 -5.18315774 5.44499019 -9 7 C-9 4 -9 4 -7.3125 1.8125 C-4.6038423 -0.31050198 -3.35291118 -0.37254569 0 0 Z " fill="#24B5E0" transform="translate(96,142)"/>
<path d="M0 0 C1.95418308 2.93127462 2.64700993 4.55834679 3 8 C2.34 8.66 1.68 9.32 1 10 C0.67 8.35 0.34 6.7 0 5 C-0.66 5 -1.32 5 -2 5 C-2 4.01 -2 3.02 -2 2 C-1.34 2 -0.68 2 0 2 C0 1.34 0 0.68 0 0 Z " fill="#23B8E1" transform="translate(317,115)"/>
<path d="M0 0 C0.99 0.33 1.98 0.66 3 1 C4.17755913 3.94389782 4.03348696 4.89953913 3 8 C2.34 8.66 1.68 9.32 1 10 C0.63720544 8.71073008 0.28503302 7.41846728 -0.0625 6.125 C-0.35833984 5.04605469 -0.35833984 5.04605469 -0.66015625 3.9453125 C-1 2 -1 2 0 0 Z " fill="#C0D740" transform="translate(282,64)"/>
<path d="M0 0 C2.9375 0.75 2.9375 0.75 6 2 C6.875 4.125 6.875 4.125 7 6 C3.15233433 5.23046687 1.7602947 3.7602947 -1 1 C-0.67 0.67 -0.34 0.34 0 0 Z " fill="#1BB4E0" transform="translate(286,108)"/>
<path d="M0 0 C1.32 0 2.64 0 4 0 C2.55746343 3.36591866 0.66735273 5.51047079 -2 8 C-2.20086443 4.28400809 -2.1519437 3.22791555 0 0 Z " fill="#DEF4F8" transform="translate(206,107)"/>
<path d="M0 0 C0.9075 0.61875 1.815 1.2375 2.75 1.875 C6.04498848 4.11846968 6.04498848 4.11846968 10 6 C7.03 5.67 4.06 5.34 1 5 C0.67 3.35 0.34 1.7 0 0 Z " fill="#DFF4F9" transform="translate(264,144)"/>
<path d="M0 0 C2 2 2 2 2.1953125 3.9453125 C2.13020833 5.96354167 2.06510417 7.98177083 2 10 C-0.6855594 7.3144406 -1.06049974 4.62378672 -2 1 C-1.34 0.67 -0.68 0.34 0 0 Z " fill="#F1FAF9" transform="translate(322,122)"/>
<path d="M0 0 C3.67857143 3.67857143 3.67857143 3.67857143 4 7 C2 9 2 9 -1 10 C-0.67 6.7 -0.34 3.4 0 0 Z " fill="#F8FAEB" transform="translate(260,82)"/>
<path d="M0 0 C2.0625 0.4375 2.0625 0.4375 4 1 C3.67 2.65 3.34 4.3 3 6 C1.68 5.34 0.36 4.68 -1 4 C-1 1 -1 1 0 0 Z " fill="#F8FAEB" transform="translate(256,55)"/>
<path d="M0 0 C3.24208567 0.35049575 4.61527704 0.56221181 6.8125 3.0625 C7.204375 3.701875 7.59625 4.34125 8 5 C5.07120629 4.37240135 2.63904371 3.41377341 0 2 C0 1.34 0 0.68 0 0 Z " fill="#ECF9F8" transform="translate(141,115)"/>
<path d="M0 0 C1.11375 0.556875 1.11375 0.556875 2.25 1.125 C0.25 3.125 0.25 3.125 -2.875 3.25 C-4.298125 3.188125 -4.298125 3.188125 -5.75 3.125 C-6.08 2.465 -6.41 1.805 -6.75 1.125 C-4.02098495 -0.69434337 -3.21400584 -1.02263822 0 0 Z " fill="#2D9DC0" transform="translate(81.75,80.875)"/>
<path d="M0 0 C0.66 0.99 1.32 1.98 2 3 C0.02 3.99 -1.96 4.98 -4 6 C-4.66 5.34 -5.32 4.68 -6 4 C-4.02 2.68 -2.04 1.36 0 0 Z " fill="#2B9CBF" transform="translate(103,74)"/>
<path d="M0 0 C0.66 0.99 1.32 1.98 2 3 C0.35 3.66 -1.3 4.32 -3 5 C-3 4.34 -3 3.68 -3 3 C-3.66 2.67 -4.32 2.34 -5 2 C-3.35 1.34 -1.7 0.68 0 0 Z " fill="#EAF7FA" transform="translate(229,147)"/>
<path d="M0 0 C0.66 1.32 1.32 2.64 2 4 C0.02 4.99 0.02 4.99 -2 6 C-2.33 4.68 -2.66 3.36 -3 2 C-2.01 1.34 -1.02 0.68 0 0 Z " fill="#EFF9F8" transform="translate(155,145)"/>
<path d="M0 0 C0.33 0.99 0.66 1.98 1 3 C1.66 3 2.32 3 3 3 C3 3.66 3 4.32 3 5 C3.66 5.33 4.32 5.66 5 6 C5 6.66 5 7.32 5 8 C3.35 7.67 1.7 7.34 0 7 C0 4.69 0 2.38 0 0 Z " fill="#F2FAF7" transform="translate(196,106)"/>
<path d="M0 0 C3.465 1.485 3.465 1.485 7 3 C6.67 3.66 6.34 4.32 6 5 C4.35 4.67 2.7 4.34 1 4 C0.67 2.68 0.34 1.36 0 0 Z " fill="#D4EBF1" transform="translate(102,81)"/>
<path d="M0 0 C2.625 0.375 2.625 0.375 5 1 C5 1.99 5 2.98 5 4 C2.69 3.34 0.38 2.68 -2 2 C-1.34 1.34 -0.68 0.68 0 0 Z " fill="#E4F4F6" transform="translate(121,68)"/>
<path d="M0 0 C0.99 0.33 1.98 0.66 3 1 C2.67 2.65 2.34 4.3 2 6 C1.01 5.67 0.02 5.34 -1 5 C-0.67 3.35 -0.34 1.7 0 0 Z " fill="#D9F1F6" transform="translate(221,134)"/>
<path d="M0 0 C0.66 0 1.32 0 2 0 C3.35015859 4.05047576 2.62084998 6.7920168 2 11 C1.67 11 1.34 11 1 11 C0.63890458 9.35567294 0.28629924 7.7094792 -0.0625 6.0625 C-0.25972656 5.14597656 -0.45695313 4.22945312 -0.66015625 3.28515625 C-0.77230469 2.53105469 -0.88445312 1.77695313 -1 1 C-0.67 0.67 -0.34 0.34 0 0 Z " fill="#E2F3F9" transform="translate(234,128)"/>
<path d="M0 0 C0.99 0.33 1.98 0.66 3 1 C1.02 3.97 1.02 3.97 -1 7 C-1.66 6.67 -2.32 6.34 -3 6 C-2.67 5.01 -2.34 4.02 -2 3 C-1.34 3 -0.68 3 0 3 C0 2.01 0 1.02 0 0 Z " fill="#E8F6F8" transform="translate(264,109)"/>
<path d="M0 0 C2.45484649 2.13464912 3.68134222 3.70720291 4 7 C3.34 7.66 2.68 8.32 2 9 C0.50178941 5.62902617 0 3.79557881 0 0 Z " fill="#EDF8F9" transform="translate(159,111)"/>
</svg>
