<?xml version="1.0" encoding="UTF-8"?>
<svg version="1.1" xmlns="http://www.w3.org/2000/svg" width="250" height="200">
<path d="M0 0 C82.5 0 165 0 250 0 C250 66 250 132 250 200 C167.5 200 85 200 0 200 C0 134 0 68 0 0 Z " fill="#FEFEFD" transform="translate(0,0)"/>
<path d="M0 0 C1.65 0 3.3 0 5 0 C5.66 1.32 6.32 2.64 7 4 C9.27113803 3.85899143 11.54190725 3.71203245 13.8125 3.5625 C15.07707031 3.48128906 16.34164062 3.40007812 17.64453125 3.31640625 C20.99181893 3.12815453 20.99181893 3.12815453 24 2 C26.33297433 1.95907063 28.66705225 1.95758277 31 2 C33.15634036 2 34.92446352 1.5534764 37 1 C37.042721 2.66611905 37.04063832 4.33382885 37 6 C36.67 6.33 36.34 6.66 36 7 C34.72125 6.938125 33.4425 6.87625 32.125 6.8125 C26.35806905 7.35999344 23.75350646 11.06035482 20.2355957 15.19580078 C14.95580692 21.36550352 8.71171554 27.89094865 0.3125 29 C-0.780625 29 -1.87375 29 -3 29 C-3 29.66 -3 30.32 -3 31 C-2.31292969 30.96519531 -1.62585938 30.93039063 -0.91796875 30.89453125 C-0.01691406 30.86746094 0.88414063 30.84039062 1.8125 30.8125 C3.15248047 30.76029297 3.15248047 30.76029297 4.51953125 30.70703125 C7 31 7 31 8.828125 32.27734375 C10.53549669 34.78718014 10.06521187 36.9663135 9.59375 39.859375 C8.63480763 43.31661459 6.94125745 45.99418202 5 49 C6.98 49 8.96 49 11 49 C11 49.99 11 50.98 11 52 C6.38 52 1.76 52 -3 52 C-1.98700375 49.46750938 -0.97145839 46.93498856 0.125 44.4375 C1.22524317 41.80416916 1.22524317 41.80416916 1 38 C-2.2313547 37.43451293 -4.29409574 37.54136164 -7.07421875 39.34765625 C-11.19352138 42.81213443 -13.94906848 45.93299271 -16 51 C-17 52 -17 52 -19.50390625 52.09765625 C-20.51324219 52.08605469 -21.52257812 52.07445312 -22.5625 52.0625 C-23.57441406 52.05347656 -24.58632813 52.04445312 -25.62890625 52.03515625 C-26.41136719 52.02355469 -27.19382812 52.01195312 -28 52 C-28 51.01 -28 50.02 -28 49 C-26.205625 48.9690625 -26.205625 48.9690625 -24.375 48.9375 C-22.06775573 48.55231486 -22.06775573 48.55231486 -20 47 C-17.40806168 42.17942852 -15.67063099 37.20173741 -14 32 C-13.34 32 -12.68 32 -12 32 C-11.855625 31.21625 -11.71125 30.4325 -11.5625 29.625 C-11 27 -11 27 -10 25 C-7.671875 24.65625 -7.671875 24.65625 -4.75 24.5 C-0.73688269 24.28307474 2.32890136 23.66137311 6 22 C6 21.34 6 20.68 6 20 C5.01 20 4.02 20 3 20 C3 20.66 3 21.32 3 22 C0.75487738 23.12256131 -0.51456649 23.13413762 -3 23.125 C-4.051875 23.12886719 -4.051875 23.12886719 -5.125 23.1328125 C-7 23 -7 23 -9 22 C-9 19.36 -9 16.72 -9 14 C-8.21625 13.87625 -7.4325 13.7525 -6.625 13.625 C-3.80898488 12.2707816 -3.80898488 12.2707816 -3.22265625 9.640625 C-2.73064551 7.09797096 -2.31769004 4.56997021 -2 2 C-1.34 2 -0.68 2 0 2 C0 1.34 0 0.68 0 0 Z " fill="#272D38" transform="translate(35,72)"/>
<path d="M0 0 C2.64 0 5.28 0 8 0 C9 1 9 1 9.09765625 3.28515625 C9.08605469 4.20167969 9.07445312 5.11820312 9.0625 6.0625 C9.05347656 6.98160156 9.04445312 7.90070313 9.03515625 8.84765625 C9.02355469 9.55792969 9.01195312 10.26820312 9 11 C9.66 10.67 10.32 10.34 11 10 C13.05859375 9.796875 13.05859375 9.796875 15.4375 9.75 C16.21996094 9.72421875 17.00242188 9.6984375 17.80859375 9.671875 C20.59108779 10.08850512 21.29212767 10.79316815 23 13 C23.34057617 15.26831055 23.34057617 15.26831055 23.29296875 17.88671875 C23.28330078 18.82451172 23.27363281 19.76230469 23.26367188 20.72851562 C23.23853516 21.70498047 23.21339844 22.68144531 23.1875 23.6875 C23.16719727 25.16959961 23.16719727 25.16959961 23.14648438 26.68164062 C23.11112203 29.12164231 23.06177033 31.56054719 23 34 C20.36 34 17.72 34 15 34 C14.67 28.39 14.34 22.78 14 17 C12.35 17 10.7 17 9 17 C9 22.61 9 28.22 9 34 C6.03 34 3.06 34 0 34 C0 22.78 0 11.56 0 0 Z " fill="#151A21" transform="translate(223,90)"/>
<path d="M0 0 C3.67930728 2.09215512 4.6704934 3.01148019 6 7 C6.494097 11.10100506 6.95235971 15.2232095 4.953125 18.953125 C2.46116847 21.97278998 0.49870129 23.78450047 -3.390625 24.34375 C-10.7335 24.745 -10.7335 24.745 -14.05859375 22.7890625 C-17.32676819 19.45035192 -18.38157129 16.52347615 -18.5625 11.875 C-18.30743753 7.87902136 -17.64180432 5.13102735 -15 2 C-10.33776545 -1.10815637 -5.45984696 -0.61156181 0 0 Z " fill="#272D35" transform="translate(181,100)"/>
<path d="M0 0 C-0.6875 2.875 -0.6875 2.875 -2 6 C-5.29564692 7.90800611 -7.12388592 8 -11 8 C-11 8.66 -11 9.32 -11 10 C-9.96939453 9.94779297 -9.96939453 9.94779297 -8.91796875 9.89453125 C-8.01691406 9.86746094 -7.11585937 9.84039062 -6.1875 9.8125 C-4.84751953 9.76029297 -4.84751953 9.76029297 -3.48046875 9.70703125 C-1 10 -1 10 0.828125 11.27734375 C2.53549669 13.78718014 2.06521187 15.9663135 1.59375 18.859375 C0.63480763 22.31661459 -1.05874255 24.99418202 -3 28 C-1.02 28 0.96 28 3 28 C3 28.99 3 29.98 3 31 C-1.62 31 -6.24 31 -11 31 C-9.98700375 28.46750938 -8.97145839 25.93498856 -7.875 23.4375 C-6.77475683 20.80416916 -6.77475683 20.80416916 -7 17 C-10.2313547 16.43451293 -12.29409574 16.54136164 -15.07421875 18.34765625 C-19.19352138 21.81213443 -21.94906848 24.93299271 -24 30 C-25 31 -25 31 -27.50390625 31.09765625 C-28.51324219 31.08605469 -29.52257812 31.07445313 -30.5625 31.0625 C-31.57441406 31.05347656 -32.58632813 31.04445313 -33.62890625 31.03515625 C-34.41136719 31.02355469 -35.19382812 31.01195313 -36 31 C-36 30.01 -36 29.02 -36 28 C-34.205625 27.9690625 -34.205625 27.9690625 -32.375 27.9375 C-30.06775573 27.55231486 -30.06775573 27.55231486 -28 26 C-25.40806168 21.17942852 -23.67063099 16.20173741 -22 11 C-21.34 11 -20.68 11 -20 11 C-19.7834375 9.824375 -19.7834375 9.824375 -19.5625 8.625 C-19 6 -19 6 -18 4 C-15.671875 3.69140625 -15.671875 3.69140625 -12.75 3.5625 C-8.03520667 3.23228101 -4.16036419 0 0 0 Z " fill="#1D222A" transform="translate(43,93)"/>
<path d="M0 0 C2.64 0 5.28 0 8 0 C8 0.66 8 1.32 8 2 C8.99 1.34 9.98 0.68 11 0 C17.93146853 -0.66013986 17.93146853 -0.66013986 21.23828125 1.3828125 C23.98808177 5.46788201 23.42477612 9.45037892 23.25 14.25 C23.23195312 15.18585938 23.21390625 16.12171875 23.1953125 17.0859375 C23.14826909 19.39106438 23.07652778 21.69566354 23 24 C20.03 24 17.06 24 14 24 C13.67 18.72 13.34 13.44 13 8 C11.68 8 10.36 8 9 8 C8.67 13.28 8.34 18.56 8 24 C5.36 24 2.72 24 0 24 C0 16.08 0 8.16 0 0 Z " fill="#121922" transform="translate(138,100)"/>
<path d="M0 0 C1.51400391 0.01740234 1.51400391 0.01740234 3.05859375 0.03515625 C4.07050781 0.04417969 5.08242187 0.05320312 6.125 0.0625 C7.29869141 0.07990234 7.29869141 0.07990234 8.49609375 0.09765625 C8.49609375 0.75765625 8.49609375 1.41765625 8.49609375 2.09765625 C9.13546875 2.36578125 9.77484375 2.63390625 10.43359375 2.91015625 C12.49609375 4.09765625 12.49609375 4.09765625 13.49609375 7.09765625 C13.49609375 9.40765625 13.49609375 11.71765625 13.49609375 14.09765625 C7.88609375 14.09765625 2.27609375 14.09765625 -3.50390625 14.09765625 C-1.52390625 17.06765625 -1.52390625 17.06765625 0.49609375 20.09765625 C5.09833506 20.6090164 8.99789743 20.22220533 13.49609375 19.09765625 C13.49609375 20.41765625 13.49609375 21.73765625 13.49609375 23.09765625 C8.46261598 26.11774291 5.21928456 26.64272204 -0.50390625 26.09765625 C-4.75760704 24.30164925 -6.44907547 22.16702701 -8.50390625 18.09765625 C-9.22532865 13.57674254 -9.80619911 8.31482151 -7.4140625 4.2421875 C-6.06640625 2.91015625 -6.06640625 2.91015625 -3.50390625 1.09765625 C-2.50390625 0.09765625 -2.50390625 0.09765625 0 0 Z " fill="#7E7852" transform="translate(120.50390625,97.90234375)"/>
<path d="M0 0 C2.97 0 5.94 0 9 0 C9 2.64 9 5.28 9 8 C10.32 8 11.64 8 13 8 C13 9.98 13 11.96 13 14 C11.68 14 10.36 14 9 14 C9 17.63 9 21.26 9 25 C10.32 25 11.64 25 13 25 C13 27.31 13 29.62 13 32 C11.3973218 32.10824843 9.79254252 32.18570645 8.1875 32.25 C7.29417969 32.29640625 6.40085938 32.3428125 5.48046875 32.390625 C3 32 3 32 1.1875 30.4375 C-0.43936557 27.09814436 -0.29012923 24.44465231 -0.1875 20.75 C-0.16042969 19.48671875 -0.13335937 18.2234375 -0.10546875 16.921875 C-0.07066406 15.95765625 -0.03585938 14.9934375 0 14 C-0.99 14 -1.98 14 -3 14 C-3 12.02 -3 10.04 -3 8 C-2.01 8 -1.02 8 0 8 C0 5.36 0 2.72 0 0 Z " fill="#414650" transform="translate(208,92)"/>
<path d="M0 0 C1.98 0 3.96 0 6 0 C6.02505615 0.57032959 6.0501123 1.14065918 6.07592773 1.72827148 C6.19156549 4.29826157 6.31443624 6.86785527 6.4375 9.4375 C6.47681641 10.33533203 6.51613281 11.23316406 6.55664062 12.15820312 C6.59853516 13.01220703 6.64042969 13.86621094 6.68359375 14.74609375 C6.72025146 15.53685303 6.75690918 16.3276123 6.79467773 17.14233398 C6.80563257 19.01401441 6.80563257 19.01401441 8 20 C10.95817107 20.25005386 10.95817107 20.25005386 14 20 C16.35358251 17.64641749 16.27871904 17.07031606 16.4140625 13.8671875 C16.45273438 13.06152344 16.49140625 12.25585938 16.53125 11.42578125 C16.57765625 10.16314453 16.57765625 10.16314453 16.625 8.875 C16.66367188 8.02550781 16.70234375 7.17601563 16.7421875 6.30078125 C16.83656494 4.20088316 16.91937586 2.10047109 17 0 C18.65 0 20.3 0 22 0 C22 8.25 22 16.5 22 25 C20.35 25 18.7 25 17 25 C17 24.34 17 23.68 17 23 C15.948125 23.7425 15.948125 23.7425 14.875 24.5 C11.48749667 26.26739304 9.7664742 26.6277457 6 26 C3.42714276 23.827365 1.51003081 22.02006162 0 19 C-0.08342159 17.55151418 -0.10732861 16.09929131 -0.09765625 14.6484375 C-0.09443359 13.79765625 -0.09121094 12.946875 -0.08789062 12.0703125 C-0.07951172 11.18085937 -0.07113281 10.29140625 -0.0625 9.375 C-0.05798828 8.4778125 -0.05347656 7.580625 -0.04882812 6.65625 C-0.03702591 4.43743352 -0.02056155 2.21874982 0 0 Z " fill="#A0957D" transform="translate(87,98)"/>
<path d="M0 0 C0 3.3 0 6.6 0 10 C-1.98 10.66 -3.96 11.32 -6 12 C-6.33 16.29 -6.66 20.58 -7 25 C-9.64 25 -12.28 25 -15 25 C-15 17.08 -15 9.16 -15 1 C-12.69 1 -10.38 1 -8 1 C-7.67 1.66 -7.34 2.32 -7 3 C-6.5875 2.505 -6.175 2.01 -5.75 1.5 C-4 0 -4 0 0 0 Z " fill="#323941" transform="translate(204,99)"/>
<path d="M0 0 C0 1.32 0 2.64 0 4 C2.64 4 5.28 4 8 4 C8 5.65 8 7.3 8 9 C5.36 9 2.72 9 0 9 C0.33 13.62 0.66 18.24 1 23 C5.64045375 24.09805807 5.64045375 24.09805807 9 24 C9 25.32 9 26.64 9 28 C5.40735548 29.19754817 2.77282526 29.33094958 -1 29 C-3.20703125 27.49609375 -3.20703125 27.49609375 -5 25 C-5.2906124 22.10550051 -5.38186045 19.62050065 -5.25 16.75 C-5.23195312 16.00492188 -5.21390625 15.25984375 -5.1953125 14.4921875 C-5.14835649 12.66090299 -5.07661652 10.83028351 -5 9 C-6.32 9 -7.64 9 -9 9 C-7.45665977 5.21180126 -4.44676575 0 0 0 Z " fill="#8C7F63" transform="translate(55,94)"/>
<path d="M0 0 C3.69026484 0.63261683 6.42725897 1.57090359 10 3 C10 9.6 10 16.2 10 23 C7.03 23 4.06 23 1 23 C0.96261719 21.86820313 0.92523438 20.73640625 0.88671875 19.5703125 C0.82106918 18.08850795 0.75462149 16.60673861 0.6875 15.125 C0.66494141 14.37863281 0.64238281 13.63226563 0.61914062 12.86328125 C0.52188055 10.900396 0.26957706 8.94671678 0 7 C-0.99 6.34 -1.98 5.68 -3 5 C-2.01 3.35 -1.02 1.7 0 0 Z " fill="#353A43" transform="translate(151,101)"/>
<path d="M0 0 C2.86724686 0.57344937 3.8614515 0.8614515 6 3 C6.22705078 5.15478516 6.22705078 5.15478516 6.1953125 7.7890625 C6.18564453 9.20058594 6.18564453 9.20058594 6.17578125 10.640625 C6.15902344 11.62546875 6.14226562 12.6103125 6.125 13.625 C6.11597656 14.61757812 6.10695312 15.61015625 6.09765625 16.6328125 C6.07404116 19.08878134 6.04110799 21.54427168 6 24 C3.36 24 0.72 24 -2 24 C-2.33 18.39 -2.66 12.78 -3 7 C-3.99 7 -4.98 7 -6 7 C-5.67 5.35 -5.34 3.7 -5 2 C-3.35 2 -1.7 2 0 2 C0 1.34 0 0.68 0 0 Z " fill="#373D44" transform="translate(240,100)"/>
<path d="M0 0 C1.65 0 3.3 0 5 0 C5 1.32 5 2.64 5 4 C5.66 4 6.32 4 7 4 C7 3.34 7 2.68 7 2 C7.66 2 8.32 2 9 2 C9 1.34 9 0.68 9 0 C11.31 0 13.62 0 16 0 C17.0625 1.875 17.0625 1.875 18 4 C17.67 4.66 17.34 5.32 17 6 C16.37351562 5.97679688 15.74703125 5.95359375 15.1015625 5.9296875 C14.28429687 5.91164063 13.46703125 5.89359375 12.625 5.875 C11.40683594 5.84019531 11.40683594 5.84019531 10.1640625 5.8046875 C7.78657757 5.78629949 7.78657757 5.78629949 6 8 C5.69324768 10.89967757 5.48826629 13.71783178 5.375 16.625 C5.33632812 17.42679688 5.29765625 18.22859375 5.2578125 19.0546875 C5.16346069 21.03607556 5.08063785 23.01800645 5 25 C3.35 25 1.7 25 0 25 C0 16.75 0 8.5 0 0 Z " fill="#867956" transform="translate(67,98)"/>
<path d="M0 0 C1 2 1 2 1 4 C1.66 4 2.32 4 3 4 C3 3.34 3 2.68 3 2 C4.32 1.67 5.64 1.34 7 1 C7 1.66 7 2.32 7 3 C7.804375 2.979375 8.60875 2.95875 9.4375 2.9375 C12 3 12 3 13 4 C13.09823937 5.66429051 13.12973631 7.33281931 13.125 9 C13.12757813 9.9075 13.13015625 10.815 13.1328125 11.75 C13 14 13 14 12 15 C10.00041636 15.04080783 7.99954746 15.04254356 6 15 C6 15.66 6 16.32 6 17 C3.6568787 16.74438677 1.32156597 16.40729228 -1 16 C-2.22485812 13.55028376 -2.16722808 11.85765539 -2.1875 9.125 C-2.20167969 8.26132813 -2.21585938 7.39765625 -2.23046875 6.5078125 C-1.98859252 3.8758712 -1.32983541 2.26019456 0 0 Z " fill="#2D343F" transform="translate(165,103)"/>
<path d="M0 0 C0.99 0 1.98 0 3 0 C3 1.32 3 2.64 3 4 C2.01 4 1.02 4 0 4 C0 7.96 0 11.92 0 16 C1.32 16 2.64 16 4 16 C4 18.31 4 20.62 4 23 C2.37536158 23.05395478 0.75021459 23.09277195 -0.875 23.125 C-1.77992188 23.14820312 -2.68484375 23.17140625 -3.6171875 23.1953125 C-6 23 -6 23 -8 21 C-8.14497985 18.41935871 -8.18677545 15.95056116 -8.125 13.375 C-8.11597656 12.66859375 -8.10695312 11.9621875 -8.09765625 11.234375 C-8.07407603 9.48943902 -8.03820461 7.74467705 -8 6 C-6.68 6 -5.36 6 -4 6 C-3.67 7.32 -3.34 8.64 -3 10 C-2.67 7.36 -2.34 4.72 -2 2 C-1.34 2 -0.68 2 0 2 C0 1.34 0 0.68 0 0 Z " fill="#29313C" transform="translate(217,101)"/>
<path d="M0 0 C1.65 0 3.3 0 5 0 C5.2475 0.639375 5.495 1.27875 5.75 1.9375 C6.80256744 4.17077103 6.80256744 4.17077103 9 4.6875 C9.66 4.790625 10.32 4.89375 11 5 C11.66 5.33 12.32 5.66 13 6 C11.56590028 9.35861695 9.80630679 11.35874939 7.0625 13.75 C6.37285156 14.36359375 5.68320312 14.9771875 4.97265625 15.609375 C3 17 3 17 0 17 C0 16.34 0 15.68 0 15 C0.99 14.34 1.98 13.68 3 13 C2.67 12.67 2.34 12.34 2 12 C1.67 12.66 1.34 13.32 1 14 C-0.65 13.67 -2.3 13.34 -4 13 C-3.85892253 11.54119891 -3.71197585 10.08296449 -3.5625 8.625 C-3.48128906 7.81289062 -3.40007813 7.00078125 -3.31640625 6.1640625 C-3 4 -3 4 -2 2 C-1.34 2 -0.68 2 0 2 C0 1.34 0 0.68 0 0 Z " fill="#2E323D" transform="translate(35,72)"/>
<path d="M0 0 C0.99 0 1.98 0 3 0 C3.042721 1.66611905 3.04063832 3.33382885 3 5 C1.45522376 6.54477624 -0.17027278 6.18978649 -2.3125 6.3125 C-5.75669494 6.64156321 -6.77649113 6.82010262 -9.5625 9.0625 C-10.036875 9.701875 -10.51125 10.34125 -11 11 C-11 10.34 -11 9.68 -11 9 C-11.75925781 9.51691406 -12.51851562 10.03382812 -13.30078125 10.56640625 C-14.29464844 11.22511719 -15.28851563 11.88382813 -16.3125 12.5625 C-17.79169922 13.55443359 -17.79169922 13.55443359 -19.30078125 14.56640625 C-20.19152344 15.03949219 -21.08226562 15.51257813 -22 16 C-22.99 15.67 -23.98 15.34 -25 15 C-24.65066406 14.52949219 -24.30132812 14.05898437 -23.94140625 13.57421875 C-23.25884766 12.64029297 -23.25884766 12.64029297 -22.5625 11.6875 C-22.11003906 11.07261719 -21.65757813 10.45773438 -21.19140625 9.82421875 C-19.82663692 7.90322899 -19.82663692 7.90322899 -19 5 C-18.195625 4.87625 -17.39125 4.7525 -16.5625 4.625 C-15.716875 4.41875 -14.87125 4.2125 -14 4 C-13.67 3.34 -13.34 2.68 -13 2 C-9.51438119 0.83812706 -6.65601233 0.93352705 -3 1 C-2.34 1 -1.68 1 -1 1 C-0.67 0.67 -0.34 0.34 0 0 Z " fill="#34383E" transform="translate(69,73)"/>
<path d="M0 0 C1.65 0 3.3 0 5 0 C5 8.25 5 16.5 5 25 C3.35 25 1.7 25 0 25 C0 24.34 0 23.68 0 23 C-0.93972656 23.12568359 -0.93972656 23.12568359 -1.8984375 23.25390625 C-3.12433594 23.40666016 -3.12433594 23.40666016 -4.375 23.5625 C-5.18710938 23.66691406 -5.99921875 23.77132812 -6.8359375 23.87890625 C-9 24 -9 24 -11 23 C-10 22 -10 22 -6.4375 21.9375 C-5.303125 21.958125 -4.16875 21.97875 -3 22 C-1.38364512 19.13026116 -0.7266582 16.95535797 -0.5859375 13.671875 C-0.52792969 12.47304687 -0.52792969 12.47304687 -0.46875 11.25 C-0.4378125 10.425 -0.406875 9.6 -0.375 8.75 C-0.31699219 7.48929687 -0.31699219 7.48929687 -0.2578125 6.203125 C-0.16384164 4.13576618 -0.08084436 2.06791373 0 0 Z " fill="#7E7151" transform="translate(104,98)"/>
<path d="M0 0 C0.66 0.33 1.32 0.66 2 1 C1.56826496 7.15222436 0.34594658 10.81917949 -3 16 C-1.02 16 0.96 16 3 16 C3 16.99 3 17.98 3 19 C-1.62 19 -6.24 19 -11 19 C-9.98700375 16.46750938 -8.97145839 13.93498856 -7.875 11.4375 C-6.77475683 8.80416916 -6.77475683 8.80416916 -7 5 C-9.97 4.505 -9.97 4.505 -13 4 C-13 3.67 -13 3.34 -13 3 C-12.14535156 2.95101562 -11.29070313 2.90203125 -10.41015625 2.8515625 C-9.30542969 2.77679688 -8.20070313 2.70203125 -7.0625 2.625 C-5.40927734 2.52058594 -5.40927734 2.52058594 -3.72265625 2.4140625 C-2.37494141 2.20910156 -2.37494141 2.20910156 -1 2 C-0.67 1.34 -0.34 0.68 0 0 Z " fill="#383D45" transform="translate(43,105)"/>
<path d="M0 0 C2.64 0 5.28 0 8 0 C9.72590382 1.72590382 9.53137005 4.02092286 9.8125 6.375 C10.00779297 7.84066406 10.00779297 7.84066406 10.20703125 9.3359375 C10 12 10 12 8.01171875 13.8515625 C7.01591797 14.42003906 7.01591797 14.42003906 6 15 C5.34 14.67 4.68 14.34 4 14 C3.01 15.485 3.01 15.485 2 17 C2 12.05 2 7.1 2 2 C3.65 1.67 5.3 1.34 7 1 C5.02 1 3.04 1 1 1 C1 11.56 1 22.12 1 33 C3.31 33 5.62 33 8 33 C8 28.38 8 23.76 8 19 C8.33 19 8.66 19 9 19 C9 23.95 9 28.9 9 34 C6.03 34 3.06 34 0 34 C0 22.78 0 11.56 0 0 Z " fill="#4A5158" transform="translate(223,90)"/>
<path d="M0 0 C0.8971875 0.9590625 0.8971875 0.9590625 1.8125 1.9375 C3.97946877 4.41196767 3.97946877 4.41196767 7.9375 4.3125 C11.0288643 4.15648722 13.99125225 3.75218694 17 3 C17 4.32 17 5.64 17 7 C11.96652223 10.02008666 8.72319081 10.54506579 3 10 C-0.76762999 8.49294801 -1.78965539 7.36991639 -3.8125 3.8125 C-4.204375 2.884375 -4.59625 1.95625 -5 1 C-2.75 0.25 -2.75 0.25 0 0 Z " fill="#898062" transform="translate(117,114)"/>
<path d="M0 0 C0.33 0 0.66 0 1 0 C1 4.62 1 9.24 1 14 C1.66 14 2.32 14 3 14 C3 10.04 3 6.08 3 2 C4.32 2.33 5.64 2.66 7 3 C6.9592334 3.56509277 6.9184668 4.13018555 6.87646484 4.71240234 C6.69838179 7.26597672 6.5365024 9.8203257 6.375 12.375 C6.31054688 13.26445313 6.24609375 14.15390625 6.1796875 15.0703125 C6.128125 15.92109375 6.0765625 16.771875 6.0234375 17.6484375 C5.97106934 18.43395996 5.91870117 19.21948242 5.86474609 20.02880859 C5.79941634 22.23744537 5.79941634 22.23744537 8 24 C5.36 24 2.72 24 0 24 C0 16.08 0 8.16 0 0 Z " fill="#222C3C" transform="translate(138,100)"/>
<path d="M0 0 C0.33 0 0.66 0 1 0 C1.02920143 4.18748519 1.04686646 8.37494391 1.0625 12.5625 C1.07087891 13.74392578 1.07925781 14.92535156 1.08789062 16.14257812 C1.10392999 21.86863072 1.0510705 27.36394482 0 33 C-0.33 33 -0.66 33 -1 33 C-1 30.69 -1 28.38 -1 26 C-2.32 26 -3.64 26 -5 26 C-5 22.37 -5 18.74 -5 15 C-3.68 15 -2.36 15 -1 15 C-0.67 10.05 -0.34 5.1 0 0 Z " fill="#ECEDF1" transform="translate(222,91)"/>
<path d="M0 0 C0.66 0 1.32 0 2 0 C3.17426264 2.34852528 3.11508173 3.73774065 3.09765625 6.3515625 C3.09443359 7.20234375 3.09121094 8.053125 3.08789062 8.9296875 C3.07951172 9.81914063 3.07113281 10.70859375 3.0625 11.625 C3.05798828 12.5221875 3.05347656 13.419375 3.04882812 14.34375 C3.03702591 16.56256648 3.02056155 18.78125018 3 21 C1.02 21 -0.96 21 -3 21 C-3 17.04 -3 13.08 -3 9 C-2.01 9.33 -1.02 9.66 0 10 C0 6.7 0 3.4 0 0 Z " fill="#141A21" transform="translate(242,102)"/>
<path d="M0 0 C0.99 0 1.98 0 3 0 C3 1.32 3 2.64 3 4 C2.01 4.33 1.02 4.66 0 5 C-0.33 8.63 -0.66 12.26 -1 16 C-3.31 16.33 -5.62 16.66 -8 17 C-8 13.37 -8 9.74 -8 6 C-6.68 6 -5.36 6 -4 6 C-3.67 7.32 -3.34 8.64 -3 10 C-2.67 7.36 -2.34 4.72 -2 2 C-1.34 2 -0.68 2 0 2 C0 1.34 0 0.68 0 0 Z " fill="#1B232D" transform="translate(217,101)"/>
<path d="M0 0 C1.33417969 -0.00386719 1.33417969 -0.00386719 2.6953125 -0.0078125 C4.875 0.125 4.875 0.125 5.875 1.125 C5.94679964 2.64428038 5.95892007 4.16667482 5.9375 5.6875 C5.92847656 6.51378906 5.91945313 7.34007813 5.91015625 8.19140625 C5.89855469 8.82949219 5.88695313 9.46757813 5.875 10.125 C5.545 10.125 5.215 10.125 4.875 10.125 C4.875 8.145 4.875 6.165 4.875 4.125 C-1.065 4.62 -1.065 4.62 -7.125 5.125 C-7.125 5.785 -7.125 6.445 -7.125 7.125 C-8.115 7.455 -9.105 7.785 -10.125 8.125 C-10.8125 6.3125 -10.8125 6.3125 -11.125 4.125 C-8.19892046 0.17479262 -4.6342088 -0.01351081 0 0 Z " fill="#1E242D" transform="translate(37.125,102.875)"/>
<path d="M0 0 C1.67542976 0.28604898 3.34385343 0.61781233 5 1 C5 4.3 5 7.6 5 11 C3.34385343 11.38218767 1.67542976 11.71395102 0 12 C-1 11 -1 11 -1.1328125 8.75 C-1.13023437 7.8425 -1.12765625 6.935 -1.125 6 C-1.12757813 5.0925 -1.13015625 4.185 -1.1328125 3.25 C-1 1 -1 1 0 0 Z " fill="#F3F5F6" transform="translate(173,106)"/>
<path d="M0 0 C0.33 0 0.66 0 1 0 C1 2.64 1 5.28 1 8 C1.66 8.33 2.32 8.66 3 9 C1.85546875 10.984375 1.85546875 10.984375 0 13 C-2.69921875 13.390625 -2.69921875 13.390625 -5.6875 13.25 C-6.68136719 13.21390625 -7.67523438 13.1778125 -8.69921875 13.140625 C-9.83810547 13.07101563 -9.83810547 13.07101563 -11 13 C-11 12.01 -11 11.02 -11 10 C-9.741875 9.835 -8.48375 9.67 -7.1875 9.5 C-4.41577045 8.84263405 -3.33451746 8.53392037 -1.80078125 6.0859375 C-1.07007471 4.06847456 -0.4673471 2.09332555 0 0 Z " fill="#414248" transform="translate(18,111)"/>
<path d="M0 0 C0.33 0 0.66 0 1 0 C1.33 4.62 1.66 9.24 2 14 C5.63 14 9.26 14 13 14 C13 15.32 13 16.64 13 18 C9.40735548 19.19754817 6.77282526 19.33094958 3 19 C0.76171875 17.46484375 0.76171875 17.46484375 -1 15 C-1.12958424 12.23160951 -1.0727725 9.96026429 -0.75 7.25 C-0.68425781 6.55261719 -0.61851563 5.85523437 -0.55078125 5.13671875 C-0.38640673 3.42252737 -0.19577346 1.71088977 0 0 Z " fill="#6F6443" transform="translate(51,104)"/>
<path d="M0 0 C2.31 0 4.62 0 7 0 C7 0.99 7 1.98 7 3 C5.35 3 3.7 3 2 3 C2 9.27 2 15.54 2 22 C3.65 22 5.3 22 7 22 C7 22.33 7 22.66 7 23 C4.69 23 2.38 23 0 23 C0 15.41 0 7.82 0 0 Z " fill="#0F1317" transform="translate(189,100)"/>
<path d="M0 0 C2.25904557 0.03211913 4.37554829 0.19767682 6.59765625 0.59765625 C3.0414289 5.33929272 0.0072798 8.0932009 -5.40234375 10.59765625 C-6.39234375 10.26765625 -7.38234375 9.93765625 -8.40234375 9.59765625 C-4.05705227 1.00931544 -4.05705227 1.00931544 0 0 Z " fill="#EBECEE" transform="translate(52.40234375,78.40234375)"/>
<path d="M0 0 C0 1.65 0 3.3 0 5 C2.31 5 4.62 5 7 5 C7 5.99 7 6.98 7 8 C3 8 -1 8 -5 8 C-6.33981486 8.3062434 -7.67511887 8.63451555 -9 9 C-7.45665977 5.21180126 -4.44676575 0 0 0 Z " fill="#706745" transform="translate(55,94)"/>
<path d="M0 0 C3.0625 0.3125 3.0625 0.3125 4.9375 1.625 C6.0625 3.3125 6.0625 3.3125 6.0625 6.3125 C2.1025 6.3125 -1.8575 6.3125 -5.9375 6.3125 C-4.47848361 0.47643443 -4.47848361 0.47643443 0 0 Z " fill="#F2EFE6" transform="translate(122.9375,101.6875)"/>
<path d="M0 0 C0.33 0.66 0.66 1.32 1 2 C3.52733235 2.65555119 3.52733235 2.65555119 6 3 C6 2.34 6 1.68 6 1 C8.31 1 10.62 1 13 1 C12.01 2.485 12.01 2.485 11 4 C12.32 4.33 13.64 4.66 15 5 C15 5.66 15 6.32 15 7 C4.92704704 7.62521777 4.92704704 7.62521777 1.3125 5.1875 C0 3 0 3 0 0 Z " fill="#1F232A" transform="translate(165,117)"/>
<path d="M0 0 C0.76183594 -0.00515625 1.52367187 -0.0103125 2.30859375 -0.015625 C4.5625 0.25 4.5625 0.25 8.5625 2.25 C5.5925 2.25 2.6225 2.25 -0.4375 2.25 C-0.7675 3.57 -1.0975 4.89 -1.4375 6.25 C-3.375 9 -3.375 9 -5.4375 11.25 C-6.0975 11.25 -6.7575 11.25 -7.4375 11.25 C-7.7675 11.91 -8.0975 12.57 -8.4375 13.25 C-8.4375 8.88204596 -8.20987852 8.50341007 -5.4375 5.5 C-4.880625 4.88640625 -4.32375 4.2728125 -3.75 3.640625 C-3.1003125 2.95226562 -3.1003125 2.95226562 -2.4375 2.25 C-4.0875 2.25 -5.7375 2.25 -7.4375 2.25 C-4.32763793 0.17675862 -3.54641613 -0.02392186 0 0 Z " fill="#15191C" transform="translate(50.4375,75.75)"/>
<path d="M0 0 C0.66 0 1.32 0 2 0 C2 0.99 2 1.98 2 3 C5.96 3 9.92 3 14 3 C14.33 2.34 14.66 1.68 15 1 C15 1.99 15 2.98 15 4 C11.04 4 7.08 4 3 4 C3 4.66 3 5.32 3 6 C8.28 6 13.56 6 19 6 C19 6.33 19 6.66 19 7 C13.39 7 7.78 7 2 7 C1.67 7.66 1.34 8.32 1 9 C-1 6 -1 6 -0.625 2.8125 C-0.41875 1.884375 -0.2125 0.95625 0 0 Z " fill="#9F9679" transform="translate(115,105)"/>
<path d="M0 0 C0 0.66 0 1.32 0 2 C1.98 2 3.96 2 6 2 C6 2.99 6 3.98 6 5 C2.62182575 5.84454356 0.32534757 6.10844919 -3 5 C-3 5.66 -3 6.32 -3 7 C-3.66 7 -4.32 7 -5 7 C-5.33 9.97 -5.66 12.94 -6 16 C-6.33 16 -6.66 16 -7 16 C-7.31364748 10.04069781 -6.80867326 6.29326883 -4 1 C-2 0 -2 0 0 0 Z " fill="#292F37" transform="translate(171,100)"/>
<path d="M0 0 C1.32 0 2.64 0 4 0 C3.67 5.61 3.34 11.22 3 17 C2.01 17 1.02 17 0 17 C0 11.39 0 5.78 0 0 Z " fill="#6D5F3A" transform="translate(88,99)"/>
<path d="M0 0 C0.99 0 1.98 0 3 0 C4.76462683 3.08809695 5 4.23312136 5 8 C-0.28 8 -5.56 8 -11 8 C-11 7.34 -11 6.68 -11 6 C-7.04 6 -3.08 6 1 6 C0.67 4.02 0.34 2.04 0 0 Z " fill="#6F694C" transform="translate(129,103)"/>
<path d="M0 0 C-0.55151363 3.76867646 -2.0397255 5.34591504 -4.875 7.8125 C-5.57367188 8.43769531 -6.27234375 9.06289062 -6.9921875 9.70703125 C-7.65476562 10.13371094 -8.31734375 10.56039062 -9 11 C-12 10 -12 10 -14 8 C-12.68 8 -11.36 8 -10 8 C-9.79375 7.4225 -9.5875 6.845 -9.375 6.25 C-7.35521672 2.94490009 -4.02576079 0 0 0 Z " fill="#20242D" transform="translate(58,82)"/>
<path d="M0 0 C0.33 0 0.66 0 1 0 C1 4.62 1 9.24 1 14 C2.32 14 3.64 14 5 14 C5 10.04 5 6.08 5 2 C7 4 7 4 7.1953125 6.8203125 C7.16050781 8.45613281 7.16050781 8.45613281 7.125 10.125 C7.10695312 11.22070312 7.08890625 12.31640625 7.0703125 13.4453125 C7.04710937 14.28835937 7.02390625 15.13140625 7 16 C4.69 16 2.38 16 0 16 C0 10.72 0 5.44 0 0 Z " fill="#0F131B" transform="translate(153,107)"/>
<path d="M0 0 C0.33 0 0.66 0 1 0 C1 4.62 1 9.24 1 14 C1.66 14 2.32 14 3 14 C3 14.99 3 15.98 3 17 C3.66 17.33 4.32 17.66 5 18 C4.34 18 3.68 18 3 18 C3 19.32 3 20.64 3 22 C4.65 22.33 6.3 22.66 8 23 C8 23.33 8 23.66 8 24 C5.36 24 2.72 24 0 24 C0 16.08 0 8.16 0 0 Z " fill="#2F333B" transform="translate(138,100)"/>
<path d="M0 0 C2.64 0 5.28 0 8 0 C7.67 2.64 7.34 5.28 7 8 C6.01 8 5.02 8 4 8 C3.67 7.34 3.34 6.68 3 6 C2.01 6 1.02 6 0 6 C0 4.02 0 2.04 0 0 Z " fill="#191F29" transform="translate(209,92)"/>
<path d="M0 0 C0.33 0 0.66 0 1 0 C1 5.61 1 11.22 1 17 C-0.32 16.67 -1.64 16.34 -3 16 C-2.88628503 13.70774565 -2.75869036 11.41617612 -2.625 9.125 C-2.55539063 7.84882812 -2.48578125 6.57265625 -2.4140625 5.2578125 C-2 2 -2 2 0 0 Z " fill="#7B6F41" transform="translate(71,105)"/>
<path d="M0 0 C2.31 0 4.62 0 7 0 C0.4366454 7.98541477 0.4366454 7.98541477 -3 10 C-3.99 10 -4.98 10 -6 10 C-6 9.34 -6 8.68 -6 8 C-4.68 7.67 -3.36 7.34 -2 7 C-1.855625 6.401875 -1.71125 5.80375 -1.5625 5.1875 C-1.1127561 3.43849596 -0.57107659 1.71322977 0 0 Z " fill="#E0E4E7" transform="translate(41,79)"/>
<path d="M0 0 C0.928125 0.0825 1.85625 0.165 2.8125 0.25 C2.8125 0.91 2.8125 1.57 2.8125 2.25 C1.1625 2.58 -0.4875 2.91 -2.1875 3.25 C-2.5175 4.57 -2.8475 5.89 -3.1875 7.25 C-3.8475 7.25 -4.5075 7.25 -5.1875 7.25 C-5.5175 12.53 -5.8475 17.81 -6.1875 23.25 C-6.5175 23.25 -6.8475 23.25 -7.1875 23.25 C-7.40987877 20.83388467 -7.61582339 18.4182283 -7.8125 16 C-7.90917969 14.97712891 -7.90917969 14.97712891 -8.0078125 13.93359375 C-8.3057714 10.09737296 -8.34525158 7.49427897 -6.1875 4.25 C-5.775 3.5075 -5.3625 2.765 -4.9375 2 C-3.1875 0.25 -3.1875 0.25 0 0 Z " fill="#1D242B" transform="translate(237.1875,99.75)"/>
<path d="M0 0 C0.33 0 0.66 0 1 0 C1 3.63 1 7.26 1 11 C2.32 11 3.64 11 5 11 C5 13.31 5 15.62 5 18 C1.7 18 -1.6 18 -5 18 C-5.33 17.34 -5.66 16.68 -6 16 C-3.36 16 -0.72 16 2 16 C1.34 15.01 0.68 14.02 0 13 C-0.1953125 9.86328125 -0.1953125 9.86328125 -0.125 6.3125 C-0.10695312 5.13300781 -0.08890625 3.95351562 -0.0703125 2.73828125 C-0.04710937 1.83464844 -0.02390625 0.93101563 0 0 Z " fill="#373D48" transform="translate(216,106)"/>
<path d="M0 0 C0 1.32 0 2.64 0 4 C-3.80211723 5.78923164 -6.79582458 6.4671306 -11 6 C-11.66 5.01 -12.32 4.02 -13 3 C-9.97265625 2.26757812 -9.97265625 2.26757812 -6.9453125 1.53515625 C-1.3649635 0 -1.3649635 0 0 0 Z " fill="#756F51" transform="translate(134,117)"/>
<path d="M0 0 C2.31 0 4.62 0 7 0 C8.0625 1.875 8.0625 1.875 9 4 C8.67 4.66 8.34 5.32 8 6 C7.01 6 6.02 6 5 6 C5 5.34 5 4.68 5 4 C3.02 4 1.04 4 -1 4 C-0.67 2.68 -0.34 1.36 0 0 Z " fill="#766F52" transform="translate(76,98)"/>
<path d="M0 0 C0.33 0.99 0.66 1.98 1 3 C0.175 3.391875 -0.65 3.78375 -1.5 4.1875 C-2.7375 5.0846875 -2.7375 5.0846875 -4 6 C-4.41780879 8.62694422 -4.41780879 8.62694422 -4 11 C-5.66666667 11 -7.33333333 11 -9 11 C-8.62403791 8.21788056 -8.32681541 6.4120716 -6.5625 4.1875 C-5 3 -5 3 -3 3 C-3 2.34 -3 1.68 -3 1 C-2.01 0.67 -1.02 0.34 0 0 Z " fill="#2A2F37" transform="translate(31,101)"/>
<path d="M0 0 C2.31 0 4.62 0 7 0 C7 0.66 7 1.32 7 2 C5.35 2 3.7 2 2 2 C2.185625 3.051875 2.37125 4.10375 2.5625 5.1875 C2.95079331 8.57119882 2.88247485 10.76425888 2 14 C1.34 14 0.68 14 0 14 C0 9.38 0 4.76 0 0 Z " fill="#161D26" transform="translate(139,100)"/>
<path d="M0 0 C0.66 0 1.32 0 2 0 C2 1.32 2 2.64 2 4 C2.99 3.67 3.98 3.34 5 3 C4.40312566 6.34249629 3.26396123 8.46436342 1 11 C0.34 11 -0.32 11 -1 11 C-1.0270043 9.54176788 -1.04639787 8.08339325 -1.0625 6.625 C-1.07410156 5.81289062 -1.08570312 5.00078125 -1.09765625 4.1640625 C-1 2 -1 2 0 0 Z " fill="#181D27" transform="translate(20,108)"/>
<path d="M0 0 C0.33 0 0.66 0 1 0 C1.1546875 1.175625 1.1546875 1.175625 1.3125 2.375 C1.77595022 5.33045181 1.77595022 5.33045181 5 7 C4.67 8.65 4.34 10.3 4 12 C3.01 12.33 2.02 12.66 1 13 C1 12.01 1 11.02 1 10 C0.34 9.67 -0.32 9.34 -1 9 C-0.67 6.03 -0.34 3.06 0 0 Z " fill="#191E25" transform="translate(180,109)"/>
<path d="M0 0 C3 0 3 0 5 1 C5 3.31 5 5.62 5 8 C3.35 8 1.7 8 0 8 C0 5.36 0 2.72 0 0 Z " fill="#1F262D" transform="translate(191,114)"/>
<path d="M0 0 C0.33 0.99 0.66 1.98 1 3 C1.66 3.33 2.32 3.66 3 4 C3 4.99 3 5.98 3 7 C0.6875 9.25 0.6875 9.25 -2 11 C-2.99 10.67 -3.98 10.34 -5 10 C-4.67 9.01 -4.34 8.02 -4 7 C-3.34 7 -2.68 7 -2 7 C-1.855625 6.21625 -1.71125 5.4325 -1.5625 4.625 C-1 2 -1 2 0 0 Z " fill="#292E36" transform="translate(25,97)"/>
<path d="M0 0 C1.47906892 -0.02689216 2.95827483 -0.04634621 4.4375 -0.0625 C5.26121094 -0.07410156 6.08492187 -0.08570312 6.93359375 -0.09765625 C9 0 9 0 10 1 C10.07179964 2.51928038 10.08392007 4.04167482 10.0625 5.5625 C10.05347656 6.38878906 10.04445313 7.21507813 10.03515625 8.06640625 C10.02355469 8.70449219 10.01195312 9.34257813 10 10 C9.67 10 9.34 10 9 10 C9 8.02 9 6.04 9 4 C7.68 4 6.36 4 5 4 C5 3.34 5 2.68 5 2 C3.35 2 1.7 2 0 2 C0 1.34 0 0.68 0 0 Z " fill="#12171F" transform="translate(33,103)"/>
<path d="M0 0 C2.28062828 3.42094242 2.21925007 4.68187222 2.125 8.6875 C2.10695312 9.68136719 2.08890625 10.67523438 2.0703125 11.69921875 C2.03550781 12.83810547 2.03550781 12.83810547 2 14 C1.34 14 0.68 14 0 14 C0 14.66 0 15.32 0 16 C-0.99 15.67 -1.98 15.34 -3 15 C-2.34 14.34 -1.68 13.68 -1 13 C-0.75787127 11.01871492 -0.75787127 11.01871492 -0.875 8.875 C-0.91625 7.59625 -0.9575 6.3175 -1 5 C-2.32 4.34 -3.64 3.68 -5 3 C-4.34 3 -3.68 3 -3 3 C-3 2.34 -3 1.68 -3 1 C-2.01 0.67 -1.02 0.34 0 0 Z " fill="#383E48" transform="translate(171,104)"/>
<path d="M0 0 C0.99 0 1.98 0 3 0 C3 1.32 3 2.64 3 4 C2.01 4.33 1.02 4.66 0 5 C-0.33 8.63 -0.66 12.26 -1 16 C-1.33 16 -1.66 16 -2 16 C-2.19532961 14.2300132 -2.38098882 12.45895721 -2.5625 10.6875 C-2.66691406 9.70136719 -2.77132812 8.71523437 -2.87890625 7.69921875 C-3 5 -3 5 -2 2 C-1.34 2 -0.68 2 0 2 C0 1.34 0 0.68 0 0 Z " fill="#151B26" transform="translate(217,101)"/>
<path d="M0 0 C1.32 0 2.64 0 4 0 C4 2.64 4 5.28 4 8 C2.68 7.67 1.36 7.34 0 7 C0.66 7 1.32 7 2 7 C2 6.34 2 5.68 2 5 C1.01 4.67 0.02 4.34 -1 4 C-0.67 2.68 -0.34 1.36 0 0 Z " fill="#13161D" transform="translate(199,100)"/>
<path d="M0 0 C0 1.32 0 2.64 0 4 C-3.47325181 5.1577506 -6.36067448 5.06866652 -10 5 C-7.55319149 1.20744681 -7.55319149 1.20744681 -5 0.25 C-3 0 -3 0 0 0 Z " fill="#7E775C" transform="translate(64,118)"/>
<path d="M0 0 C0.66 0.33 1.32 0.66 2 1 C2 1.66 2 2.32 2 3 C2.61875 3.12375 3.2375 3.2475 3.875 3.375 C6 4 6 4 8 6 C5.69 6 3.38 6 1 6 C0.67 6.99 0.34 7.98 0 9 C-1.125 2.25 -1.125 2.25 0 0 Z " fill="#4A4E56" transform="translate(40,73)"/>
<path d="M0 0 C1.9375 0.6875 1.9375 0.6875 4 2 C4.75 4.625 4.75 4.625 5 7 C4.01 7.495 4.01 7.495 3 8 C3 7.34 3 6.68 3 6 C2.34 6 1.68 6 1 6 C0.34 4.35 -0.32 2.7 -1 1 C-0.67 0.67 -0.34 0.34 0 0 Z " fill="#1C252F" transform="translate(236,103)"/>
<path d="M0 0 C0.99 0 1.98 0 3 0 C3 0.66 3 1.32 3 2 C4.65 2.33 6.3 2.66 8 3 C6.35 4.65 4.7 6.3 3 8 C2.67 7.01 2.34 6.02 2 5 C2.33 4.34 2.66 3.68 3 3 C1.68 2.34 0.36 1.68 -1 1 C-0.67 0.67 -0.34 0.34 0 0 Z " fill="#313840" transform="translate(40,90)"/>
<path d="M0 0 C-0.66 1.65 -1.32 3.3 -2 5 C-2.66 5 -3.32 5 -4 5 C-4.33 7.97 -4.66 10.94 -5 14 C-5.33 14 -5.66 14 -6 14 C-6.29787234 5.21276596 -6.29787234 5.21276596 -4 1 C-2 0 -2 0 0 0 Z " fill="#0F121C" transform="translate(170,102)"/>
<path d="M0 0 C0.33 0 0.66 0 1 0 C1 2.64 1 5.28 1 8 C1.66 8.33 2.32 8.66 3 9 C2.34 9.66 1.68 10.32 1 11 C-0.32 10.01 -1.64 9.02 -3 8 C-2.01 5.36 -1.02 2.72 0 0 Z " fill="#363941" transform="translate(18,111)"/>
<path d="M0 0 C1.98 0 3.96 0 6 0 C5.67 1.98 5.34 3.96 5 6 C4.34 5.34 3.68 4.68 3 4 C2.01 4 1.02 4 0 4 C0 2.68 0 1.36 0 0 Z " fill="#202730" transform="translate(209,94)"/>
<path d="M0 0 C1.74271938 2.297221 3.39911152 4.59866729 5 7 C4.67 7.99 4.34 8.98 4 10 C4 9.34 4 8.68 4 8 C2.68 8 1.36 8 0 8 C0 5.36 0 2.72 0 0 Z " fill="#6E6640" transform="translate(112,107)"/>
<path d="M0 0 C0.99 0.99 1.98 1.98 3 3 C-1.75 6 -1.75 6 -4 6 C-4 5.34 -4 4.68 -4 4 C-4.99 4 -5.98 4 -7 4 C-7 3.34 -7 2.68 -7 2 C-4.69 2.33 -2.38 2.66 0 3 C0 2.01 0 1.02 0 0 Z " fill="#131922" transform="translate(36,83)"/>
<path d="M0 0 C0.66 0 1.32 0 2 0 C1.43628586 3.26954202 0.50037734 4.82575883 -2 7 C-2.99 6.67 -3.98 6.34 -5 6 C-4.34 5.67 -3.68 5.34 -3 5 C-2.30062468 3.68352881 -1.63270867 2.34977849 -1 1 C-0.67 0.67 -0.34 0.34 0 0 Z " fill="#111316" transform="translate(56,82)"/>
<path d="M0 0 C0.99 0 1.98 0 3 0 C3 0.66 3 1.32 3 2 C5.31 2.33 7.62 2.66 10 3 C10 3.33 10 3.66 10 4 C2.25 4.125 2.25 4.125 0 3 C0 2.01 0 1.02 0 0 Z " fill="#0E1219" transform="translate(210,119)"/>
<path d="M0 0 C1.98 0.495 1.98 0.495 4 1 C4 1.66 4 2.32 4 3 C3.34 3 2.68 3 2 3 C1.67 4.32 1.34 5.64 1 7 C0.34 6.34 -0.32 5.68 -1 5 C-0.625 2.375 -0.625 2.375 0 0 Z " fill="#7B7151" transform="translate(113,102)"/>
<path d="M0 0 C0 1.65 0 3.3 0 5 C-0.99 5.495 -0.99 5.495 -2 6 C-4.125 5.0625 -4.125 5.0625 -6 4 C-2.25 0 -2.25 0 0 0 Z " fill="#867863" transform="translate(55,94)"/>
<path d="M0 0 C0.33 0.99 0.66 1.98 1 3 C-1.67478244 4.6627026 -3.9995144 5.99983813 -7 7 C-6.34 5.68 -5.68 4.36 -5 3 C-4.34 3 -3.68 3 -3 3 C-3 2.34 -3 1.68 -3 1 C-2.01 0.67 -1.02 0.34 0 0 Z " fill="#89919A" transform="translate(31,101)"/>
<path d="M0 0 C0.33 0.66 0.66 1.32 1 2 C2.98 2 4.96 2 7 2 C7 2.33 7 2.66 7 3 C5.88625 3.309375 4.7725 3.61875 3.625 3.9375 C0.2054845 4.82326483 0.2054845 4.82326483 -2 6 C-2.33 4.35 -2.66 2.7 -3 1 C-2.01 1.33 -1.02 1.66 0 2 C0 1.34 0 0.68 0 0 Z " fill="#8F8C6A" transform="translate(74,100)"/>
<path d="M0 0 C0.33 0 0.66 0 1 0 C1 3.3 1 6.6 1 10 C-1.5654594 7.4345406 -1.54046087 5.52313332 -2 2 C-1.34 2 -0.68 2 0 2 C0 1.34 0 0.68 0 0 Z " fill="#1B1E24" transform="translate(170,107)"/>
<path d="M0 0 C3 2 3 2 3.6875 4.625 C3.790625 5.40875 3.89375 6.1925 4 7 C3.401875 6.505 2.80375 6.01 2.1875 5.5 C0.02970006 3.71723582 0.02970006 3.71723582 -3 4 C-3.33 3.34 -3.66 2.68 -4 2 C-2.68 2 -1.36 2 0 2 C0 1.34 0 0.68 0 0 Z " fill="#95886F" transform="translate(130,100)"/>
<path d="M0 0 C0.99 0 1.98 0 3 0 C3 1.65 3 3.3 3 5 C0.03 4.505 0.03 4.505 -3 4 C-2 2 -2 2 0 0 Z " fill="#4B5056" transform="translate(69,73)"/>
<path d="M0 0 C3.375 -0.125 3.375 -0.125 7 0 C9 2 9 2 9.125 4.625 C9.08375 5.40875 9.0425 6.1925 9 7 C8.67 5.68 8.34 4.36 8 3 C5.36 2.67 2.72 2.34 0 2 C0 1.34 0 0.68 0 0 Z " fill="#0C0E15" transform="translate(150,100)"/>
<path d="M0 0 C1.32 0 2.64 0 4 0 C4 1.65 4 3.3 4 5 C2.68 5 1.36 5 0 5 C0 3.35 0 1.7 0 0 Z " fill="#1F222C" transform="translate(206,100)"/>
<path d="M0 0 C0.33 0 0.66 0 1 0 C1.33 1.98 1.66 3.96 2 6 C2.99 6 3.98 6 5 6 C4.67 6.99 4.34 7.98 4 9 C2.68 8.67 1.36 8.34 0 8 C0 5.36 0 2.72 0 0 Z " fill="#4D535B" transform="translate(208,92)"/>
<path d="M0 0 C1.32 0 2.64 0 4 0 C4 2.97 4 5.94 4 9 C3.34 9 2.68 9 2 9 C2 6.69 2 4.38 2 2 C1.34 2 0.68 2 0 2 C0 1.34 0 0.68 0 0 Z " fill="#11131D" transform="translate(36,73)"/>
<path d="M0 0 C-0.33 0.66 -0.66 1.32 -1 2 C-2.98 2 -4.96 2 -7 2 C-7.33 1.34 -7.66 0.68 -8 0 C-4.71023192 -1.09658936 -3.28696233 -0.79953138 0 0 Z " fill="#969081" transform="translate(100,122)"/>
<path d="M0 0 C0.99 0.33 1.98 0.66 3 1 C2.01 2.32 1.02 3.64 0 5 C-0.99 4.67 -1.98 4.34 -3 4 C-3 3.34 -3 2.68 -3 2 C-2.01 1.34 -1.02 0.68 0 0 Z " fill="#131A24" transform="translate(38,88)"/>
</svg>
