<?xml version="1.0" encoding="UTF-8"?>
<svg version="1.1" xmlns="http://www.w3.org/2000/svg" width="200" height="200">
<path d="M0 0 C66 0 132 0 200 0 C200 66 200 132 200 200 C134 200 68 200 0 200 C0 134 0 68 0 0 Z " fill="#FDFEFE" transform="translate(0,0)"/>
<path d="M0 0 C8.1021987 -0.60464169 8.1021987 -0.60464169 12.0625 2.0625 C14.51596953 5.78227638 14.78154305 7.6233589 14 12 C12.0625 14.9375 12.0625 14.9375 9 17 C5.87335485 17.40782328 3.17557846 17.23698347 0 17 C0 11.39 0 5.78 0 0 Z " fill="#E6F7FB" transform="translate(102,88)"/>
<path d="M0 0 C2.23828125 1.1953125 2.23828125 1.1953125 4 3 C4.390625 5.48046875 4.390625 5.48046875 4.25 8.1875 C4.21390625 9.08855469 4.1778125 9.98960938 4.140625 10.91796875 C4.07101563 11.94857422 4.07101563 11.94857422 4 13 C-0.42780749 15.95187166 -0.42780749 15.95187166 -3 17 C-6.31011084 16.24770208 -8.161742 14.892172 -11 13 C-11.3984375 10.46875 -11.3984375 10.46875 -11.375 7.5 C-11.38273437 6.5203125 -11.39046875 5.540625 -11.3984375 4.53125 C-11.26695313 3.6959375 -11.13546875 2.860625 -11 2 C-7.3946611 -0.40355927 -4.20638975 -0.75085268 0 0 Z " fill="#09B2DE" transform="translate(33,94)"/>
<path d="M0 0 C0 3.3 0 6.6 0 10 C-2.35731463 11.57154308 -4.40292484 12.93411707 -7 14 C-9.6875 13.4375 -9.6875 13.4375 -12 12 C-12.763125 11.649375 -13.52625 11.29875 -14.3125 10.9375 C-16.79416039 8.08818622 -16.3040464 5.52275335 -16.140625 1.86328125 C-16.09421875 1.24839844 -16.0478125 0.63351563 -16 0 C-11.07034308 -2.70336025 -5.02517154 -2.51258577 0 0 Z " fill="#C3DC30" transform="translate(37,80)"/>
<path d="M0 0 C1.60875 -0.04125 3.2175 -0.0825 4.875 -0.125 C5.77992187 -0.14820312 6.68484375 -0.17140625 7.6171875 -0.1953125 C10 0 10 0 12 2 C12.04401732 4.33291811 12.03954234 6.66700175 12 9 C12.226875 9.9075 12.45375 10.815 12.6875 11.75 C13 14 13 14 11.84375 15.62890625 C9.38493509 17.45738937 7.84129911 17.30550516 4.8125 17.1875 C3.224375 17.125625 1.63625 17.06375 0 17 C0 11.39 0 5.78 0 0 Z " fill="#C8E142" transform="translate(71,88)"/>
<path d="M0 0 C2.15694151 1.0625775 4.24420887 2.14520527 6.3125 3.375 C9.49277893 4.11459975 10.07098676 3.69473742 12.8125 2.125 C13.864375 1.42375 14.91625 0.7225 16 0 C16.3504159 3.40033206 16.51438701 6.61140931 16 10 C13.3125 12.6875 13.3125 12.6875 10 14 C7.4375 13.9375 7.4375 13.9375 5 13 C4.071875 12.690625 3.14375 12.38125 2.1875 12.0625 C0 10 0 10 -0.3125 7.578125 C-0.3125 5.03369115 -0.21401169 2.53484953 0 0 Z " fill="#56CBEA" transform="translate(21,108)"/>
<path d="M0 0 C1.7143618 1.95927063 3.38405168 3.95880212 5 6 C4.03320312 6.35191406 4.03320312 6.35191406 3.046875 6.7109375 C0.7922092 7.81161073 0.7922092 7.81161073 0.390625 10.1640625 C0.32101563 11.38222656 0.32101563 11.38222656 0.25 12.625 C0.19328125 13.44226563 0.1365625 14.25953125 0.078125 15.1015625 C0.05234375 15.72804688 0.0265625 16.35453125 0 17 C-2.9719385 15.87548273 -5.33440687 14.77706209 -8 13 C-8.29296875 10.6171875 -8.29296875 10.6171875 -8.1875 7.875 C-8.16042969 6.96492188 -8.13335937 6.05484375 -8.10546875 5.1171875 C-8.07066406 4.41851562 -8.03585937 3.71984375 -8 3 C-2.25 0 -2.25 0 0 0 Z " fill="#5DCDEC" transform="translate(20,88)"/>
<path d="M0 0 C5.75 1.875 5.75 1.875 8 3 C8.35040695 6.40024521 8.530811 9.61342582 8 13 C3.61904762 17 3.61904762 17 0 17 C-0.03738281 16.38511719 -0.07476562 15.77023438 -0.11328125 15.13671875 C-0.17902344 14.32847656 -0.24476562 13.52023438 -0.3125 12.6875 C-0.37050781 11.88699219 -0.42851563 11.08648437 -0.48828125 10.26171875 C-1.08206694 7.63727666 -1.95780294 6.69179328 -4 5 C-2.68 4.34 -1.36 3.68 0 3 C0 2.01 0 1.02 0 0 Z " fill="#0EB4DF" transform="translate(38,88)"/>
<path d="M0 0 C1.9375 1.375 1.9375 1.375 3 3 C3 3.66 3 4.32 3 5 C2.484375 4.67 1.96875 4.34 1.4375 4 C-1.78026512 2.67989123 -4.5570528 2.86757895 -8 3 C-8.05399736 4.45792884 -8.09279177 5.91642712 -8.125 7.375 C-8.15980469 8.59316406 -8.15980469 8.59316406 -8.1953125 9.8359375 C-8.21370051 12.21342243 -8.21370051 12.21342243 -6 14 C-2.41656024 14.16677282 -2.41656024 14.16677282 1 14 C1 12.68 1 11.36 1 10 C-0.65 10 -2.3 10 -4 10 C-4 9.34 -4 8.68 -4 8 C-1.36 8 1.28 8 4 8 C4 10.31 4 12.62 4 15 C0.18538362 16.79511359 -2.78588709 17.53797186 -7 17 C-10.27065449 14.34811798 -11.81624022 12.37819831 -12.375 8.1875 C-12 5 -12 5 -9.9375 2.125 C-6.2906002 -0.51318284 -4.41055377 -0.65341537 0 0 Z " fill="#30C0E6" transform="translate(167,88)"/>
<path d="M0 0 C1.155 -0.020625 2.31 -0.04125 3.5 -0.0625 C6.31602729 -0.0122138 8.33268055 0.30847273 11 1 C11.66 0.67 12.32 0.34 13 0 C13 1.98 13 3.96 13 6 C7 6 1 6 -5 6 C-5.33 5.34 -5.66 4.68 -6 4 C-6.66 4 -7.32 4 -8 4 C-8 4.66 -8 5.32 -8 6 C-9.65 6 -11.3 6 -13 6 C-13 4.35 -13 2.7 -13 1 C-12.01 1.99 -11.02 2.98 -10 4 C-9.34 3.01 -8.68 2.02 -8 1 C-5.1512821 -0.04452989 -3.12305119 0 0 0 Z " fill="#B3B8B9" transform="translate(110,108)"/>
<path d="M0 0 C3.62351253 1.20783751 4.15215236 2.29653142 6.1875 5.4375 C6.71730469 6.24058594 7.24710938 7.04367188 7.79296875 7.87109375 C9 10 9 10 9 12 C9.66 12 10.32 12 11 12 C11 8.04 11 4.08 11 0 C11.66 0 12.32 0 13 0 C13 5.61 13 11.22 13 17 C9 16 9 16 7.296875 13.71484375 C6.53117188 12.34005859 6.53117188 12.34005859 5.75 10.9375 C5.22921875 10.01839844 4.7084375 9.09929687 4.171875 8.15234375 C3.78515625 7.44207031 3.3984375 6.73179688 3 6 C2.67 9.63 2.34 13.26 2 17 C1.34 17 0.68 17 0 17 C0 11.39 0 5.78 0 0 Z " fill="#18BAE3" transform="translate(174,88)"/>
<path d="M0 0 C8.1021987 -0.60464169 8.1021987 -0.60464169 12.0625 2.0625 C14.51596953 5.78227638 14.78154305 7.6233589 14 12 C12.0625 14.9375 12.0625 14.9375 9 17 C5.87335485 17.40782328 3.17557846 17.23698347 0 17 C0 11.39 0 5.78 0 0 Z M2 2 C2 6.29 2 10.58 2 15 C5.41656024 15.16677282 5.41656024 15.16677282 9 15 C11.18939909 13.21892751 11.18939909 13.21892751 11.265625 10.90625 C11.26046875 10.1121875 11.2553125 9.318125 11.25 8.5 C11.25515625 7.7059375 11.2603125 6.911875 11.265625 6.09375 C11.18939909 3.78107249 11.18939909 3.78107249 9 2 C5.41656024 1.83322718 5.41656024 1.83322718 2 2 Z " fill="#27BEE5" transform="translate(102,88)"/>
<path d="M0 0 C1.875 1.375 1.875 1.375 3 3 C3 3.66 3 4.32 3 5 C2.1646875 4.505 2.1646875 4.505 1.3125 4 C-1.30284522 2.8690399 -3.1806646 2.84337026 -6 3 C-6.33 3.99 -6.66 4.98 -7 6 C-5.906875 6.12375 -4.81375 6.2475 -3.6875 6.375 C0 7 0 7 3 9 C3.375 12 3.375 12 3 15 C-0.49124017 17.32749345 -1.89222251 17.50299316 -6 17 C-8.375 15.125 -8.375 15.125 -10 13 C-10 12.34 -10 11.68 -10 11 C-9.01 11 -8.02 11 -7 11 C-6.67 11.99 -6.34 12.98 -6 14 C-4.02 14 -2.04 14 0 14 C0 13.01 0 12.02 0 11 C-0.56589844 10.84144531 -1.13179687 10.68289062 -1.71484375 10.51953125 C-3.92756716 9.81565965 -5.94841871 9.09044132 -8 8 C-9.1875 5.5 -9.1875 5.5 -9 3 C-6.83453349 -0.6940311 -3.97364694 -0.49670587 0 0 Z " fill="#1DBBE4" transform="translate(143,88)"/>
<path d="M0 0 C3.96 0 7.92 0 12 0 C12 0.66 12 1.32 12 2 C8.7 2 5.4 2 2 2 C2 3.65 2 5.3 2 7 C4.97 7 7.94 7 11 7 C11 7.66 11 8.32 11 9 C8.03 9 5.06 9 2 9 C2 10.98 2 12.96 2 15 C5.3 15 8.6 15 12 15 C12 15.66 12 16.32 12 17 C8.04 17 4.08 17 0 17 C0 11.39 0 5.78 0 0 Z " fill="#17BAE4" transform="translate(119,88)"/>
<path d="M0 0 C0.35040695 3.40024521 0.530811 6.61342582 0 10 C-4.38095238 14 -4.38095238 14 -8 14 C-8.42571861 10.89833584 -8.60856783 8.08409797 -8 5 C-6.09953622 2.86563298 -3.05186553 0 0 0 Z " fill="#0AB3DF" transform="translate(37,108)"/>
<path d="M0 0 C0.66 0 1.32 0 2 0 C2 0.66 2 1.32 2 2 C3.98 2.66 5.96 3.32 8 4 C8 7.3 8 10.6 8 14 C1.125 10.125 1.125 10.125 0 9 C-0.07179964 7.48071962 -0.08392007 5.95832518 -0.0625 4.4375 C-0.05347656 3.61121094 -0.04445313 2.78492187 -0.03515625 1.93359375 C-0.02355469 1.29550781 -0.01195313 0.65742187 0 0 Z " fill="#DAE57B" transform="translate(21,80)"/>
<path d="M0 0 C3.3 0 6.6 0 10 0 C10 2.62113708 9.68707555 4.50935112 9 7 C6.36 7 3.72 7 1 7 C1 10.3 1 13.6 1 17 C0.67 17 0.34 17 0 17 C0 11.39 0 5.78 0 0 Z " fill="#D6E772" transform="translate(71,88)"/>
<path d="M0 0 C3.76854223 1.25618074 4.07958456 2.66014706 6 6 C6.66 6.33 7.32 6.66 8 7 C8.37125 5.824375 8.37125 5.824375 8.75 4.625 C10.15389099 1.67682892 11.00675737 1.0975223 14 0 C12.93191573 2.21832888 11.84556315 4.22238907 10.4375 6.25 C8.53366744 9.89211445 8.34607051 12.91636799 8 17 C7.01 17 6.02 17 5 17 C4.96132812 16.12988281 4.96132812 16.12988281 4.921875 15.2421875 C4.51016897 9.5718727 3.41321793 6.51425597 0 2 C0 1.34 0 0.68 0 0 Z " fill="#CDE353" transform="translate(86,88)"/>
<path d="M0 0 C3.89254042 -0.07485655 7.24107857 0.06026964 11 1 C11.99 0.67 12.98 0.34 14 0 C14 1.32 14 2.64 14 4 C13.34 4 12.68 4 12 4 C12 4.66 12 5.32 12 6 C11.4225 5.814375 10.845 5.62875 10.25 5.4375 C7.76855951 4.95499768 6.39011444 5.28296567 4 6 C1.84365964 6 0.07553648 5.5534764 -2 5 C-1.34 3.35 -0.68 1.7 0 0 Z " fill="#C0C4C5" transform="translate(53,108)"/>
<path d="M0 0 C4.75 1.875 4.75 1.875 7 3 C7 6.3 7 9.6 7 13 C3.535 11.02 3.535 11.02 0 9 C0 6.03 0 3.06 0 0 Z " fill="#56CBEA" transform="translate(22,98)"/>
<path d="M0 0 C0.99 0.33 1.98 0.66 3 1 C2.01 1.33 1.02 1.66 0 2 C0.33 2.66 0.66 3.32 1 4 C1.515625 3.34 2.03125 2.68 2.5625 2 C5.79995755 -0.65637543 7.92552281 -0.31342132 12 0 C12.38218767 1.65614657 12.71395102 3.32457024 13 5 C12 6 12 6 9.27734375 6.09765625 C7.62412109 6.08025391 7.62412109 6.08025391 5.9375 6.0625 C4.28041016 6.04896484 4.28041016 6.04896484 2.58984375 6.03515625 C1.73519531 6.02355469 0.88054687 6.01195313 0 6 C-0.38218767 4.34385343 -0.71395102 2.67542976 -1 1 C-0.67 0.67 -0.34 0.34 0 0 Z " fill="#C6C9CA" transform="translate(166,108)"/>
<path d="M0 0 C0.680625 -0.00515625 1.36125 -0.0103125 2.0625 -0.015625 C4 0.25 4 0.25 7 2.25 C7 2.91 7 3.57 7 4.25 C4.34606701 6.29731974 2.83161314 7.31084974 -0.5625 7.0625 C-2.8495712 6.30014293 -4.89451994 5.41971114 -7 4.25 C-7 3.59 -7 2.93 -7 2.25 C-4.00261059 0.25174039 -3.36652492 -0.02550398 0 0 Z " fill="#0D9ABF" transform="translate(29,93.75)"/>
<path d="M0 0 C2.66666667 0 5.33333333 0 8 0 C8.33 0.66 8.66 1.32 9 2 C9.66 1.34 10.32 0.68 11 0 C13 0 15 0 17 0 C17.33 1.32 17.66 2.64 18 4 C11.49616858 5.06185003 5.45310697 5.56438957 -1 4 C-0.67 2.68 -0.34 1.36 0 0 Z " fill="#A3A9AB" transform="translate(146,109)"/>
<path d="M0 0 C4.62 0 9.24 0 14 0 C14 0.66 14 1.32 14 2 C12.02 2 10.04 2 8 2 C8 6.95 8 11.9 8 17 C7.34 17 6.68 17 6 17 C6 12.05 6 7.1 6 2 C4.02 2 2.04 2 0 2 C0 1.34 0 0.68 0 0 Z " fill="#1CBCE4" transform="translate(56,88)"/>
<path d="M0 0 C1.32 0 2.64 0 4 0 C3.01 0.33 2.02 0.66 1 1 C2.84188612 3.05270463 2.84188612 3.05270463 5 4 C1.16472089 5.136379 -2.28540069 5.44089697 -6.1875 4.4375 C-8.08432232 3.77357897 -8.08432232 3.77357897 -10 5 C-10 3.35 -10 1.7 -10 0 C-6.26589925 -0.76379333 -3.64539462 -1.09361839 0 0 Z " fill="#B4B7B9" transform="translate(137,109)"/>
<path d="M0 0 C1.22589844 0.15275391 1.22589844 0.15275391 2.4765625 0.30859375 C3.41628906 0.43427734 3.41628906 0.43427734 4.375 0.5625 C4.045 1.8825 3.715 3.2025 3.375 4.5625 C-3.025 5.79326923 -3.025 5.79326923 -6.0625 4.625 C-6.578125 4.274375 -7.09375 3.92375 -7.625 3.5625 C-7.295 2.5725 -6.965 1.5825 -6.625 0.5625 C-4.10446405 -0.69776798 -2.7707902 -0.35624445 0 0 Z " fill="#ACC02B" transform="translate(30.625,78.4375)"/>
<path d="M0 0 C1.9375 1.375 1.9375 1.375 3 3 C3 3.66 3 4.32 3 5 C2.484375 4.67 1.96875 4.34 1.4375 4 C-1.78026512 2.67989123 -4.5570528 2.86757895 -8 3 C-8.66 5.97 -9.32 8.94 -10 12 C-10.66 11.67 -11.32 11.34 -12 11 C-12.46233492 7.0239197 -12.30954571 5.43148796 -9.9375 2.125 C-6.2906002 -0.51318284 -4.41055377 -0.65341537 0 0 Z " fill="#21BCE4" transform="translate(167,88)"/>
<path d="M0 0 C1.7143618 1.95927063 3.38405168 3.95880212 5 6 C2.375 7.25 2.375 7.25 -1 8 C-4.375 6.125 -4.375 6.125 -7 4 C-3.17391304 0 -3.17391304 0 0 0 Z " fill="#119CC0" transform="translate(20,88)"/>
<path d="M0 0 C0.66 0 1.32 0 2 0 C2 5.61 2 11.22 2 17 C0.68 16.67 -0.64 16.34 -2 16 C-2.33 14.35 -2.66 12.7 -3 11 C-2.01 11.33 -1.02 11.66 0 12 C0 8.04 0 4.08 0 0 Z " fill="#25BDE4" transform="translate(185,88)"/>
<path d="M0 0 C0 1.98 0 3.96 0 6 C-1.65 6 -3.3 6 -5 6 C-5 5.34 -5 4.68 -5 4 C-5.66 4 -6.32 4 -7 4 C-7 4.66 -7 5.32 -7 6 C-7.66 6 -8.32 6 -9 6 C-9 5.34 -9 4.68 -9 4 C-9.66 4 -10.32 4 -11 4 C-11 3.34 -11 2.68 -11 2 C-3.375 0 -3.375 0 0 0 Z " fill="#B3BFC3" transform="translate(96,108)"/>
<path d="M0 0 C0.99 0.33 1.98 0.66 3 1 C2.01 1.33 1.02 1.66 0 2 C0.33 2.66 0.66 3.32 1 4 C1.99 4 2.98 4 4 4 C3.67 4.66 3.34 5.32 3 6 C2.4225 5.814375 1.845 5.62875 1.25 5.4375 C-1.24369772 4.95261433 -2.59211213 5.30093578 -5 6 C-5.99 6 -6.98 6 -8 6 C-8 4.35 -8 2.7 -8 1 C-6.865625 1.020625 -5.73125 1.04125 -4.5625 1.0625 C-1.18424326 1.41577477 -1.18424326 1.41577477 0 0 Z " fill="#A8ADAF" transform="translate(80,108)"/>
<path d="M0 0 C1.98 0.66 3.96 1.32 6 2 C6 2.99 6 3.98 6 5 C2.1496895 7.56687367 0.41430237 6.83288724 -4 6 C-3.34 5.01 -2.68 4.02 -2 3 C-1.34 3 -0.68 3 0 3 C0 2.01 0 1.02 0 0 Z " fill="#0898BF" transform="translate(38,88)"/>
<path d="M0 0 C1.98 0 3.96 0 6 0 C6.66 1.32 7.32 2.64 8 4 C6 6 6 6 2.875 6.125 C1.451875 6.063125 1.451875 6.063125 0 6 C0 4.02 0 2.04 0 0 Z " fill="#F9FBEC" transform="translate(74,97)"/>
<path d="M0 0 C1.98 0 3.96 0 6 0 C6.5625 1.9375 6.5625 1.9375 7 4 C6 5 6 5 2.9375 5.0625 C1.4834375 5.0315625 1.4834375 5.0315625 0 5 C0 3.35 0 1.7 0 0 Z " fill="#F9FBEE" transform="translate(74,90)"/>
<path d="M0 0 C0.99 0.33 1.98 0.66 3 1 C2.01 1.33 1.02 1.66 0 2 C0.33 2.66 0.66 3.32 1 4 C1.61875 3.34 2.2375 2.68 2.875 2 C5 0 5 0 7 0 C7 1.98 7 3.96 7 6 C4.69 6 2.38 6 0 6 C-0.38218767 4.34385343 -0.71395102 2.67542976 -1 1 C-0.67 0.67 -0.34 0.34 0 0 Z " fill="#AEB3B4" transform="translate(166,108)"/>
<path d="M0 0 C-0.33 1.98 -0.66 3.96 -1 6 C-2.65 6 -4.3 6 -6 6 C-6 4.35 -6 2.7 -6 1 C-4 0 -4 0 0 0 Z " fill="#BEC2C3" transform="translate(187,108)"/>
<path d="M0 0 C1.125 3.75 1.125 3.75 0 6 C-3.11257569 6 -5.10765685 5.82638376 -8 5 C-7.38125 4.71125 -6.7625 4.4225 -6.125 4.125 C-3.86674235 3.06279958 -3.86674235 3.06279958 -2 1 C-1.34 0.67 -0.68 0.34 0 0 Z " fill="#AAAFB1" transform="translate(122,108)"/>
<path d="M0 0 C6.75 -0.125 6.75 -0.125 9 1 C8.67 1.99 8.34 2.98 8 4 C6.02 4.33 4.04 4.66 2 5 C2 3.68 2 2.36 2 1 C1.34 0.67 0.68 0.34 0 0 Z " fill="#CFD2D3" transform="translate(110,108)"/>
<path d="M0 0 C1.66666667 0 3.33333333 0 5 0 C6.625 2 6.625 2 8 4 C4.67465243 5.10844919 2.37817425 4.84454356 -1 4 C-0.67 2.68 -0.34 1.36 0 0 Z " fill="#ADB1B3" transform="translate(146,109)"/>
<path d="M0 0 C0 1.32 0 2.64 0 4 C-0.66 4 -1.32 4 -2 4 C-2 4.66 -2 5.32 -2 6 C-3.65 5.67 -5.3 5.34 -7 5 C-6.67 3.68 -6.34 2.36 -6 1 C-3.92446352 0.4465236 -2.15634036 0 0 0 Z " fill="#AAAFB1" transform="translate(67,108)"/>
<path d="M0 0 C0.99 0.33 1.98 0.66 3 1 C3 4.3 3 7.6 3 11 C2.01 10.67 1.02 10.34 0 10 C0 6.7 0 3.4 0 0 Z " fill="#7AD7F0" transform="translate(21,108)"/>
<path d="M0 0 C1.98 0 3.96 0 6 0 C6 2 6 2 4.6875 3.625 C3 5 3 5 0 5 C0 3.35 0 1.7 0 0 Z " fill="#B7BCBD" transform="translate(72,109)"/>
<path d="M0 0 C3 1 3 1 4.6875 4.0625 C5.120625 5.031875 5.55375 6.00125 6 7 C5.01 7 4.02 7 3 7 C0 2.77777778 0 2.77777778 0 0 Z " fill="#C8E144" transform="translate(86,88)"/>
<path d="M0 0 C0.33 0 0.66 0 1 0 C1.309375 1.11375 1.61875 2.2275 1.9375 3.375 C2.82326483 6.7945155 2.82326483 6.7945155 4 9 C3.01 9.33 2.02 9.66 1 10 C-0.80411967 7.24075815 -1.0127245 6.11027897 -0.625 2.75 C-0.41875 1.8425 -0.2125 0.935 0 0 Z " fill="#3FC4E8" transform="translate(157,94)"/>
<path d="M0 0 C2.16874252 0.50603992 3.99967627 0.99983813 6 2 C5.34 3.32 4.68 4.64 4 6 C2.62437146 4.71034824 1.29233607 3.37310707 0 2 C0 1.34 0 0.68 0 0 Z " fill="#2EC0E5" transform="translate(140,95)"/>
</svg>
