<?xml version="1.0" encoding="UTF-8"?>
<svg version="1.1" xmlns="http://www.w3.org/2000/svg" width="355" height="84">
<path d="M0 0 C1.875 1.8125 1.875 1.8125 3 4 C3 4.99 3 5.98 3 7 C4.08007324 6.81824219 5.16014648 6.63648438 6.27294922 6.44921875 C10.27202433 5.77668265 14.27145424 5.10627774 18.27099609 4.43652344 C20.00351594 4.14609165 21.73593841 3.85507834 23.46826172 3.56347656 C25.95515102 3.14496171 28.44238055 2.72852453 30.9296875 2.3125 C31.70682098 2.18125732 32.48395447 2.05001465 33.28463745 1.91479492 C38.77225659 1 38.77225659 1 41 1 C41 1.99 41 2.98 41 4 C42.32 2.68 43.64 1.36 45 0 C45.99 0.495 45.99 0.495 47 1 C47.75 4.375 47.75 4.375 48 8 C47.34 8.99 46.68 9.98 46 11 C42.7421875 11.29296875 42.7421875 11.29296875 38.875 11.1875 C36.95300781 11.14689453 36.95300781 11.14689453 34.9921875 11.10546875 C34.00476563 11.07066406 33.01734375 11.03585937 32 11 C31.74347656 11.71414063 31.48695312 12.42828125 31.22265625 13.1640625 C27.26744696 22.33812622 19.98566756 30.69978573 10.875 35.00390625 C8.68074518 36.00679589 8.68074518 36.00679589 6.75 38.875 C1.29699178 45.66243017 -8.02438604 47.50097429 -16 50 C-10.22021282 47.87194876 -5.11969037 47.21757383 1 48 C4.00197464 49.80118478 5.45166366 50.90332732 7 54 C8.35125948 62.58648427 5.2237192 68.68391495 1 76 C3.64 76.66 6.28 77.32 9 78 C9 79.65 9 81.3 9 83 C1.74 83 -5.52 83 -13 83 C-11.5863371 79.46584276 -10.17781654 76.42489226 -8.375 73.125 C-6.13969027 68.74615279 -5.47163632 65.86094588 -6 61 C-10.04192645 60.41055239 -13.51823142 60.17501533 -17.16796875 62.20703125 C-23.13435587 67.13478232 -27.2403417 73.64362373 -30.125 80.78515625 C-32 83 -32 83 -33.83081055 83.39355469 C-36.13628245 83.49369161 -38.38327524 83.43536678 -40.6875 83.3125 C-41.48478516 83.28994141 -42.28207031 83.26738281 -43.10351562 83.24414062 C-45.06981334 83.18526944 -47.03514491 83.09558755 -49 83 C-49 81.35 -49 79.7 -49 78 C-47.14375 77.505 -47.14375 77.505 -45.25 77 C-44.55390625 76.814375 -43.8578125 76.62875 -43.140625 76.4375 C-41 76 -41 76 -37 76 C-36.87923096 75.28755127 -36.75846191 74.57510254 -36.6340332 73.84106445 C-35.97609912 70.89290159 -35.02028245 68.32822467 -33.85546875 65.54296875 C-33.21061523 63.99706055 -33.21061523 63.99706055 -32.55273438 62.41992188 C-32.10220703 61.35322266 -31.65167969 60.28652344 -31.1875 59.1875 C-30.74857422 58.13240234 -30.30964844 57.07730469 -29.85742188 55.99023438 C-28.5960985 52.98217492 -27.30789543 49.98807376 -26 47 C-25.64212402 46.17193848 -25.28424805 45.34387695 -24.91552734 44.49072266 C-23.91015625 42.30078125 -23.91015625 42.30078125 -22 39 C-18.25 38 -18.25 38 -15 38 C-15 38.66 -15 39.32 -15 40 C-11.7 39.01 -8.4 38.02 -5 37 C-7.14497714 36.9261263 -7.14497714 36.9261263 -9.75 37.625 C-13.55928773 38.0645332 -15.54932201 37.65032425 -19 36 C-21.4375 33.8125 -21.4375 33.8125 -23 31 C-23.12463664 27.51017422 -22.99110086 25.20932491 -20.72265625 22.44140625 C-17.61640644 19.65131418 -16.24549715 19 -12 19 C-12.495 18.01 -12.495 18.01 -13 17 C-13.54575341 10.56010972 -12.71179508 7.3025644 -9 2 C-5.52957297 -0.31361802 -4.08165827 -0.51020728 0 0 Z M3 11 C-0.9208957 17.79676189 -0.9208957 17.79676189 -4 25 C2.28599115 23.28563878 6.45973357 18.33524265 9.9375 13.0625 C10.288125 12.381875 10.63875 11.70125 11 11 C8.36 11 5.72 11 3 11 Z M15 11 C13.576875 13.59875 13.576875 13.59875 12.125 16.25 C11.59132813 17.22453125 11.05765625 18.1990625 10.5078125 19.203125 C9.29580534 21.45130408 8.12452433 23.7072805 7 26 C16.10974187 24.25558134 22.52943061 18.23526919 28 11 C23.71 11 19.42 11 15 11 Z M-1 32 C-1.33 32.66 -1.66 33.32 -2 34 C-1.34 34 -0.68 34 0 34 C-0.33 33.34 -0.66 32.68 -1 32 Z M-19 51 C-19.33 51.66 -19.66 52.32 -20 53 C-19.01 52.67 -18.02 52.34 -17 52 C-17.66 51.67 -18.32 51.34 -19 51 Z " fill="#122B4A" transform="translate(49,0)"/>
<path d="M0 0 C4.29 0 8.58 0 13 0 C13.33 5.94 13.66 11.88 14 18 C14.99 17.01 15.98 16.02 17 15 C21.57267077 13.5454552 25.0493471 13.54227823 29.375 15.625 C33.05911744 18.95824911 34.8395485 21.39191941 35.34057617 26.41333008 C35.3170105 28.32214966 35.3170105 28.32214966 35.29296875 30.26953125 C35.28872391 30.95053391 35.28447906 31.63153656 35.28010559 32.33317566 C35.2634061 34.49336459 35.22577312 36.65259642 35.1875 38.8125 C35.17244174 40.28318958 35.15875534 41.75389389 35.14648438 43.22460938 C35.11353214 46.81671357 35.06181173 50.40826326 35 54 C30.71 54 26.42 54 22 54 C21.93941406 52.29070312 21.87882812 50.58140625 21.81640625 48.8203125 C21.73201121 46.58853256 21.64736269 44.3567622 21.5625 42.125 C21.52318359 40.99707031 21.48386719 39.86914062 21.44335938 38.70703125 C21.40146484 37.63066406 21.35957031 36.55429688 21.31640625 35.4453125 C21.27974854 34.45031738 21.24309082 33.45532227 21.20532227 32.43017578 C21.15040468 29.99220499 21.15040468 29.99220499 20 28 C18.35 28 16.7 28 15 28 C13.92375586 33.44452918 13.67807034 38.84582589 13.4375 44.375 C13.39431641 45.30183594 13.35113281 46.22867188 13.30664062 47.18359375 C13.20123904 49.45558351 13.10018257 51.72777413 13 54 C8.71 54 4.42 54 0 54 C0 36.18 0 18.36 0 0 Z " fill="#0B2645" transform="translate(320,29)"/>
<path d="M0 0 C4.23531504 3.15395801 5.63655184 5.99315306 7 11 C7.22705078 14.25146484 7.22705078 14.25146484 7.1953125 17.7109375 C7.18886719 18.95488281 7.18242187 20.19882813 7.17578125 21.48046875 C7.15902344 22.76566406 7.14226562 24.05085938 7.125 25.375 C7.11597656 26.68339844 7.10695312 27.99179688 7.09765625 29.33984375 C7.07415165 32.55997458 7.03828256 35.78001095 7 39 C2.38 39 -2.24 39 -7 39 C-7.495 26.625 -7.495 26.625 -8 14 C-9.32 14.33 -10.64 14.66 -12 15 C-12.33 22.92 -12.66 30.84 -13 39 C-18.28 39 -23.56 39 -29 39 C-29 26.13 -29 13.26 -29 0 C-24.38 0 -19.76 0 -15 0 C-14.67 0.66 -14.34 1.32 -14 2 C-13.360625 1.484375 -12.72125 0.96875 -12.0625 0.4375 C-7.8071487 -1.55990979 -4.47303366 -1.32323863 0 0 Z M-13 12 C-9 13 -9 13 -9 13 Z " fill="#0F2A47" transform="translate(222,44)"/>
<path d="M0 0 C3.21126933 1.77348207 6.04669852 3.82992371 8.8125 6.25 C9.1425 4.27 9.4725 2.29 9.8125 0.25 C10.1425 0.25 10.4725 0.25 10.8125 0.25 C10.90107863 3.5414911 10.9534104 6.83266805 11 10.125 C11.02513672 11.0428125 11.05027344 11.960625 11.07617188 12.90625 C11.15752207 20.607402 10.38038678 27.98808976 5.5 34.1875 C-0.65429293 38.91056201 -5.53713289 40.13754259 -13.1875 39.25 C-18.58808866 37.48442294 -22.32203153 34.10537713 -25.1875 29.25 C-27.62609658 22.26577383 -27.87067241 15.1884238 -25.1875 8.25 C-19.77827211 -0.86841273 -9.73615959 -4.63016612 0 0 Z M8.8125 8.25 C9.8125 10.25 9.8125 10.25 9.8125 10.25 Z M-12.1875 11.25 C-13.9021471 16.39394129 -14.09124625 21.40485141 -11.6875 26.3125 C-11.1925 26.951875 -10.6975 27.59125 -10.1875 28.25 C-7.73525306 28.14386164 -7.73525306 28.14386164 -5.1875 27.25 C-2.81098729 23.40231275 -2.87131452 19.67659665 -3.1875 15.25 C-3.79014182 12.40424056 -3.79014182 12.40424056 -5.1875 10.25 C-8.51408403 8.64036256 -8.98967502 9.11811668 -12.1875 11.25 Z " fill="#102948" transform="translate(257.1875,44.75)"/>
<path d="M0 0 C4.62 0 9.24 0 14 0 C14 4.29 14 8.58 14 13 C15.98 13 17.96 13 20 13 C20 16.3 20 19.6 20 23 C18.02 23 16.04 23 14 23 C14.495 30.92 14.495 30.92 15 39 C16.65 39.33 18.3 39.66 20 40 C20 43.96 20 47.92 20 52 C17.77191841 52.10853983 15.54230068 52.18583307 13.3125 52.25 C12.07113281 52.29640625 10.82976562 52.3428125 9.55078125 52.390625 C5.3979272 51.93376537 3.84130969 51.01526743 1 48 C-0.03239556 44.98260033 -0.11699818 42.1877022 -0.09765625 39.015625 C-0.09282227 37.61376953 -0.09282227 37.61376953 -0.08789062 36.18359375 C-0.07951172 35.21550781 -0.07113281 34.24742188 -0.0625 33.25 C-0.05798828 32.26644531 -0.05347656 31.28289063 -0.04882812 30.26953125 C-0.03706483 27.84629209 -0.02062684 25.42317727 0 23 C-1.32 23 -2.64 23 -4 23 C-4 19.7 -4 16.4 -4 13 C-2.68 13 -1.36 13 0 13 C0 8.71 0 4.42 0 0 Z " fill="#0D2745" transform="translate(298,31)"/>
<path d="M0 0 C0.70125 0.886875 1.4025 1.77375 2.125 2.6875 C2.7025 3.38875 3.28 4.09 3.875 4.8125 C5.125 7.6875 5.125 7.6875 6.125 18.6875 C-2.455 18.6875 -11.035 18.6875 -19.875 18.6875 C-17.56037696 25.20856675 -17.56037696 25.20856675 -12.875 28.6875 C-6.88051363 29.69647295 -2.09641329 28.82034797 3.125 25.6875 C3.785 25.6875 4.445 25.6875 5.125 25.6875 C5.125 28.3275 5.125 30.9675 5.125 33.6875 C-0.95543455 37.78518416 -6.70962356 39.55601462 -14.08203125 38.31640625 C-19.5198615 36.64242791 -22.88513235 33.46014588 -25.875 28.6875 C-29.22114713 22.21502563 -29.70550517 15.72634862 -27.875 8.6875 C-24.83807728 2.32624863 -21.30945273 -1.71116985 -14.625 -4.125 C-9.04078707 -4.50574179 -4.38509519 -3.52714178 0 0 Z M-17.875 6.6875 C-18.535 8.6675 -19.195 10.6475 -19.875 12.6875 C-13.935 12.6875 -7.995 12.6875 -1.875 12.6875 C-4.0060169 6.05099643 -4.0060169 6.05099643 -6.875 4.25 C-11.34371852 2.99317292 -14.07850049 4.26420244 -17.875 6.6875 Z " fill="#897852" transform="translate(182.875,44.3125)"/>
<path d="M0 0 C2.97 0 5.94 0 9 0 C8.99476318 0.78648926 8.98952637 1.57297852 8.98413086 2.38330078 C8.9632799 5.96385899 8.95031399 9.54440438 8.9375 13.125 C8.92912109 14.3625 8.92074219 15.6 8.91210938 16.875 C8.90888672 18.07382812 8.90566406 19.27265625 8.90234375 20.5078125 C8.89710693 21.60754395 8.89187012 22.70727539 8.88647461 23.84033203 C8.9991442 26.97618105 9.41373624 29.92059383 10 33 C11.41569064 33.08167446 12.83276805 33.13949698 14.25 33.1875 C15.03890625 33.22230469 15.8278125 33.25710937 16.640625 33.29296875 C19.70130922 32.9129169 20.82729087 32.19515447 23 30 C23.64597413 26.81176656 23.64597413 26.81176656 23.609375 23.14453125 C23.62591125 22.48289474 23.64244751 21.82125824 23.65948486 21.13957214 C23.70799288 19.03045399 23.72933927 16.92205677 23.75 14.8125 C23.77815777 13.38082305 23.80808495 11.94917972 23.83984375 10.51757812 C23.91374893 7.01187607 23.96330788 3.50631125 24 0 C26.97 0 29.94 0 33 0 C33 13.53 33 27.06 33 41 C30.03 41 27.06 41 24 41 C23.67 40.01 23.34 39.02 23 38 C22.50371094 38.30035156 22.00742188 38.60070312 21.49609375 38.91015625 C17.85158503 40.95025127 15.56718938 42 11.3125 42 C7.56619436 40.86903981 5.69067455 39.84015647 3 37 C0.46634135 32.00932159 -0.36612367 28.43560501 -0.29296875 22.75390625 C-0.28872391 22.09792953 -0.28447906 21.44195282 -0.28010559 20.76609802 C-0.26348779 18.69779089 -0.22587238 16.63050599 -0.1875 14.5625 C-0.17243111 13.14910275 -0.15874659 11.73569002 -0.14648438 10.32226562 C-0.11364104 6.88118565 -0.06198015 3.44069281 0 0 Z " fill="#8A7952" transform="translate(119,41)"/>
<path d="M0 0 C0 5.28 0 10.56 0 16 C-2.31 16.33 -4.62 16.66 -7 17 C-10.90243559 20.90243559 -10.27562583 27.050005 -10.5625 32.3125 C-10.60568359 33.05306641 -10.64886719 33.79363281 -10.69335938 34.55664062 C-10.79870432 36.37091464 -10.89978316 38.1854355 -11 40 C-15.29 40 -19.58 40 -24 40 C-24 27.13 -24 14.26 -24 1 C-20.04 1 -16.08 1 -12 1 C-11.67 2.32 -11.34 3.64 -11 5 C-10.38125 4.360625 -9.7625 3.72125 -9.125 3.0625 C-5.69194198 -0.26958573 -5.17899205 0 0 0 Z " fill="#0B2544" transform="translate(293,43)"/>
<path d="M0 0 C0.66 0.33 1.32 0.66 2 1 C1.67 3.31 1.34 5.62 1 8 C4.96 8 8.92 8 13 8 C13 10.64 13 13.28 13 16 C9.04 16 5.08 16 1 16 C1.0867681 19.60536404 1.1936268 23.20817495 1.3125 26.8125 C1.33505859 27.83666016 1.35761719 28.86082031 1.38085938 29.91601562 C1.41630859 30.89892578 1.45175781 31.88183594 1.48828125 32.89453125 C1.51446533 33.80050049 1.54064941 34.70646973 1.56762695 35.63989258 C2.07622172 38.41605611 2.70737643 39.38245494 5 41 C7.98385705 40.82231525 7.98385705 40.82231525 11 40 C12.175625 39.7215625 12.175625 39.7215625 13.375 39.4375 C13.91125 39.293125 14.4475 39.14875 15 39 C15 41.64 15 44.28 15 47 C9.51297922 49.40658806 5.98543745 50.69399173 0 49 C-3.48709352 46.75276195 -5.49009826 44.84507046 -7 41 C-7.22705078 38.25097656 -7.22705078 38.25097656 -7.1953125 35.140625 C-7.18564453 33.46806641 -7.18564453 33.46806641 -7.17578125 31.76171875 C-7.15902344 30.60285156 -7.14226563 29.44398437 -7.125 28.25 C-7.11597656 27.07566406 -7.10695313 25.90132812 -7.09765625 24.69140625 C-7.07410063 21.79406464 -7.04120652 18.89713559 -7 16 C-9.31 16 -11.62 16 -14 16 C-13.60167969 15.54109375 -13.20335937 15.0821875 -12.79296875 14.609375 C-9.39984291 10.68325173 -9.39984291 10.68325173 -6.25 6.5625 C-5.8375 6.046875 -5.425 5.53125 -5 5 C-4.34 5 -3.68 5 -3 5 C-3 4.34 -3 3.68 -3 3 C-2.34 3 -1.68 3 -1 3 C-0.67 2.01 -0.34 1.02 0 0 Z " fill="#887750" transform="translate(70,33)"/>
<path d="M0 0 C2.375 2.125 2.375 2.125 4 4 C1.70469799 9.67785235 1.70469799 9.67785235 -1.1875 11 C-5.05700076 11 -8.28153705 10.07142153 -12 9 C-14.6675286 12.8413654 -15.39708382 15.52160316 -15.51171875 20.17578125 C-15.54716797 21.33271484 -15.58261719 22.48964844 -15.61914062 23.68164062 C-15.65297852 25.47891602 -15.65297852 25.47891602 -15.6875 27.3125 C-15.72166016 28.53001953 -15.75582031 29.74753906 -15.79101562 31.00195312 C-15.87334817 34.00121014 -15.94254921 37.00018014 -16 40 C-18.64 40 -21.28 40 -24 40 C-25.63483632 36.73032737 -25.14170489 33.11966885 -25.1328125 29.52734375 C-25.13376923 28.68909561 -25.13472595 27.85084747 -25.13571167 26.98719788 C-25.1363926 25.21436488 -25.13454434 23.44152939 -25.13037109 21.66870117 C-25.12501493 18.94509323 -25.13032243 16.22164971 -25.13671875 13.49804688 C-25.13605808 11.77864547 -25.13477716 10.05924416 -25.1328125 8.33984375 C-25.13483673 7.52007553 -25.13686096 6.70030731 -25.13894653 5.85569763 C-25.11495507 0.11495507 -25.11495507 0.11495507 -24 -1 C-21.32941149 -1.14115161 -18.67567762 -1.04247107 -16 -1 C-15.67 0.98 -15.34 2.96 -15 5 C-14.2575 4.21625 -13.515 3.4325 -12.75 2.625 C-8.06184792 -1.85005426 -6.11267205 -2.80164135 0 0 Z M-10 7 C-10 7.33 -10 7.66 -10 8 C-8.35 8 -6.7 8 -5 8 C-5 7.67 -5 7.34 -5 7 C-6.65 7 -8.3 7 -10 7 Z " fill="#938360" transform="translate(113,42)"/>
<path d="M0 0 C2.375 2.125 2.375 2.125 4 4 C1.70469799 9.67785235 1.70469799 9.67785235 -1.1875 11 C-4.39630424 11 -7.06699607 10.37331438 -10.1328125 9.47265625 C-12.16369752 8.87730113 -12.16369752 8.87730113 -15 9 C-15.33 8.34 -15.66 7.68 -16 7 C-12.0358123 0.1389059 -7.78811042 -3.89405521 0 0 Z M-10 7 C-10 7.33 -10 7.66 -10 8 C-8.35 8 -6.7 8 -5 8 C-5 7.67 -5 7.34 -5 7 C-6.65 7 -8.3 7 -10 7 Z " fill="#877750" transform="translate(113,42)"/>
<path d="M0 0 C0.99 0.33 1.98 0.66 3 1 C4.25 7.625 4.25 7.625 2 11 C-1.2578125 11.29296875 -1.2578125 11.29296875 -5.125 11.1875 C-7.04699219 11.14689453 -7.04699219 11.14689453 -9.0078125 11.10546875 C-9.99523437 11.07066406 -10.98265625 11.03585937 -12 11 C-12 10.67 -12 10.34 -12 10 C-8.7 10 -5.4 10 -2 10 C-2.04125 8.72125 -2.0825 7.4425 -2.125 6.125 C-2.1953125 3.9453125 -2.1953125 3.9453125 -2 2 C-1.34 1.34 -0.68 0.68 0 0 Z " fill="#233754" transform="translate(93,0)"/>
<path d="M0 0 C3.3 0 6.6 0 10 0 C10 0.66 10 1.32 10 2 C10.99 1.67 11.98 1.34 13 1 C12.32902328 5.19360449 10.1441606 8.40334352 8 12 C7.34 11.01 6.68 10.02 6 9 C6.33 8.67 6.66 8.34 7 8 C6.34 7.34 5.68 6.68 5 6 C5.99 4.68 6.98 3.36 8 2 C4.58343976 1.83322718 4.58343976 1.83322718 1 2 C0.34 2.66 -0.32 3.32 -1 4 C-0.67 2.68 -0.34 1.36 0 0 Z " fill="#3A4B62" transform="translate(51,10)"/>
<path d="M0 0 C0 5.28 0 10.56 0 16 C-0.66 16 -1.32 16 -2 16 C-2 11.38 -2 6.76 -2 2 C-3.65 2.66 -5.3 3.32 -7 4 C-7.99 4.33 -8.98 4.66 -10 5 C-9 2 -9 2 -7.25 0.8125 C-5 0 -5 0 0 0 Z " fill="#2F4761" transform="translate(293,43)"/>
<path d="M0 0 C0.33 0 0.66 0 1 0 C1 8.58 1 17.16 1 26 C0.67 26 0.34 26 0 26 C-0.3965962 22.79395585 -0.76335479 19.58515933 -1.125 16.375 C-1.23714844 15.47136719 -1.34929687 14.56773438 -1.46484375 13.63671875 C-2.02234926 8.5448351 -2.15541826 4.80578442 0 0 Z " fill="#654531" transform="translate(117,46)"/>
<path d="M0 0 C0.33 0 0.66 0 1 0 C1 12.87 1 25.74 1 39 C0.67 39 0.34 39 0 39 C-1.40027356 12.0423526 -1.40027356 12.0423526 0 0 Z " fill="#383C62" transform="translate(191,44)"/>
<path d="M0 0 C2.45840605 -0.02691685 4.91651882 -0.04679802 7.375 -0.0625 C8.07367188 -0.07087891 8.77234375 -0.07925781 9.4921875 -0.08789062 C14.7734375 -0.11328125 14.7734375 -0.11328125 17 1 C15.8141763 4.37503669 14.72426311 6.64722731 12 9 C12 7.68 12 6.36 12 5 C11.34 4.67 10.68 4.34 10 4 C10.66 3.34 11.32 2.68 12 2 C8.04 1.67 4.08 1.34 0 1 C0 0.67 0 0.34 0 0 Z " fill="#2A3D56" transform="translate(64,10)"/>
<path d="M0 0 C0.33 0 0.66 0 1 0 C1 12.87 1 25.74 1 39 C0.34 38.67 -0.32 38.34 -1 38 C-0.67 25.46 -0.34 12.92 0 0 Z " fill="#D6D011" transform="translate(86,42)"/>
<path d="M0 0 C0 5.61 0 11.22 0 17 C-1.98 16.67 -3.96 16.34 -6 16 C-6 11.05 -6 6.1 -6 1 C-1 0 -1 0 0 0 Z M-5 2 C-5 6.29 -5 10.58 -5 15 C-3.68 15 -2.36 15 -1 15 C-1 10.71 -1 6.42 -1 2 C-2.32 2 -3.64 2 -5 2 Z " fill="#031E4A" transform="translate(319,54)"/>
<path d="M0 0 C3.63 0 7.26 0 11 0 C10.67 0.66 10.34 1.32 10 2 C7.36 2 4.72 2 2 2 C1.67 8.27 1.34 14.54 1 21 C0.67 21 0.34 21 0 21 C0 14.07 0 7.14 0 0 Z " fill="#795149" transform="translate(72,50)"/>
<path d="M0 0 C1.20217503 2.40435006 1.03897118 3.68381369 0.87890625 6.3515625 C0.83056641 7.20234375 0.78222656 8.053125 0.73242188 8.9296875 C0.64831055 10.26386719 0.64831055 10.26386719 0.5625 11.625 C0.51029297 12.5221875 0.45808594 13.419375 0.40429688 14.34375 C0.2744565 16.56284012 0.13948661 18.78149871 0 21 C-0.66 21.33 -1.32 21.66 -2 22 C-2.19109948 6.69080861 -2.19109948 6.69080861 -1 1 C-0.67 0.67 -0.34 0.34 0 0 Z " fill="#020519" transform="translate(285,61)"/>
<path d="M0 0 C1.65 0 3.3 0 5 0 C5 7.92 5 15.84 5 24 C4.67 24 4.34 24 4 24 C4 16.74 4 9.48 4 2 C2.68 2 1.36 2 0 2 C0 1.34 0 0.68 0 0 Z " fill="#7A7240" transform="translate(57,50)"/>
<path d="M0 0 C0.33 0 0.66 0 1 0 C1 4.95 1 9.9 1 15 C-1.97 14.505 -1.97 14.505 -5 14 C-5 10.04 -5 6.08 -5 2 C-4.67 2 -4.34 2 -4 2 C-4 5.63 -4 9.26 -4 13 C-2.68 13 -1.36 13 0 13 C0 8.71 0 4.42 0 0 Z " fill="#00184B" transform="translate(318,29)"/>
<path d="M0 0 C1.32 0 2.64 0 4 0 C5.01973129 3.05919388 5.11533602 5.12418025 5.09765625 8.32421875 C5.09282227 9.86625977 5.09282227 9.86625977 5.08789062 11.43945312 C5.07951172 12.51130859 5.07113281 13.58316406 5.0625 14.6875 C5.05798828 15.77095703 5.05347656 16.85441406 5.04882812 17.97070312 C5.03703743 20.64719085 5.02058063 23.32356777 5 26 C4.67 26 4.34 26 4 26 C3.67 17.75 3.34 9.5 3 1 C2.01 0.67 1.02 0.34 0 0 Z " fill="#010609" transform="translate(336,57)"/>
<path d="M0 0 C0.33 0 0.66 0 1 0 C1 9.9 1 19.8 1 30 C0.67 30 0.34 30 0 30 C0 20.1 0 10.2 0 0 Z " fill="#676433" transform="translate(141,41)"/>
<path d="M0 0 C1.08266248 3.24798743 1.03436186 5.35896827 0.87890625 8.76171875 C0.83056641 9.87998047 0.78222656 10.99824219 0.73242188 12.15039062 C0.67634766 13.31763672 0.62027344 14.48488281 0.5625 15.6875 C0.51029297 16.86634766 0.45808594 18.04519531 0.40429688 19.25976562 C0.27453806 22.17344094 0.13956868 25.08678078 0 28 C-0.33 28 -0.66 28 -1 28 C-1.02891949 23.70834738 -1.04677118 19.41671964 -1.0625 15.125 C-1.07087891 13.90167969 -1.07925781 12.67835937 -1.08789062 11.41796875 C-1.09111328 10.25136719 -1.09433594 9.08476563 -1.09765625 7.8828125 C-1.10289307 6.80402832 -1.10812988 5.72524414 -1.11352539 4.61376953 C-1 2 -1 2 0 0 Z " fill="#9A914B" transform="translate(99,54)"/>
<path d="M0 0 C8.25 0 16.5 0 25 0 C25 0.33 25 0.66 25 1 C12.625 1.495 12.625 1.495 0 2 C0 1.34 0 0.68 0 0 Z " fill="#7B7B3B" transform="translate(164,64)"/>
<path d="M0 0 C1.32 0.33 2.64 0.66 4 1 C5.77641602 6.55130005 5.53883587 11.76365102 3 17 C2.01 16.67 1.02 16.34 0 16 C0.99 15.67 1.98 15.34 3 15 C3.0272415 13.58344207 3.04650467 12.16672955 3.0625 10.75 C3.07410156 9.96109375 3.08570313 9.1721875 3.09765625 8.359375 C2.94426493 4.65344068 2.66315194 2.66315194 0 0 Z " fill="#14143D" transform="translate(248,55)"/>
<path d="M0 0 C0.33 0 0.66 0 1 0 C1 8.25 1 16.5 1 25 C0.67 25 0.34 25 0 25 C0 16.75 0 8.5 0 0 Z " fill="#00274C" transform="translate(213,58)"/>
<path d="M0 0 C0.99 0 1.98 0 3 0 C3 6.6 3 13.2 3 20 C2.67 20 2.34 20 2 20 C1.93941406 18.89140625 1.87882812 17.7828125 1.81640625 16.640625 C1.73197049 15.1770718 1.64732401 13.71353075 1.5625 12.25 C1.52318359 11.52039063 1.48386719 10.79078125 1.44335938 10.0390625 C1.23852902 6.5727027 0.9147998 3.34666974 0 0 Z " fill="#243E50" transform="translate(294,55)"/>
<path d="M0 0 C0.33 0 0.66 0 1 0 C1 8.25 1 16.5 1 25 C0.67 25 0.34 25 0 25 C0 16.75 0 8.5 0 0 Z " fill="#000000" transform="translate(128,42)"/>
<path d="M0 0 C0.66 0.33 1.32 0.66 2 1 C1.74438677 3.3431213 1.40729228 5.67843403 1 8 C0.01 8.495 0.01 8.495 -1 9 C-1 7.68 -1 6.36 -1 5 C-1.66 5 -2.32 5 -3 5 C-3 4.34 -3 3.68 -3 3 C-2.34 3 -1.68 3 -1 3 C-0.67 2.01 -0.34 1.02 0 0 Z M-5 5 C-4.01 5.495 -4.01 5.495 -3 6 C-3.99 6.495 -3.99 6.495 -5 7 C-5 6.34 -5 5.68 -5 5 Z " fill="#92805E" transform="translate(70,33)"/>
<path d="M0 0 C0.66 0.66 1.32 1.32 2 2 C4.65537372 2.56520003 7.29144713 2.73788198 10 3 C10 3.33 10 3.66 10 4 C5.71 4 1.42 4 -3 4 C-3.33 3.34 -3.66 2.68 -4 2 C-2.68 1.34 -1.36 0.68 0 0 Z " fill="#052242" transform="translate(67,5)"/>
<path d="M0 0 C-0.25561323 2.3431213 -0.59270772 4.67843403 -1 7 C-1.99 7.495 -1.99 7.495 -3 8 C-3.33 7.01 -3.66 6.02 -4 5 C-3.67 4.67 -3.34 4.34 -3 4 C-3.66 3.34 -4.32 2.68 -5 2 C-1.125 0 -1.125 0 0 0 Z " fill="#273D58" transform="translate(61,14)"/>
<path d="M0 0 C0 0.33 0 0.66 0 1 C-2.04071515 1.33910994 -4.08262621 1.67102704 -6.125 2 C-7.83042969 2.2784375 -7.83042969 2.2784375 -9.5703125 2.5625 C-12.76137602 2.96956049 -15.78817791 3.07809902 -19 3 C-19 2.67 -19 2.34 -19 2 C-12.6221448 0.82706111 -6.49678438 -0.29530838 0 0 Z " fill="#0D1A3F" transform="translate(87,0)"/>
<path d="M0 0 C0.33 0 0.66 0 1 0 C2.14819277 5.8685408 1.77313045 11.0885256 1 17 C0.67 17 0.34 17 0 17 C0 11.39 0 5.78 0 0 Z " fill="#BEBC22" transform="translate(153,64)"/>
<path d="M0 0 C0.33 0.66 0.66 1.32 1 2 C4.96 2 8.92 2 13 2 C13.33 1.34 13.66 0.68 14 0 C14 0.99 14 1.98 14 3 C9.05 3 4.1 3 -1 3 C-0.67 2.01 -0.34 1.02 0 0 Z " fill="#7F7943" transform="translate(165,53)"/>
<path d="M0 0 C0.33 0 0.66 0 1 0 C1.19672365 1.72814161 1.38196799 3.45759197 1.5625 5.1875 C1.66691406 6.15042969 1.77132812 7.11335938 1.87890625 8.10546875 C1.99758751 10.94233377 1.67765639 13.25423671 1 16 C0.67 16 0.34 16 0 16 C0 10.72 0 5.44 0 0 Z " fill="#C2BB2E" transform="translate(153,42)"/>
<path d="M0 0 C2.97 0 5.94 0 9 0 C9 2.31 9 4.62 9 7 C8.67 7 8.34 7 8 7 C8 5.02 8 3.04 8 1 C5.36 1 2.72 1 0 1 C0 0.67 0 0.34 0 0 Z " fill="#05286A" transform="translate(34,61)"/>
<path d="M0 0 C0.33 1.32 0.66 2.64 1 4 C4.3 4 7.6 4 11 4 C11 4.33 11 4.66 11 5 C7.37 5 3.74 5 0 5 C0 3.35 0 1.7 0 0 Z " fill="#8F7B6A" transform="translate(72,35)"/>
<path d="M0 0 C2.23551759 3.35327639 2.17283528 3.90743657 1.625 7.6875 C1.51414063 8.49574219 1.40328125 9.30398437 1.2890625 10.13671875 C1.19367188 10.75160156 1.09828125 11.36648437 1 12 C0.67 12 0.34 12 0 12 C0 8.04 0 4.08 0 0 Z " fill="#435259" transform="translate(230,71)"/>
<path d="M0 0 C0.33 0 0.66 0 1 0 C1 3.96 1 7.92 1 12 C0.67 12 0.34 12 0 12 C-0.19573608 10.56359829 -0.38127816 9.12580496 -0.5625 7.6875 C-0.66691406 6.88699219 -0.77132813 6.08648437 -0.87890625 5.26171875 C-1 3 -1 3 0 0 Z " fill="#040A59" transform="translate(267,71)"/>
<path d="M0 0 C4.62 0 9.24 0 14 0 C14 0.33 14 0.66 14 1 C9.38 1 4.76 1 0 1 C0 0.67 0 0.34 0 0 Z " fill="#003636" transform="translate(193,42)"/>
<path d="M0 0 C0.33 0 0.66 0 1 0 C1 3.96 1 7.92 1 12 C0.01 11.67 -0.98 11.34 -2 11 C-1.34 11 -0.68 11 0 11 C0 7.37 0 3.74 0 0 Z " fill="#000C55" transform="translate(296,31)"/>
<path d="M0 0 C4.62 0 9.24 0 14 0 C14 0.33 14 0.66 14 1 C9.38 1 4.76 1 0 1 C0 0.67 0 0.34 0 0 Z " fill="#002128" transform="translate(298,29)"/>
<path d="M0 0 C4.29 0 8.58 0 13 0 C13 0.33 13 0.66 13 1 C8.71 1 4.42 1 0 1 C0 0.67 0 0.34 0 0 Z " fill="#033448" transform="translate(82,12)"/>
<path d="M0 0 C4.455 0.99 4.455 0.99 9 2 C9 2.33 9 2.66 9 3 C6.36 3.33 3.72 3.66 1 4 C0.67 2.68 0.34 1.36 0 0 Z " fill="#121B2C" transform="translate(52,2)"/>
<path d="M0 0 C3.63 0.33 7.26 0.66 11 1 C11 1.33 11 1.66 11 2 C9.54207116 2.05399736 8.08357288 2.09279177 6.625 2.125 C5.81289062 2.14820312 5.00078125 2.17140625 4.1640625 2.1953125 C2 2 2 2 0 0 Z " fill="#757133" transform="translate(168,71)"/>
<path d="M0 0 C3.96 0 7.92 0 12 0 C12 0.33 12 0.66 12 1 C8.04 1 4.08 1 0 1 C0 0.67 0 0.34 0 0 Z " fill="#000558" transform="translate(269,42)"/>
<path d="M0 0 C3.96 0 7.92 0 12 0 C12 0.33 12 0.66 12 1 C8.04 1 4.08 1 0 1 C0 0.67 0 0.34 0 0 Z " fill="#000000" transform="translate(320,26)"/>
<path d="M0 0 C3.3 0 6.6 0 10 0 C8 2 8 2 6.0546875 2.1953125 C4.03645833 2.13020833 2.01822917 2.06510417 0 2 C0 1.34 0 0.68 0 0 Z " fill="#1D3A47" transform="translate(65,12)"/>
<path d="M0 0 C0 3 0 3 -1.5 4.6875 C-1.995 5.120625 -2.49 5.55375 -3 6 C-3.66 5.67 -4.32 5.34 -5 5 C-3.35 3.35 -1.7 1.7 0 0 Z " fill="#746C49" transform="translate(61,40)"/>
<path d="M0 0 C0.33 0 0.66 0 1 0 C1.33 2.97 1.66 5.94 2 9 C1.01 8.67 0.02 8.34 -1 8 C-0.67 5.36 -0.34 2.72 0 0 Z " fill="#1F2838" transform="translate(34,9)"/>
<path d="M0 0 C1.2077558 3.62326739 0.54311128 4.64146369 -1 8 C-1.93065133 5.39417629 -2.14917407 4.35801776 -1.0625 1.75 C-0.711875 1.1725 -0.36125 0.595 0 0 Z " fill="#001A1A" transform="translate(16,58)"/>
<path d="M0 0 C0.33 0 0.66 0 1 0 C1 3.3 1 6.6 1 10 C0.67 10 0.34 10 0 10 C0 6.7 0 3.4 0 0 Z " fill="#0E0E25" transform="translate(57,54)"/>
<path d="M0 0 C0.99 0.495 0.99 0.495 2 1 C2.625 4.0625 2.625 4.0625 3 7 C2.34 6.67 1.68 6.34 1 6 C0.375 2.9375 0.375 2.9375 0 0 Z " fill="#001531" transform="translate(228,49)"/>
<path d="M0 0 C1.670625 0.061875 1.670625 0.061875 3.375 0.125 C3.375 0.455 3.375 0.785 3.375 1.125 C-1.08 1.62 -1.08 1.62 -5.625 2.125 C-3.625 0.125 -3.625 0.125 0 0 Z " fill="#111F39" transform="translate(342.625,40.875)"/>
<path d="M0 0 C3.375 -0.125 3.375 -0.125 7 0 C7.66 0.66 8.32 1.32 9 2 C6.03 1.67 3.06 1.34 0 1 C0 0.67 0 0.34 0 0 Z " fill="#192B40" transform="translate(213,41)"/>
<path d="M0 0 C1.98 0 3.96 0 6 0 C5.34 0.66 4.68 1.32 4 2 C3.01 1.67 2.02 1.34 1 1 C0.67 1.66 0.34 2.32 0 3 C0 2.01 0 1.02 0 0 Z " fill="#162759" transform="translate(52,12)"/>
<path d="M0 0 C2.64 0 5.28 0 8 0 C8 0.33 8 0.66 8 1 C5.36 1 2.72 1 0 1 C0 0.67 0 0.34 0 0 Z " fill="#8F8F38" transform="translate(143,83)"/>
<path d="M0 0 C2.64 0 5.28 0 8 0 C8 0.33 8 0.66 8 1 C5.36 1 2.72 1 0 1 C0 0.67 0 0.34 0 0 Z " fill="#756A3A" transform="translate(89,83)"/>
<path d="M0 0 C0.33 0 0.66 0 1 0 C1 2.64 1 5.28 1 8 C0.67 8 0.34 8 0 8 C0 5.36 0 2.72 0 0 Z " fill="#8F8447" transform="translate(189,70)"/>
<path d="M0 0 C2.64 0 5.28 0 8 0 C8 0.33 8 0.66 8 1 C5.36 1 2.72 1 0 1 C0 0.67 0 0.34 0 0 Z " fill="#1C3F50" transform="translate(245,41)"/>
<path d="M0 0 C2.64 0 5.28 0 8 0 C8 0.33 8 0.66 8 1 C5.36 1 2.72 1 0 1 C0 0.67 0 0.34 0 0 Z " fill="#8F7070" transform="translate(143,39)"/>
<path d="M0 0 C2.64 0 5.28 0 8 0 C8 0.33 8 0.66 8 1 C5.36 1 2.72 1 0 1 C0 0.67 0 0.34 0 0 Z " fill="#8F8F70" transform="translate(119,39)"/>
<path d="M0 0 C2.64 0 5.28 0 8 0 C8 0.33 8 0.66 8 1 C5.36 1 2.72 1 0 1 C0 0.67 0 0.34 0 0 Z " fill="#707070" transform="translate(89,39)"/>
<path d="M0 0 C0.33 0.66 0.66 1.32 1 2 C-0.65 2.33 -2.3 2.66 -4 3 C-2.68 2.01 -1.36 1.02 0 0 Z " fill="#645228" transform="translate(141,80)"/>
<path d="M0 0 C0.33 0.66 0.66 1.32 1 2 C1.99 2.33 2.98 2.66 4 3 C2.35 3 0.7 3 -1 3 C-0.67 2.01 -0.34 1.02 0 0 Z " fill="#091C65" transform="translate(51,73)"/>
<path d="M0 0 C2.31 0 4.62 0 7 0 C7 0.33 7 0.66 7 1 C4.69 1 2.38 1 0 1 C0 0.67 0 0.34 0 0 Z " fill="#91614F" transform="translate(131,73)"/>
<path d="M0 0 C0.33 0 0.66 0 1 0 C1 2.31 1 4.62 1 7 C0.67 7 0.34 7 0 7 C0 4.69 0 2.38 0 0 Z " fill="#000000" transform="translate(245,60)"/>
<path d="M0 0 C0 0.66 0 1.32 0 2 C-1.65 2 -3.3 2 -5 2 C-2 0 -2 0 0 0 Z " fill="#061B3C" transform="translate(50,45)"/>
<path d="M0 0 C0.33 0 0.66 0 1 0 C1 2.31 1 4.62 1 7 C0.67 7 0.34 7 0 7 C0 4.69 0 2.38 0 0 Z " fill="#808049" transform="translate(84,42)"/>
<path d="M0 0 C2.31 0 4.62 0 7 0 C7 0.33 7 0.66 7 1 C4.69 1 2.38 1 0 1 C0 0.67 0 0.34 0 0 Z " fill="#121B2D" transform="translate(61,3)"/>
<path d="M0 0 C0.33 0.99 0.66 1.98 1 3 C0.34 3.66 -0.32 4.32 -1 5 C-0.67 3.35 -0.34 1.7 0 0 Z " fill="#081348" transform="translate(12,68)"/>
<path d="M0 0 C0.33 0.99 0.66 1.98 1 3 C0.34 3.66 -0.32 4.32 -1 5 C-0.67 3.35 -0.34 1.7 0 0 Z " fill="#071118" transform="translate(56,64)"/>
<path d="M0 0 C1.98 0 3.96 0 6 0 C6 0.33 6 0.66 6 1 C4.02 1 2.04 1 0 1 C0 0.67 0 0.34 0 0 Z " fill="#001D33" transform="translate(286,60)"/>
<path d="M0 0 C0.33 0.99 0.66 1.98 1 3 C0.34 3.66 -0.32 4.32 -1 5 C-0.67 3.35 -0.34 1.7 0 0 Z " fill="#001321" transform="translate(18,53)"/>
<path d="M0 0 C1.32 0.33 2.64 0.66 4 1 C3.67 1.66 3.34 2.32 3 3 C2.01 2.01 1.02 1.02 0 0 Z " fill="#84746D" transform="translate(174,50)"/>
<path d="M0 0 C0.99 1.485 0.99 1.485 2 3 C1.34 3.66 0.68 4.32 0 5 C0 3.35 0 1.7 0 0 Z " fill="#72614B" transform="translate(98,41)"/>
<path d="M0 0 C0.66 0.66 1.32 1.32 2 2 C0.68 2.33 -0.64 2.66 -2 3 C-1.34 2.01 -0.68 1.02 0 0 Z " fill="#3B4554" transform="translate(60,21)"/>
<path d="M0 0 C0.66 0.33 1.32 0.66 2 1 C0.02 1.99 0.02 1.99 -2 3 C-1.34 2.01 -0.68 1.02 0 0 Z " fill="#2A2A2A" transform="translate(70,15)"/>
<path d="M0 0 C1.98 0.99 1.98 0.99 4 2 C2.68 1.67 1.36 1.34 0 1 C0 0.67 0 0.34 0 0 Z " fill="#5D4C22" transform="translate(163,81)"/>
<path d="M0 0 C0.99 0.99 1.98 1.98 3 3 C2.01 2.67 1.02 2.34 0 2 C0 1.34 0 0.68 0 0 Z " fill="#996633" transform="translate(159,77)"/>
<path d="M0 0 C1.65 0 3.3 0 5 0 C5 0.33 5 0.66 5 1 C3.35 1 1.7 1 0 1 C0 0.67 0 0.34 0 0 Z " fill="#0A5B65" transform="translate(2,75)"/>
<path d="M0 0 C0.33 0.66 0.66 1.32 1 2 C-0.32 1.67 -1.64 1.34 -3 1 C-2.01 0.67 -1.02 0.34 0 0 Z " fill="#14145F" transform="translate(10,73)"/>
<path d="M0 0 C0.33 0.66 0.66 1.32 1 2 C0.34 2.66 -0.32 3.32 -1 4 C-0.67 2.68 -0.34 1.36 0 0 Z " fill="#001919" transform="translate(40,71)"/>
<path d="M0 0 C0.33 0 0.66 0 1 0 C1 1.65 1 3.3 1 5 C0.67 5 0.34 5 0 5 C0 3.35 0 1.7 0 0 Z " fill="#7A7A34" transform="translate(129,67)"/>
<path d="M0 0 C0.33 0 0.66 0 1 0 C1 1.65 1 3.3 1 5 C0.67 5 0.34 5 0 5 C0 3.35 0 1.7 0 0 Z " fill="#111919" transform="translate(335,58)"/>
<path d="M0 0 C0.33 0 0.66 0 1 0 C1 1.65 1 3.3 1 5 C0.67 5 0.34 5 0 5 C0 3.35 0 1.7 0 0 Z " fill="#6E5D44" transform="translate(189,52)"/>
<path d="M0 0 C0.33 0.66 0.66 1.32 1 2 C0.34 2.66 -0.32 3.32 -1 4 C-0.67 2.68 -0.34 1.36 0 0 Z " fill="#0C1D1D" transform="translate(21,47)"/>
<path d="M0 0 C0.99 0.33 1.98 0.66 3 1 C2.67 1.66 2.34 2.32 2 3 C1.34 2.01 0.68 1.02 0 0 Z " fill="#00000A" transform="translate(261,46)"/>
<path d="M0 0 C1.32 0.33 2.64 0.66 4 1 C3.01 1.495 3.01 1.495 2 2 C1.34 1.34 0.68 0.68 0 0 Z " fill="#0C1919" transform="translate(256,43)"/>
<path d="M0 0 C0.33 0.66 0.66 1.32 1 2 C0.34 2.66 -0.32 3.32 -1 4 C-0.67 2.68 -0.34 1.36 0 0 Z " fill="#0C1D1D" transform="translate(24,41)"/>
<path d="M0 0 C1.32 0.33 2.64 0.66 4 1 C3.01 1.495 3.01 1.495 2 2 C1.34 1.34 0.68 0.68 0 0 Z " fill="#77553B" transform="translate(178,40)"/>
<path d="M0 0 C0.66 0.33 1.32 0.66 2 1 C1.01 1.66 0.02 2.32 -1 3 C-0.67 2.01 -0.34 1.02 0 0 Z " fill="#19192C" transform="translate(50,19)"/>
<path d="M0 0 C4 1 4 1 4 1 Z " fill="#9B8E32" transform="translate(177,83)"/>
<path d="M0 0 C0.66 0.33 1.32 0.66 2 1 C1.01 1 0.02 1 -1 1 C-0.67 0.67 -0.34 0.34 0 0 Z " fill="#6A5525" transform="translate(185,80)"/>
<path d="M0 0 C1 4 1 4 1 4 Z " fill="#005252" transform="translate(59,78)"/>
<path d="M0 0 C0 3 0 3 0 3 Z " fill="#00104F" transform="translate(265,76)"/>
<path d="M0 0 C1 4 1 4 1 4 Z " fill="#002525" transform="translate(297,75)"/>
<path d="M0 0 C0.66 0.33 1.32 0.66 2 1 C1.01 1 0.02 1 -1 1 C-0.67 0.67 -0.34 0.34 0 0 Z " fill="#101A25" transform="translate(32,62)"/>
<path d="M0 0 C0 3 0 3 0 3 Z " fill="#5F2020" transform="translate(55,46)"/>
<path d="M0 0 C0 3 0 3 0 3 Z " fill="#8E5B52" transform="translate(117,42)"/>
<path d="M0 0 C4 1 4 1 4 1 Z " fill="#2C424E" transform="translate(288,41)"/>
<path d="M0 0 C4 1 4 1 4 1 Z " fill="#606040" transform="translate(174,39)"/>
<path d="M0 0 C4 1 4 1 4 1 Z " fill="#594422" transform="translate(166,39)"/>
<path d="M0 0 C4 1 4 1 4 1 Z " fill="#CA7535" transform="translate(170,38)"/>
<path d="M0 0 C0.66 0.33 1.32 0.66 2 1 C1.01 1 0.02 1 -1 1 C-0.67 0.67 -0.34 0.34 0 0 Z " fill="#15202A" transform="translate(60,35)"/>
<path d="M0 0 C1 4 1 4 1 4 Z " fill="#003595" transform="translate(24,27)"/>
<path d="M0 0 C0 3 0 3 0 3 Z " fill="#00104F" transform="translate(27,21)"/>
<path d="M0 0 C0.66 0.33 1.32 0.66 2 1 C1.01 1 0.02 1 -1 1 C-0.67 0.67 -0.34 0.34 0 0 Z " fill="#15205F" transform="translate(65,19)"/>
<path d="M0 0 C0.66 0.33 1.32 0.66 2 1 C1.01 1 0.02 1 -1 1 C-0.67 0.67 -0.34 0.34 0 0 Z " fill="#000010" transform="translate(29,19)"/>
<path d="M0 0 C0 3 0 3 0 3 Z " fill="#5F5F5F" transform="translate(54,15)"/>
<path d="M0 0 C1 4 1 4 1 4 Z " fill="#40407F" transform="translate(98,4)"/>
<path d="M0 0 C3 1 3 1 3 1 Z " fill="#886251" transform="translate(167,83)"/>
<path d="M0 0 C3 1 3 1 3 1 Z " fill="#474731" transform="translate(134,83)"/>
<path d="M0 0 C3 1 3 1 3 1 Z " fill="#887766" transform="translate(127,83)"/>
<path d="M0 0 C3 1 3 1 3 1 Z " fill="#777751" transform="translate(78,83)"/>
<path d="M0 0 C3 1 3 1 3 1 Z " fill="#85692D" transform="translate(70,83)"/>
<path d="M0 0 C3 1 3 1 3 1 Z " fill="#B8631C" transform="translate(181,82)"/>
<path d="M0 0 C3 1 3 1 3 1 Z " fill="#D47F6A" transform="translate(81,82)"/>
<path d="M0 0 C0.66 0.66 1.32 1.32 2 2 C1.34 2 0.68 2 0 2 C0 1.34 0 0.68 0 0 Z " fill="#634747" transform="translate(64,78)"/>
<path d="M0 0 C3 1 3 1 3 1 Z " fill="#000000" transform="translate(55,76)"/>
<path d="" fill="#634731" transform="translate(0,0)"/>
<path d="M0 0 C3 1 3 1 3 1 Z " fill="#474747" transform="translate(75,73)"/>
<path d="M0 0 C3 1 3 1 3 1 Z " fill="#4C4C26" transform="translate(78,72)"/>
<path d="M0 0 C3 1 3 1 3 1 Z " fill="#AAAA7F" transform="translate(179,71)"/>
<path d="" fill="#001515" transform="translate(0,0)"/>
<path d="" fill="#AAAA2A" transform="translate(0,0)"/>
<path d="M0 0 C0.99 0.495 0.99 0.495 2 1 C1.01 1.495 1.01 1.495 0 2 C0 1.34 0 0.68 0 0 Z " fill="#6A6A40" transform="translate(166,51)"/>
<path d="M0 0 C3 1 3 1 3 1 Z " fill="#B2A17B" transform="translate(168,50)"/>
<path d="M0 0 C3 1 3 1 3 1 Z " fill="#1C1C00" transform="translate(171,49)"/>
<path d="M0 0 C0.99 0.495 0.99 0.495 2 1 C1.01 1.495 1.01 1.495 0 2 C0 1.34 0 0.68 0 0 Z " fill="#000000" transform="translate(235,46)"/>
<path d="M0 0 C0.66 0 1.32 0 2 0 C1.67 0.66 1.34 1.32 1 2 C0.67 1.34 0.34 0.68 0 0 Z " fill="#000015" transform="translate(351,45)"/>
<path d="M0 0 C0.99 0.495 0.99 0.495 2 1 C1.01 1.495 1.01 1.495 0 2 C0 1.34 0 0.68 0 0 Z " fill="#000015" transform="translate(334,44)"/>
<path d="M0 0 C3 1 3 1 3 1 Z " fill="#001515" transform="translate(346,42)"/>
<path d="M0 0 C3 1 3 1 3 1 Z " fill="#002D2D" transform="translate(253,42)"/>
<path d="M0 0 C3 1 3 1 3 1 Z " fill="#002D2D" transform="translate(242,42)"/>
<path d="M0 0 C3 1 3 1 3 1 Z " fill="#9C4715" transform="translate(109,39)"/>
<path d="M0 0 C3 1 3 1 3 1 Z " fill="#D4D42A" transform="translate(106,38)"/>
<path d="" fill="#000066" transform="translate(0,0)"/>
<path d="" fill="#000015" transform="translate(0,0)"/>
<path d="M0 0 C2 1 2 1 2 1 Z " fill="#000000" transform="translate(318,83)"/>
<path d="M0 0 C2 1 2 1 2 1 Z " fill="#004040" transform="translate(257,83)"/>
<path d="M0 0 C2 1 2 1 2 1 Z " fill="#000099" transform="translate(239,83)"/>
<path d="M0 0 C2 1 2 1 2 1 Z " fill="#00007F" transform="translate(300,82)"/>
<path d="M0 0 C2 1 2 1 2 1 Z " fill="#808060" transform="translate(125,82)"/>
<path d="M0 0 C2 1 2 1 2 1 Z " fill="#6A6A2A" transform="translate(68,82)"/>
<path d="M0 0 C2 1 2 1 2 1 Z " fill="#004040" transform="translate(260,81)"/>
<path d="M0 0 C2 1 2 1 2 1 Z " fill="#000040" transform="translate(236,81)"/>
<path d="" fill="#002A4A" transform="translate(0,0)"/>
<path d="" fill="#00002A" transform="translate(0,0)"/>
<path d="" fill="#2A2A2A" transform="translate(0,0)"/>
<path d="" fill="#004060" transform="translate(0,0)"/>
<path d="" fill="#000040" transform="translate(0,0)"/>
<path d="" fill="#2A2A44" transform="translate(0,0)"/>
<path d="" fill="#BFBF20" transform="translate(0,0)"/>
<path d="M0 0 C2 1 2 1 2 1 Z " fill="#000040" transform="translate(0,76)"/>
<path d="" fill="#808020" transform="translate(0,0)"/>
<path d="" fill="#002020" transform="translate(0,0)"/>
<path d="" fill="#6A6A2A" transform="translate(0,0)"/>
<path d="" fill="#202020" transform="translate(0,0)"/>
<path d="" fill="#808020" transform="translate(0,0)"/>
<path d="M0 0 C2 1 2 1 2 1 Z " fill="#5D5D44" transform="translate(138,72)"/>
<path d="" fill="#808060" transform="translate(0,0)"/>
<path d="M0 0 C2 1 2 1 2 1 Z " fill="#775D44" transform="translate(81,71)"/>
<path d="" fill="#002A2A" transform="translate(0,0)"/>
<path d="M0 0 C2 1 2 1 2 1 Z " fill="#808060" transform="translate(182,70)"/>
<path d="M0 0 C2 1 2 1 2 1 Z " fill="#BFBF40" transform="translate(83,70)"/>
<path d="" fill="#9595AA" transform="translate(0,0)"/>
<path d="M0 0 C2 1 2 1 2 1 Z " fill="#404020" transform="translate(184,69)"/>
<path d="" fill="#000020" transform="translate(0,0)"/>
<path d="M0 0 C2 1 2 1 2 1 Z " fill="#6A6A4A" transform="translate(186,68)"/>
<path d="" fill="#002A2A" transform="translate(0,0)"/>
<path d="" fill="#55556A" transform="translate(0,0)"/>
<path d="M0 0 C2 1 2 1 2 1 Z " fill="#6A6A40" transform="translate(111,53)"/>
<path d="" fill="#40402A" transform="translate(0,0)"/>
<path d="" fill="#000040" transform="translate(0,0)"/>
<path d="" fill="#005959" transform="translate(0,0)"/>
<path d="" fill="#002060" transform="translate(0,0)"/>
<path d="" fill="#95954A" transform="translate(0,0)"/>
<path d="M0 0 C2 1 2 1 2 1 Z " fill="#A18844" transform="translate(101,51)"/>
<path d="" fill="#7F7F55" transform="translate(0,0)"/>
<path d="" fill="#2A2A2A" transform="translate(0,0)"/>
<path d="" fill="#956A4A" transform="translate(0,0)"/>
<path d="" fill="#000020" transform="translate(0,0)"/>
<path d="" fill="#BFBF20" transform="translate(0,0)"/>
<path d="" fill="#6A6A6A" transform="translate(0,0)"/>
<path d="M0 0 C2 1 2 1 2 1 Z " fill="#000099" transform="translate(50,47)"/>
<path d="" fill="#404040" transform="translate(0,0)"/>
<path d="M0 0 C2 1 2 1 2 1 Z " fill="#00002A" transform="translate(284,43)"/>
<path d="M0 0 C2 1 2 1 2 1 Z " fill="#002020" transform="translate(239,43)"/>
<path d="M0 0 C2 1 2 1 2 1 Z " fill="#000060" transform="translate(222,43)"/>
<path d="M0 0 C2 1 2 1 2 1 Z " fill="#004040" transform="translate(209,43)"/>
<path d="M0 0 C2 1 2 1 2 1 Z " fill="#004040" transform="translate(51,43)"/>
<path d="M0 0 C2 1 2 1 2 1 Z " fill="#002020" transform="translate(286,42)"/>
<path d="M0 0 C2 1 2 1 2 1 Z " fill="#2A2A2A" transform="translate(211,42)"/>
<path d="M0 0 C2 1 2 1 2 1 Z " fill="#BFBF20" transform="translate(162,41)"/>
<path d="M0 0 C2 1 2 1 2 1 Z " fill="#956A6A" transform="translate(164,40)"/>
<path d="M0 0 C2 1 2 1 2 1 Z " fill="#BFBF20" transform="translate(112,40)"/>
<path d="M0 0 C2 1 2 1 2 1 Z " fill="#AAAA2A" transform="translate(102,40)"/>
<path d="" fill="#002A2A" transform="translate(0,0)"/>
<path d="M0 0 C2 1 2 1 2 1 Z " fill="#808060" transform="translate(104,39)"/>
<path d="M0 0 C2 1 2 1 2 1 Z " fill="#00104A" transform="translate(29,37)"/>
<path d="M0 0 C2 1 2 1 2 1 Z " fill="#000019" transform="translate(62,34)"/>
<path d="" fill="#000040" transform="translate(0,0)"/>
<path d="" fill="#202020" transform="translate(0,0)"/>
<path d="M0 0 C2 1 2 1 2 1 Z " fill="#004040" transform="translate(66,31)"/>
<path d="" fill="#004040" transform="translate(0,0)"/>
<path d="M0 0 C2 1 2 1 2 1 Z " fill="#001919" transform="translate(62,21)"/>
<path d="" fill="#007F95" transform="translate(0,0)"/>
<path d="" fill="#00009F" transform="translate(0,0)"/>
<path d="" fill="#2A2A2A" transform="translate(0,0)"/>
<path d="M0 0 C2 1 2 1 2 1 Z " fill="#004040" transform="translate(31,18)"/>
<path d="" fill="#404040" transform="translate(0,0)"/>
<path d="" fill="#000099" transform="translate(0,0)"/>
<path d="" fill="#202020" transform="translate(0,0)"/>
<path d="" fill="#004060" transform="translate(0,0)"/>
<path d="" fill="#000060" transform="translate(0,0)"/>
<path d="" fill="#00406A" transform="translate(0,0)"/>
<path d="" fill="#004060" transform="translate(0,0)"/>
<path d="" fill="#000000" transform="translate(0,0)"/>
<path d="" fill="#000033" transform="translate(0,0)"/>
<path d="" fill="#000000" transform="translate(0,0)"/>
<path d="" fill="#000000" transform="translate(0,0)"/>
<path d="" fill="#000000" transform="translate(0,0)"/>
<path d="" fill="#000000" transform="translate(0,0)"/>
<path d="" fill="#000000" transform="translate(0,0)"/>
<path d="" fill="#000000" transform="translate(0,0)"/>
<path d="" fill="#000040" transform="translate(0,0)"/>
<path d="" fill="#004040" transform="translate(0,0)"/>
<path d="" fill="#000000" transform="translate(0,0)"/>
<path d="" fill="#000000" transform="translate(0,0)"/>
<path d="" fill="#000080" transform="translate(0,0)"/>
<path d="" fill="#808040" transform="translate(0,0)"/>
<path d="" fill="#808000" transform="translate(0,0)"/>
<path d="" fill="#808040" transform="translate(0,0)"/>
<path d="" fill="#000080" transform="translate(0,0)"/>
<path d="" fill="#000080" transform="translate(0,0)"/>
<path d="" fill="#808040" transform="translate(0,0)"/>
<path d="" fill="#808040" transform="translate(0,0)"/>
<path d="" fill="#555555" transform="translate(0,0)"/>
<path d="" fill="#000055" transform="translate(0,0)"/>
<path d="" fill="#555555" transform="translate(0,0)"/>
<path d="" fill="#008080" transform="translate(0,0)"/>
<path d="" fill="#808080" transform="translate(0,0)"/>
<path d="" fill="#808040" transform="translate(0,0)"/>
<path d="" fill="#FFFF00" transform="translate(0,0)"/>
<path d="" fill="#666633" transform="translate(0,0)"/>
<path d="" fill="#AA5555" transform="translate(0,0)"/>
<path d="" fill="#555555" transform="translate(0,0)"/>
<path d="" fill="#000000" transform="translate(0,0)"/>
<path d="" fill="#003333" transform="translate(0,0)"/>
<path d="" fill="#004040" transform="translate(0,0)"/>
<path d="" fill="#555500" transform="translate(0,0)"/>
<path d="" fill="#996633" transform="translate(0,0)"/>
<path d="" fill="#555555" transform="translate(0,0)"/>
<path d="" fill="#808055" transform="translate(0,0)"/>
<path d="" fill="#003333" transform="translate(0,0)"/>
<path d="" fill="#6D6D49" transform="translate(0,0)"/>
<path d="" fill="#000033" transform="translate(0,0)"/>
<path d="" fill="#404080" transform="translate(0,0)"/>
<path d="" fill="#805555" transform="translate(0,0)"/>
<path d="" fill="#004040" transform="translate(0,0)"/>
<path d="" fill="#FFFF00" transform="translate(0,0)"/>
<path d="" fill="#805555" transform="translate(0,0)"/>
<path d="" fill="#555555" transform="translate(0,0)"/>
<path d="" fill="#000033" transform="translate(0,0)"/>
<path d="" fill="#333366" transform="translate(0,0)"/>
<path d="" fill="#004040" transform="translate(0,0)"/>
<path d="" fill="#333333" transform="translate(0,0)"/>
<path d="" fill="#000000" transform="translate(0,0)"/>
<path d="" fill="#408080" transform="translate(0,0)"/>
<path d="" fill="#003333" transform="translate(0,0)"/>
<path d="" fill="#000040" transform="translate(0,0)"/>
<path d="" fill="#000055" transform="translate(0,0)"/>
<path d="" fill="#000040" transform="translate(0,0)"/>
<path d="" fill="#000040" transform="translate(0,0)"/>
<path d="" fill="#000033" transform="translate(0,0)"/>
<path d="" fill="#000000" transform="translate(0,0)"/>
<path d="" fill="#000040" transform="translate(0,0)"/>
<path d="" fill="#000000" transform="translate(0,0)"/>
<path d="" fill="#004040" transform="translate(0,0)"/>
<path d="" fill="#000055" transform="translate(0,0)"/>
<path d="" fill="#555555" transform="translate(0,0)"/>
<path d="" fill="#AA5555" transform="translate(0,0)"/>
<path d="" fill="#000024" transform="translate(0,0)"/>
<path d="" fill="#000033" transform="translate(0,0)"/>
<path d="" fill="#000040" transform="translate(0,0)"/>
<path d="" fill="#005555" transform="translate(0,0)"/>
<path d="" fill="#808040" transform="translate(0,0)"/>
<path d="" fill="#555555" transform="translate(0,0)"/>
<path d="" fill="#000000" transform="translate(0,0)"/>
<path d="" fill="#005555" transform="translate(0,0)"/>
<path d="" fill="#004040" transform="translate(0,0)"/>
<path d="" fill="#008080" transform="translate(0,0)"/>
<path d="" fill="#333366" transform="translate(0,0)"/>
<path d="" fill="#808040" transform="translate(0,0)"/>
<path d="" fill="#808040" transform="translate(0,0)"/>
<path d="" fill="#000033" transform="translate(0,0)"/>
<path d="" fill="#004040" transform="translate(0,0)"/>
<path d="" fill="#004040" transform="translate(0,0)"/>
<path d="" fill="#000000" transform="translate(0,0)"/>
<path d="" fill="#000000" transform="translate(0,0)"/>
<path d="" fill="#000000" transform="translate(0,0)"/>
<path d="" fill="#000000" transform="translate(0,0)"/>
<path d="" fill="#808040" transform="translate(0,0)"/>
<path d="" fill="#AAAA55" transform="translate(0,0)"/>
<path d="" fill="#AAAA55" transform="translate(0,0)"/>
<path d="" fill="#808080" transform="translate(0,0)"/>
<path d="" fill="#808040" transform="translate(0,0)"/>
<path d="" fill="#555555" transform="translate(0,0)"/>
<path d="" fill="#404040" transform="translate(0,0)"/>
<path d="" fill="#555555" transform="translate(0,0)"/>
<path d="" fill="#808080" transform="translate(0,0)"/>
<path d="" fill="#333333" transform="translate(0,0)"/>
<path d="" fill="#000000" transform="translate(0,0)"/>
<path d="" fill="#000000" transform="translate(0,0)"/>
<path d="" fill="#000000" transform="translate(0,0)"/>
<path d="" fill="#000000" transform="translate(0,0)"/>
<path d="" fill="#000033" transform="translate(0,0)"/>
<path d="" fill="#555555" transform="translate(0,0)"/>
<path d="" fill="#000033" transform="translate(0,0)"/>
<path d="" fill="#AAAA55" transform="translate(0,0)"/>
<path d="" fill="#555555" transform="translate(0,0)"/>
<path d="" fill="#000000" transform="translate(0,0)"/>
<path d="" fill="#AAAA55" transform="translate(0,0)"/>
<path d="" fill="#555555" transform="translate(0,0)"/>
<path d="" fill="#000000" transform="translate(0,0)"/>
<path d="" fill="#555555" transform="translate(0,0)"/>
<path d="" fill="#808080" transform="translate(0,0)"/>
<path d="" fill="#AAAA55" transform="translate(0,0)"/>
<path d="" fill="#008080" transform="translate(0,0)"/>
<path d="" fill="#996666" transform="translate(0,0)"/>
<path d="" fill="#808080" transform="translate(0,0)"/>
<path d="" fill="#404040" transform="translate(0,0)"/>
<path d="" fill="#808080" transform="translate(0,0)"/>
<path d="" fill="#002449" transform="translate(0,0)"/>
<path d="" fill="#000000" transform="translate(0,0)"/>
<path d="" fill="#000000" transform="translate(0,0)"/>
<path d="" fill="#000000" transform="translate(0,0)"/>
<path d="" fill="#404040" transform="translate(0,0)"/>
<path d="" fill="#404040" transform="translate(0,0)"/>
<path d="" fill="#404040" transform="translate(0,0)"/>
<path d="" fill="#002B2B" transform="translate(0,0)"/>
<path d="" fill="#404040" transform="translate(0,0)"/>
<path d="" fill="#404040" transform="translate(0,0)"/>
<path d="" fill="#555555" transform="translate(0,0)"/>
<path d="" fill="#000040" transform="translate(0,0)"/>
<path d="" fill="#333366" transform="translate(0,0)"/>
<path d="" fill="#004040" transform="translate(0,0)"/>
<path d="" fill="#004040" transform="translate(0,0)"/>
<path d="" fill="#000000" transform="translate(0,0)"/>
<path d="" fill="#004040" transform="translate(0,0)"/>
<path d="" fill="#404040" transform="translate(0,0)"/>
<path d="" fill="#404080" transform="translate(0,0)"/>
<path d="" fill="#000000" transform="translate(0,0)"/>
<path d="" fill="#003333" transform="translate(0,0)"/>
<path d="" fill="#555555" transform="translate(0,0)"/>
<path d="" fill="#000080" transform="translate(0,0)"/>
<path d="" fill="#000080" transform="translate(0,0)"/>
<path d="" fill="#005555" transform="translate(0,0)"/>
<path d="" fill="#004040" transform="translate(0,0)"/>
<path d="" fill="#000040" transform="translate(0,0)"/>
<path d="" fill="#003333" transform="translate(0,0)"/>
<path d="" fill="#000000" transform="translate(0,0)"/>
<path d="" fill="#000000" transform="translate(0,0)"/>
<path d="" fill="#000000" transform="translate(0,0)"/>
<path d="" fill="#000040" transform="translate(0,0)"/>
</svg>
