<?xml version="1.0" encoding="UTF-8"?>
<svg version="1.1" xmlns="http://www.w3.org/2000/svg" width="244" height="193">
<path d="M0 0 C80.52 0 161.04 0 244 0 C244 63.69 244 127.38 244 193 C163.48 193 82.96 193 0 193 C0 129.31 0 65.62 0 0 Z " fill="#FBFBFA" transform="translate(0,0)"/>
<path d="M0 0 C2.9375 2.1875 2.9375 2.1875 5 5 C5.12890625 7.67578125 5.12890625 7.67578125 5 10 C6.12792969 9.823479 7.25585938 9.64695801 8.41796875 9.46508789 C12.68117801 8.79989269 16.94583053 8.14436186 21.2109375 7.49145508 C23.04206139 7.20983002 24.87280666 6.92572981 26.703125 6.63891602 C38.14084987 4.84863616 49.42517278 3.46557164 61 3 C61.99 6.465 61.99 6.465 63 10 C63.33 9.67 63.66 9.34 64 9 C63.9690625 7.5459375 63.9690625 7.5459375 63.9375 6.0625 C64 3 64 3 66 1 C68.93453261 1.36681658 69.86437246 1.86437246 72 4 C72.56505618 10.21561798 72.56505618 10.21561798 70.7722168 12.7043457 C68.48028199 14.3799619 67.15183485 14.34685035 64.33203125 14.29296875 C63.43935547 14.28330078 62.54667969 14.27363281 61.62695312 14.26367188 C60.23379883 14.2259668 60.23379883 14.2259668 58.8125 14.1875 C57.40194336 14.16719727 57.40194336 14.16719727 55.96289062 14.14648438 C53.64134962 14.11113096 51.32096347 14.06178674 49 14 C48.75636719 14.86753906 48.51273437 15.73507813 48.26171875 16.62890625 C42.96043339 30.79302163 29.45617471 40.98115789 16.9375 48.4375 C13.7976822 50.33775045 11.28530188 52.53730977 8.625 55.0625 C2.48825693 60.64326464 -3.95512909 62.57989236 -11.9375 64.3125 C-22.05527912 66.73451662 -29.56146081 72.16524224 -35 81 C-34.360625 80.29875 -33.72125 79.5975 -33.0625 78.875 C-25.16296992 71.04222651 -16.40282685 66.92712014 -5.3125 66.625 C-0.49620469 66.75410815 3.02778946 67.04630498 7 70 C10.49496686 73.68877279 11.58753855 76.04272974 11.625 81.125 C11.29613604 91.51945011 5.33060824 99.16531108 -1 107 C-0.00097656 107.06058594 0.99804688 107.12117188 2.02734375 107.18359375 C3.96287109 107.30927734 3.96287109 107.30927734 5.9375 107.4375 C7.86916016 107.55931641 7.86916016 107.55931641 9.83984375 107.68359375 C13 108 13 108 14 109 C14 110.65 14 112.3 14 114 C3.77 114 -6.46 114 -17 114 C-14.77093527 109.54187054 -12.23068067 105.33557687 -9.65625 101.0703125 C-7.28146944 96.66800703 -5.70119656 92.6652998 -5.875 87.625 C-5.91625 86.42875 -5.9575 85.2325 -6 84 C-10.22514402 81.88742799 -15.41196459 82.50305914 -20 83 C-23.16263083 84.15495392 -25.45228744 85.82237621 -28 88 C-28.96486328 88.78503906 -28.96486328 88.78503906 -29.94921875 89.5859375 C-36.86679258 95.8103949 -43.0502551 105.15076529 -46 114 C-54.58 114 -63.16 114 -72 114 C-72 112.02 -72 110.04 -72 108 C-70.95199219 107.86722656 -69.90398437 107.73445313 -68.82421875 107.59765625 C-67.44529222 107.41942765 -66.06638707 107.24103359 -64.6875 107.0625 C-63.99720703 106.97548828 -63.30691406 106.88847656 -62.59570312 106.79882812 C-59.59857712 106.40789865 -56.87549881 105.9584996 -54 105 C-52.72668067 102.1772198 -51.62299782 99.40285068 -50.5625 96.5 C-47.32361423 88.02174018 -43.68268715 79.80412376 -39.75 71.625 C-38.98925171 70.03075195 -38.98925171 70.03075195 -38.21313477 68.40429688 C-36.84604271 65.58208801 -35.43268048 62.78931577 -34 60 C-33.53231201 58.98353394 -33.53231201 58.98353394 -33.05517578 57.9465332 C-32.1796875 56.27734375 -32.1796875 56.27734375 -30 54 C-26.8732008 53.67749124 -24.45057792 53.66710912 -21.375 53.9375 C-13.82344875 54.26435143 -8.15731811 53.8775618 -2 49 C0.27580058 46.77026826 2.08648143 44.56814335 4 42 C3.38125 42.556875 2.7625 43.11375 2.125 43.6875 C-6.21839063 49.86160906 -13.49673393 52.52444208 -24 51 C-27.3026163 49.78389643 -29.23634974 48.00662989 -31.375 45.1875 C-32.69201552 40.57794568 -32.54402741 37.15605825 -30.5 32.8125 C-27.45121298 29.3826146 -24.35058383 27.44452979 -20 26 C-18.68 26 -17.36 26 -16 26 C-16.495 25.01 -16.495 25.01 -17 24 C-18.67852569 18.96442293 -18.9770105 15.20235813 -16.83203125 10.3671875 C-12.75403044 3.1756488 -8.88029044 -1.26861292 0 0 Z " fill="#080808" transform="translate(83,11)"/>
<path d="M0 0 C16.17 0 32.34 0 49 0 C49 12.87 49 25.74 49 39 C32.83 39 16.66 39 0 39 C0 26.13 0 13.26 0 0 Z " fill="#AE870E" transform="translate(184,128)"/>
<path d="M0 0 C4.62 0 9.24 0 14 0 C14.33 5.61 14.66 11.22 15 17 C16.65 16.01 18.3 15.02 20 14 C26.50789096 13.17360115 26.50789096 13.17360115 29.77734375 14.984375 C32.69759142 17.29772524 34.68789682 19.54184896 36 23 C36.22705078 26.02441406 36.22705078 26.02441406 36.1953125 29.515625 C36.18886719 30.76601562 36.18242187 32.01640625 36.17578125 33.3046875 C36.15902344 34.60664063 36.14226562 35.90859375 36.125 37.25 C36.11597656 38.56742188 36.10695312 39.88484375 36.09765625 41.2421875 C36.07408609 44.49486916 36.03821525 47.74745744 36 51 C31.71 51 27.42 51 23 51 C22.505 39.615 22.505 39.615 22 28 C19.69 27.34 17.38 26.68 15 26 C14.67 34.58 14.34 43.16 14 52 C9.38 52 4.76 52 0 52 C0 34.84 0 17.68 0 0 Z " fill="#0C0C0C" transform="translate(142,115)"/>
<path d="M0 0 C4.49335792 2.67873261 7.89728454 6.23206909 10.25 10.9375 C10.94479841 18.50087701 11.34801002 25.19881726 6.6171875 31.453125 C3.15388227 35.21328496 0.26893849 36.78451211 -4.89453125 37.17578125 C-14.71227613 37.37443636 -14.71227613 37.37443636 -19.3125 35.4375 C-24.61668789 29.99730729 -27.05416305 26.11927292 -27.25 18.3125 C-27.00479494 12.72440577 -26.454511 8.63443533 -22.35546875 4.546875 C-15.35576022 -1.61995682 -8.90436424 -2.5229032 0 0 Z " fill="#050505" transform="translate(76.75,130.0625)"/>
<path d="M0 0 C3.79056906 2.09939209 6.46073833 4.94315492 8 9 C8.22705078 12.02441406 8.22705078 12.02441406 8.1953125 15.515625 C8.18886719 16.76601562 8.18242188 18.01640625 8.17578125 19.3046875 C8.15902344 20.60664063 8.14226563 21.90859375 8.125 23.25 C8.11597656 24.56742188 8.10695312 25.88484375 8.09765625 27.2421875 C8.07408609 30.49486916 8.03821525 33.74745744 8 37 C3.71 37 -0.58 37 -5 37 C-5.495 25.615 -5.495 25.615 -6 14 C-8.31 13.34 -10.62 12.68 -13 12 C-13.33 20.58 -13.66 29.16 -14 38 C-18.62 38 -23.24 38 -28 38 C-28 25.79 -28 13.58 -28 1 C-23.38 1 -18.76 1 -14 1 C-13.67 1.66 -13.34 2.32 -13 3 C-12.34 2.505 -11.68 2.01 -11 1.5 C-7.26338889 -0.36830555 -4.05988438 -0.85805775 0 0 Z " fill="#0B0B0B" transform="translate(39,129)"/>
<path d="M0 0 C5.28923987 1.76307996 7.80008936 4.61155112 11 9 C12 12 12 12 12 21 C3.09 21 -5.82 21 -15 21 C-11.97160542 28.71058562 -11.97160542 28.71058562 -8 31 C-1.39519133 31.73386763 4.26358232 31.62300064 10 28 C10.66 28 11.32 28 12 28 C12 30.31 12 32.62 12 35 C7.2191579 38.82467368 2.97136186 39.43393582 -3.0625 39.5 C-3.74699219 39.51804688 -4.43148437 39.53609375 -5.13671875 39.5546875 C-10.21675224 39.49584541 -13.07626506 38.14130626 -17 35 C-22.4213553 29.2774583 -23.52923656 23.44116951 -23.3828125 15.75390625 C-22.58706885 10.0294239 -19.48856514 6.35009396 -15.3125 2.5625 C-10.38084792 -0.76969735 -5.83174384 -0.44605406 0 0 Z " fill="#AE8810" transform="translate(219,72)"/>
<path d="M0 0 C4.29 0 8.58 0 13 0 C13 3.96 13 7.92 13 12 C14.98 12 16.96 12 19 12 C19 14.64 19 17.28 19 20 C17.02 20 15.04 20 13 20 C13.495 28.415 13.495 28.415 14 37 C15.65 37.33 17.3 37.66 19 38 C19 41.63 19 45.26 19 49 C16.75106046 49.10823773 14.50062425 49.18569645 12.25 49.25 C10.99703125 49.29640625 9.7440625 49.3428125 8.453125 49.390625 C5 49 5 49 2.609375 47.109375 C0.11525606 43.84038415 -0.12099624 42.05334567 -0.09765625 37.9921875 C-0.09443359 37.00605469 -0.09121094 36.01992187 -0.08789062 35.00390625 C-0.07951172 33.97136719 -0.07113281 32.93882812 -0.0625 31.875 C-0.05798828 30.83472656 -0.05347656 29.79445312 -0.04882812 28.72265625 C-0.03701952 26.14838038 -0.02055075 23.57421854 0 21 C-1.65 21 -3.3 21 -5 21 C-5 18.03 -5 15.06 -5 12 C-3.35 12 -1.7 12 0 12 C0 8.04 0 4.08 0 0 Z " fill="#060606" transform="translate(120,118)"/>
<path d="M0 0 C3.96 0 7.92 0 12 0 C12.33 1.65 12.66 3.3 13 5 C13.515625 4.175 14.03125 3.35 14.5625 2.5 C17 0 17 0 20.75 -0.3125 C21.8225 -0.209375 22.895 -0.10625 24 0 C24 4.29 24 8.58 24 13 C22.88625 13.28875 21.7725 13.5775 20.625 13.875 C16.99708908 14.69241329 16.99708908 14.69241329 15 17 C14.63047951 19.12860662 14.63047951 19.12860662 14.5859375 21.5703125 C14.52792969 22.91416016 14.52792969 22.91416016 14.46875 24.28515625 C14.42234375 25.69087891 14.42234375 25.69087891 14.375 27.125 C14.31699219 28.54232422 14.31699219 28.54232422 14.2578125 29.98828125 C14.1633918 32.3251935 14.08060102 34.6625703 14 37 C9.38 37 4.76 37 0 37 C0 24.79 0 12.58 0 0 Z " fill="#0E0E0E" transform="translate(89,130)"/>
<path d="M0 0 C2.31 0 4.62 0 7 0 C7.01458252 0.79696289 7.02916504 1.59392578 7.04418945 2.41503906 C7.11867475 6.02718124 7.21533512 9.63839974 7.3125 13.25 C7.33505859 14.50425781 7.35761719 15.75851563 7.38085938 17.05078125 C7.41630859 18.25605469 7.45175781 19.46132812 7.48828125 20.703125 C7.51446533 21.81333008 7.54064941 22.92353516 7.56762695 24.06738281 C8.04416179 27.29953211 8.6698086 28.7324937 11 31 C16.00252766 31.64847581 18.95022151 30.9777783 23 28 C24.80394875 26.19605125 24.23705789 23.43322201 24.31640625 20.99609375 C24.35830078 19.78115234 24.40019531 18.56621094 24.44335938 17.31445312 C24.48267578 16.03505859 24.52199219 14.75566406 24.5625 13.4375 C24.60568359 12.15423828 24.64886719 10.87097656 24.69335938 9.54882812 C24.799848 6.36600147 24.90185962 3.18309326 25 0 C27.31 0 29.62 0 32 0 C32 12.54 32 25.08 32 38 C29.36 38 26.72 38 24 38 C23.67 37.01 23.34 36.02 23 35 C22.401875 35.495 21.80375 35.99 21.1875 36.5 C16.49014606 38.7105195 12.10692304 38.69116252 7 38 C2.81109874 35.69182992 1.43012202 33.46550704 0 29 C-0.22705078 25.77026367 -0.22705078 25.77026367 -0.1953125 22.16796875 C-0.18886719 20.87568359 -0.18242187 19.58339844 -0.17578125 18.25195312 C-0.15907327 16.8971327 -0.14214342 15.54231499 -0.125 14.1875 C-0.11496003 12.81315749 -0.10583596 11.43880797 -0.09765625 10.06445312 C-0.07411242 6.70945683 -0.04122567 3.35481801 0 0 Z " fill="#AC840A" transform="translate(160,73)"/>
<path d="M0 0 C0.33 0 0.66 0 1 0 C1 2.64 1 5.28 1 8 C4.96 8 8.92 8 13 8 C13 9.98 13 11.96 13 14 C9.04 14 5.08 14 1 14 C1.14035305 17.62528953 1.28702517 21.25012883 1.4375 24.875 C1.47681641 25.90753906 1.51613281 26.94007812 1.55664062 28.00390625 C1.61948242 29.48310547 1.61948242 29.48310547 1.68359375 30.9921875 C1.72025146 31.90339355 1.75690918 32.81459961 1.79467773 33.75341797 C1.86577065 36.03483481 1.86577065 36.03483481 3 38 C6.96 38 10.92 38 15 38 C15 39.98 15 41.96 15 44 C10.22495142 46.80885211 5.3922417 46.64802905 0 46 C-4.19770072 43.68698123 -5.52341805 41.4519957 -7 37 C-7.22705078 34.4128418 -7.22705078 34.4128418 -7.1953125 31.69921875 C-7.18886719 30.72275391 -7.18242188 29.74628906 -7.17578125 28.74023438 C-7.15902344 27.73283203 -7.14226562 26.72542969 -7.125 25.6875 C-7.11597656 24.66076172 -7.10695313 23.63402344 -7.09765625 22.57617188 C-7.07416201 20.05054101 -7.04131131 17.5253919 -7 15 C-9.31 15 -11.62 15 -14 15 C-14 14.34 -14 13.68 -14 13 C-12.4609375 11.484375 -12.4609375 11.484375 -10.375 9.75 C-7.65500053 7.44548891 -5.05303662 5.11363362 -2.5625 2.5625 C-1.716875 1.716875 -0.87125 0.87125 0 0 Z " fill="#AE8710" transform="translate(108,65)"/>
<path d="M0 0 C2.64 0 5.28 0 8 0 C8.33 2.31 8.66 4.62 9 7 C9.78375 6.030625 10.5675 5.06125 11.375 4.0625 C12.91288705 2.16037654 13.79259913 1.10370043 16 0 C18.05859375 0.05078125 18.05859375 0.05078125 20.4375 0.3125 C21.61119141 0.43044922 21.61119141 0.43044922 22.80859375 0.55078125 C25 1 25 1 28 3 C27.38722388 5.96175123 26.74627478 7.38058783 25 10 C24.113125 9.67 23.22625 9.34 22.3125 9 C19.19737144 8.05958383 17.19554165 7.49544079 14 8 C11.75567018 9.87027485 10.30556798 11.38886404 9 14 C8.84655791 15.88472859 8.75040429 17.77427874 8.68359375 19.6640625 C8.64169922 20.78554687 8.59980469 21.90703125 8.55664062 23.0625 C8.49766602 24.8259375 8.49766602 24.8259375 8.4375 26.625 C8.39431641 27.80835937 8.35113281 28.99171875 8.30664062 30.2109375 C8.20032574 33.14050328 8.09829358 36.07015588 8 39 C5.36 39 2.72 39 0 39 C0 26.13 0 13.26 0 0 Z " fill="#AE870E" transform="translate(128,72)"/>
<path d="M0 0 C6.93 0 13.86 0 21 0 C12.49794379 9.91906557 2.83799807 19.02883529 -10 23 C-12.3125 22.625 -12.3125 22.625 -14 22 C-13.40832031 21.16597656 -12.81664063 20.33195312 -12.20703125 19.47265625 C-11.40862358 18.33609945 -10.61045974 17.19937133 -9.8125 16.0625 C-9.42513672 15.51787109 -9.03777344 14.97324219 -8.63867188 14.41210938 C-5.36023616 9.72475913 -2.82113735 5.07804724 0 0 Z " fill="#F6F6F6" transform="translate(107,25)"/>
<path d="M0 0 C4.62 0 9.24 0 14 0 C8.37423192 11.25153615 -3.00581316 20.39601235 -14.625 25.125 C-18 26 -18 26 -21 25 C-19.87851563 24.29423828 -19.87851563 24.29423828 -18.734375 23.57421875 C-17.74953125 22.95160156 -16.7646875 22.32898438 -15.75 21.6875 C-14.77546875 21.07261719 -13.8009375 20.45773438 -12.796875 19.82421875 C-10.45266287 18.29524241 -8.21215968 16.71179023 -6 15 C-6.66 14.67 -7.32 14.34 -8 14 C-6.34697456 10.41844487 -4.18447628 7.27671443 -2 4 C-1.34 2.68 -0.68 1.36 0 0 Z " fill="#F1F1F1" transform="translate(88,25)"/>
<path d="M0 0 C2 1.6875 2 1.6875 3 4 C2.6875 6.75 2.6875 6.75 2 9 C1.34 9 0.68 9 0 9 C-0.66 7.35 -1.32 5.7 -2 4 C-4.75641416 4.49756092 -4.75641416 4.49756092 -7 6 C-7.12653198 8.49238569 -7.18519825 10.94470441 -7.1875 13.4375 C-7.19974609 14.13166016 -7.21199219 14.82582031 -7.22460938 15.54101562 C-7.22989842 17.36220901 -7.12169207 19.1828692 -7 21 C-6.34 21.66 -5.68 22.32 -5 23 C-4.01 23 -3.02 23 -2 23 C-1.34 21.02 -0.68 19.04 0 17 C-1.32 17 -2.64 17 -4 17 C-4 15.68 -4 14.36 -4 13 C-1.69 13 0.62 13 3 13 C3 17.62 3 22.24 3 27 C1.68 27 0.36 27 -1 27 C-1.33 27.33 -1.66 27.66 -2 28 C-4.3125 28.375 -4.3125 28.375 -7 28 C-11.78743058 23.21256942 -12.15905795 19.11790606 -12.25 12.5625 C-12.27578125 11.45003906 -12.3015625 10.33757812 -12.328125 9.19140625 C-11.96503509 5.65992467 -11.11086914 3.8230313 -9 1 C-5.9167365 -0.54163175 -3.39121901 -0.29747535 0 0 Z " fill="#F8F4EA" transform="translate(224,134)"/>
<path d="M0 0 C2.625 0.3125 2.625 0.3125 4.265625 1.98828125 C5.91003717 4.79984803 6.02670074 6.5728103 6 9.8125 C6.00773437 10.7509375 6.01546875 11.689375 6.0234375 12.65625 C5.56400969 15.7191021 4.76194298 17.09887246 2.625 19.3125 C0.125 19.875 0.125 19.875 -2.375 19.3125 C-5.48010778 15.88617417 -5.77675248 12.67322799 -5.609375 8.24609375 C-5.11541003 4.17088271 -4.34183613 0.57129423 0 0 Z " fill="#F2F2F2" transform="translate(68.375,138.6875)"/>
<path d="M0 0 C2.5625 1.6875 2.5625 1.6875 4 4 C4.33 5.65 4.66 7.3 5 9 C-1.6 9 -8.2 9 -15 9 C-14 4 -14 4 -12.5625 1.6875 C-8.5720302 -0.94037036 -4.63596274 -0.76366108 0 0 Z " fill="#F9F6EE" transform="translate(219,79)"/>
<path d="M0 0 C2.64 0 5.28 0 8 0 C8.33 2.31 8.66 4.62 9 7 C9.78375 6.030625 10.5675 5.06125 11.375 4.0625 C12.91288705 2.16037654 13.79259913 1.10370043 16 0 C18.05859375 0.05078125 18.05859375 0.05078125 20.4375 0.3125 C21.61119141 0.43044922 21.61119141 0.43044922 22.80859375 0.55078125 C25 1 25 1 28 3 C27.38722388 5.96175123 26.74627478 7.38058783 25 10 C24.113125 9.67 23.22625 9.34 22.3125 9 C19.19737144 8.05958383 17.19554165 7.49544079 14 8 C11.77068176 9.81260132 11.77068176 9.81260132 10 12 C9.34 12.66 8.68 13.32 8 14 C6.89771304 9.59085217 6.92345464 5.51617599 7 1 C4.69 1 2.38 1 0 1 C0 0.67 0 0.34 0 0 Z " fill="#B28D1C" transform="translate(128,72)"/>
<path d="M0 0 C4.29 0 8.58 0 13 0 C13 1.32 13 2.64 13 4 C11.35 4 9.7 4 8 4 C8 11.59 8 19.18 8 27 C6.68 27 5.36 27 4 27 C4 19.41 4 11.82 4 4 C2.68 4 1.36 4 0 4 C0 2.68 0 1.36 0 0 Z " fill="#F7F3E8" transform="translate(198,134)"/>
<path d="M0 0 C1.32 0 2.64 0 4 0 C4 8.91 4 17.82 4 27 C2.68 27 1.36 27 0 27 C0 18.09 0 9.18 0 0 Z " fill="#F6F2E6" transform="translate(190,134)"/>
<path d="M0 0 C0.66 0.99 1.32 1.98 2 3 C2.66 2.34 3.32 1.68 4 1 C3.5020163 4.73487777 3.12508244 6.81237635 1 10 C-0.9453125 10.29296875 -0.9453125 10.29296875 -3.125 10.1875 C-5.043125 10.0946875 -5.043125 10.0946875 -7 10 C-8.15941038 6.52176885 -7.70820884 4.54104422 -7 1 C-4.50935112 0.31292445 -2.62113708 0 0 0 Z " fill="#6D6D6D" transform="translate(228,174)"/>
<path d="M0 0 C2.93453261 0.36681658 3.86437246 0.86437246 6 3 C6.55555556 9.11111111 6.55555556 9.11111111 4.75 12 C3 13 3 13 0.890625 12.5625 C0.26671875 12.376875 -0.3571875 12.19125 -1 12 C-1.22162329 10.37675914 -1.42689803 8.751279 -1.625 7.125 C-1.74101562 6.22007813 -1.85703125 5.31515625 -1.9765625 4.3828125 C-1.98429688 3.59648437 -1.99203125 2.81015625 -2 2 C-1.34 1.34 -0.68 0.68 0 0 Z " fill="#131313" transform="translate(149,12)"/>
<path d="M0 0 C0 0.66 0 1.32 0 2 C1.32 2 2.64 2 4 2 C4 3.98 4 5.96 4 8 C3.67 8 3.34 8 3 8 C3 6.35 3 4.7 3 3 C2.01 3 1.02 3 0 3 C0.061875 3.94875 0.12375 4.8975 0.1875 5.875 C0.125625 6.90625 0.06375 7.9375 0 9 C-3.22791555 11.1519437 -4.28400809 11.20086443 -8 11 C-8 8.36 -8 5.72 -8 3 C-2.25 0 -2.25 0 0 0 Z " fill="#858585" transform="translate(164,173)"/>
<path d="M0 0 C-0.99 0.33 -1.98 0.66 -3 1 C-2.34 1.66 -1.68 2.32 -1 3 C-1.71285156 3.23074219 -2.42570312 3.46148437 -3.16015625 3.69921875 C-9.2653999 5.77812406 -13.89426072 8.08922097 -19 12 C-19.66 12 -20.32 12 -21 12 C-21.28875 12.639375 -21.5775 13.27875 -21.875 13.9375 C-23 16 -23 16 -25 17 C-21.08660846 8.70216053 -15.06764231 4.13796456 -7 0 C-3.86650268 -1.04449911 -3.01031744 -0.93423645 0 0 Z " fill="#CECECE" transform="translate(72,76)"/>
<path d="M0 0 C0.66 0 1.32 0 2 0 C2 0.66 2 1.32 2 2 C3.32 2.33 4.64 2.66 6 3 C6 4.98 6 6.96 6 9 C5.34 9 4.68 9 4 9 C4 7.02 4 5.04 4 3 C3.34 3 2.68 3 2 3 C2 4.98 2 6.96 2 9 C-0.875 9.125 -0.875 9.125 -4 9 C-4.66 8.34 -5.32 7.68 -6 7 C-5.625 4.375 -5.625 4.375 -5 2 C-3.68 2 -2.36 2 -1 2 C-0.67 1.34 -0.34 0.68 0 0 Z " fill="#858585" transform="translate(190,173)"/>
<path d="M0 0 C0.556875 0.309375 1.11375 0.61875 1.6875 0.9375 C4.12540433 2.05761821 6.36224186 2.56037364 9 3 C9 4.65 9 6.3 9 8 C3.375 9.125 3.375 9.125 0 8 C-0.38063221 5.6739143 -0.71269945 3.33944736 -1 1 C-0.67 0.67 -0.34 0.34 0 0 Z " fill="#767676" transform="translate(174,173)"/>
<path d="M0 0 C0.66 0 1.32 0 2 0 C2 2.97 2 5.94 2 9 C0 9 -2 9 -4 9 C-4.33 8.34 -4.66 7.68 -5 7 C-5.433125 7.495 -5.86625 7.99 -6.3125 8.5 C-8 10 -8 10 -11 10 C-11.33 9.01 -11.66 8.02 -12 7 C-11.34 6.67 -10.68 6.34 -10 6 C-10 6.66 -10 7.32 -10 8 C-9.01 8 -8.02 8 -7 8 C-7 6.68 -7 5.36 -7 4 C-8.32 4.33 -9.64 4.66 -11 5 C-11 4.34 -11 3.68 -11 3 C-8.69 3 -6.38 3 -4 3 C-3.67 3.66 -3.34 4.32 -3 5 C-2.54625 4.175 -2.0925 3.35 -1.625 2.5 C-1.08875 1.675 -0.5525 0.85 0 0 Z " fill="#505050" transform="translate(32,172)"/>
<path d="M0 0 C1.2065625 0.0309375 1.2065625 0.0309375 2.4375 0.0625 C2.4375 0.7225 2.4375 1.3825 2.4375 2.0625 C3.7575 2.0625 5.0775 2.0625 6.4375 2.0625 C6.4375 4.0425 6.4375 6.0225 6.4375 8.0625 C6.1075 8.0625 5.7775 8.0625 5.4375 8.0625 C5.4375 6.4125 5.4375 4.7625 5.4375 3.0625 C4.4475 3.0625 3.4575 3.0625 2.4375 3.0625 C2.4375 5.0425 2.4375 7.0225 2.4375 9.0625 C0.7875 8.7325 -0.8625 8.4025 -2.5625 8.0625 C-2.94313221 5.7364143 -3.27519945 3.40194736 -3.5625 1.0625 C-2.5625 0.0625 -2.5625 0.0625 0 0 Z " fill="#797979" transform="translate(130.5625,172.9375)"/>
<path d="M0 0 C0.66 0.33 1.32 0.66 2 1 C1.814375 1.556875 1.62875 2.11375 1.4375 2.6875 C0.92448835 5.399133 1.3359276 7.34371039 2 10 C0.35 10 -1.3 10 -3 10 C-3.8252404 6.69903842 -4.37001429 4.1967 -3 1 C-2.01 0.67 -1.02 0.34 0 0 Z " fill="#717171" transform="translate(39,174)"/>
<path d="M0 0 C0.9395941 3.52347789 1 6.31229831 1 10 C-0.65 10 -2.3 10 -4 10 C-4 7.03 -4 4.06 -4 1 C-2.68 0.67 -1.36 0.34 0 0 Z " fill="#6E6E6E" transform="translate(67,174)"/>
<path d="M0 0 C0.66 0 1.32 0 2 0 C2.66 0.99 3.32 1.98 4 3 C4.66 2.34 5.32 1.68 6 1 C5.5020163 4.73487777 5.12508244 6.81237635 3 10 C2.34 10 1.68 10 1 10 C0.67 9.01 0.34 8.02 0 7 C-2.00016466 5.79117904 -2.00016466 5.79117904 -4 5 C-3.01 4.67 -2.02 4.34 -1 4 C-0.26676204 1.98491642 -0.26676204 1.98491642 0 0 Z " fill="#9C9C9C" transform="translate(226,174)"/>
<path d="M0 0 C0.33 0.66 0.66 1.32 1 2 C3.52733235 2.65555119 3.52733235 2.65555119 6 3 C5.67 4.65 5.34 6.3 5 8 C4.01 8.33 3.02 8.66 2 9 C1.34 8.67 0.68 8.34 0 8 C0 5.36 0 2.72 0 0 Z " fill="#7A7A7A" transform="translate(73,173)"/>
<path d="M0 0 C4 2 4 2 5 4 C5.66 2.68 6.32 1.36 7 0 C7 2.64 7 5.28 7 8 C6.01 7.67 5.02 7.34 4 7 C3.67 6.34 3.34 5.68 3 5 C2.67 6.32 2.34 7.64 2 9 C1.34 9 0.68 9 0 9 C0 6.03 0 3.06 0 0 Z " fill="#5A5A5A" transform="translate(12,173)"/>
<path d="M0 0 C1.65 0.33 3.3 0.66 5 1 C5 2.65 5 4.3 5 6 C3.125 6.625 3.125 6.625 1 7 C0.34 6.34 -0.32 5.68 -1 5 C-0.625 2.375 -0.625 2.375 0 0 Z " fill="#828282" transform="translate(143,175)"/>
<path d="M0 0 C1.67542976 0.28604898 3.34385343 0.61781233 5 1 C4.67 2.65 4.34 4.3 4 6 C2.68 6.33 1.36 6.66 0 7 C-0.38133299 5.0085944 -0.71325582 3.00720923 -1 1 C-0.67 0.67 -0.34 0.34 0 0 Z " fill="#838383" transform="translate(215,175)"/>
<path d="M0 0 C1.67542976 0.28604898 3.34385343 0.61781233 5 1 C4.67 2.65 4.34 4.3 4 6 C2.68 6 1.36 6 0 6 C-0.38218767 4.34385343 -0.71395102 2.67542976 -1 1 C-0.67 0.67 -0.34 0.34 0 0 Z " fill="#808080" transform="translate(205,175)"/>
<path d="M0 0 C0.66 0.33 1.32 0.66 2 1 C1.34 1.66 0.68 2.32 0 3 C0.33 3.66 0.66 4.32 1 5 C-0.59915881 5.69906942 -2.20455045 6.38389468 -3.8125 7.0625 C-4.70582031 7.44535156 -5.59914063 7.82820313 -6.51953125 8.22265625 C-9 9 -9 9 -12 8 C-11.21753906 7.50628906 -10.43507813 7.01257812 -9.62890625 6.50390625 C-8.61699219 5.86324219 -7.60507813 5.22257812 -6.5625 4.5625 C-5.55316406 3.92441406 -4.54382813 3.28632812 -3.50390625 2.62890625 C-1.15446165 1.22350458 -1.15446165 1.22350458 0 0 Z " fill="#CDCDCD" transform="translate(79,42)"/>
<path d="M0 0 C1.65 0.33 3.3 0.66 5 1 C5 2.98 5 4.96 5 7 C3.35 7 1.7 7 0 7 C-0.33 5.68 -0.66 4.36 -1 3 C-0.34 2.67 0.32 2.34 1 2 C0.67 1.34 0.34 0.68 0 0 Z " fill="#717171" transform="translate(43,175)"/>
<path d="M0 0 C0.3125 2.25 0.3125 2.25 0 5 C-2.5 7.3125 -2.5 7.3125 -5 9 C-5 6.69 -5 4.38 -5 2 C-1.125 0 -1.125 0 0 0 Z " fill="#656565" transform="translate(161,174)"/>
<path d="M0 0 C0.99 0.33 1.98 0.66 3 1 C3.33 3.31 3.66 5.62 4 8 C2.68 8 1.36 8 0 8 C-0.38063221 5.6739143 -0.71269945 3.33944736 -1 1 C-0.67 0.67 -0.34 0.34 0 0 Z " fill="#969696" transform="translate(174,173)"/>
<path d="M0 0 C0.66 0 1.32 0 2 0 C2 2.31 2 4.62 2 7 C-0.31 7 -2.62 7 -5 7 C-5.33 6.34 -5.66 5.68 -6 5 C-5.195625 4.731875 -4.39125 4.46375 -3.5625 4.1875 C-2.716875 3.795625 -1.87125 3.40375 -1 3 C-0.67 2.01 -0.34 1.02 0 0 Z " fill="#787878" transform="translate(93,175)"/>
<path d="M0 0 C0.99 0.33 1.98 0.66 3 1 C1.37660195 2.70884005 -0.29319053 4.37446717 -2 6 C-2.66 6 -3.32 6 -4 6 C-4.28875 6.639375 -4.5775 7.27875 -4.875 7.9375 C-6 10 -6 10 -8 11 C-6.63629701 8.00779732 -5.05091917 5.70973471 -2.875 3.25 C-2.33617187 2.63640625 -1.79734375 2.0228125 -1.2421875 1.390625 C-0.62730469 0.70226562 -0.62730469 0.70226562 0 0 Z " fill="#B9B9B9" transform="translate(55,82)"/>
<path d="M0 0 C2.0625 0.4375 2.0625 0.4375 4 1 C3.67 1.33 3.34 1.66 3 2 C3.66 2.33 4.32 2.66 5 3 C4.67 4.32 4.34 5.64 4 7 C2.35 6.67 0.7 6.34 -1 6 C-0.67 5.34 -0.34 4.68 0 4 C-0.33 3.01 -0.66 2.02 -1 1 C-0.67 0.67 -0.34 0.34 0 0 Z " fill="#616161" transform="translate(111,175)"/>
<path d="M0 0 C0.66 0 1.32 0 2 0 C2.33 0.66 2.66 1.32 3 2 C3.99 2.66 4.98 3.32 6 4 C4.68 4.33 3.36 4.66 2 5 C2 6.65 2 8.3 2 10 C1.67 9.01 1.34 8.02 1 7 C-1.01508358 6.26676204 -1.01508358 6.26676204 -3 6 C-2.01 5.67 -1.02 5.34 0 5 C0 3.35 0 1.7 0 0 Z " fill="#DCDCDC" transform="translate(40,173)"/>
<path d="M0 0 C2.0625 0.4375 2.0625 0.4375 4 1 C3.67 1.66 3.34 2.32 3 3 C2.34 3 1.68 3 1 3 C1 3.66 1 4.32 1 5 C2.32 4.67 3.64 4.34 5 4 C4.67 4.99 4.34 5.98 4 7 C2.68 6.67 1.36 6.34 0 6 C-0.38218767 4.34385343 -0.71395102 2.67542976 -1 1 C-0.67 0.67 -0.34 0.34 0 0 Z " fill="#5C5C5C" transform="translate(104,175)"/>
<path d="M0 0 C0.66 0 1.32 0 2 0 C3 6.75 3 6.75 3 9 C2.01 8.67 1.02 8.34 0 8 C-1.125 2.25 -1.125 2.25 0 0 Z " fill="#676767" transform="translate(49,173)"/>
<path d="M0 0 C0.66 0 1.32 0 2 0 C2 2.97 2 5.94 2 9 C1.34 9 0.68 9 0 9 C-1.125 2.25 -1.125 2.25 0 0 Z " fill="#999999" transform="translate(32,172)"/>
<path d="M0 0 C0.99 0.33 1.98 0.66 3 1 C1.1875 3 1.1875 3 -1 5 C-1.99 5 -2.98 5 -4 5 C-3 2 -3 2 0 0 Z " fill="#E8E8E8" transform="translate(61,78)"/>
<path d="M0 0 C1.32 0.33 2.64 0.66 4 1 C3.67 1.99 3.34 2.98 3 4 C1.35 4 -0.3 4 -2 4 C-1.34 2.68 -0.68 1.36 0 0 Z " fill="#7C7C7C" transform="translate(158,180)"/>
</svg>
