<?xml version="1.0" encoding="UTF-8"?>
<svg version="1.1" xmlns="http://www.w3.org/2000/svg" width="512" height="512">
<path d="M0 0 C1.01790619 0.00215515 2.03581238 0.0043103 3.08456421 0.00653076 C17.69363523 0.05620146 32.02575853 0.30709809 46.375 3.3125 C47.34985352 3.51117676 48.32470703 3.70985352 49.32910156 3.91455078 C97.7109774 14.03517194 141.69928269 35.9516877 177.375 70.3125 C178.3640332 71.26068604 178.3640332 71.26068604 179.37304688 72.22802734 C188.86130305 81.37247479 197.6012044 90.66984009 205.375 101.3125 C206.23306152 102.46355017 207.09113451 103.61459177 207.94921875 104.765625 C213.98736829 112.95680614 219.34595521 121.47054105 224.375 130.3125 C224.73948242 130.94430176 225.10396484 131.57610352 225.47949219 132.22705078 C247.08534998 169.97532572 256.85198095 212.74189997 256.6875 255.9375 C256.68534485 256.95540619 256.6831897 257.97331238 256.68096924 259.02206421 C256.63129854 273.63113523 256.38040191 287.96325853 253.375 302.3125 C253.07698486 303.77478027 253.07698486 303.77478027 252.77294922 305.26660156 C242.65232806 353.6484774 220.7358123 397.63678269 186.375 433.3125 C185.74287598 433.97185547 185.11075195 434.63121094 184.45947266 435.31054688 C175.31502521 444.79880305 166.01765991 453.5387044 155.375 461.3125 C154.22394983 462.17056152 153.07290823 463.02863451 151.921875 463.88671875 C143.73224019 469.92427396 135.22961724 475.30707302 126.375 480.3125 C125.66778809 480.7146875 124.96057617 481.116875 124.23193359 481.53125 C101.09654164 494.5566741 75.92537591 503.30551461 49.9375 508.625 C49.21860596 508.77235596 48.49971191 508.91971191 47.7590332 509.0715332 C33.08339502 511.86090125 18.55831162 512.66142619 3.64770508 512.62817383 C0.70811513 512.6250221 -2.2304558 512.64854926 -5.16992188 512.67382812 C-18.54306192 512.71848737 -31.43916711 511.51301542 -44.625 509.3125 C-46.33055054 509.03031616 -46.33055054 509.03031616 -48.07055664 508.74243164 C-91.33802759 500.97044532 -132.38793216 480.98345309 -165.625 452.3125 C-166.37007813 451.67828125 -167.11515625 451.0440625 -167.8828125 450.390625 C-181.38779833 438.57948485 -194.05918743 425.82889772 -204.625 411.3125 C-205.48149066 410.16255169 -206.33826433 409.01281411 -207.1953125 407.86328125 C-213.23534209 399.67315742 -218.61867614 391.16870382 -223.625 382.3125 C-224.0271875 381.60528809 -224.429375 380.89807617 -224.84375 380.16943359 C-237.8691741 357.03404164 -246.61801461 331.86287591 -251.9375 305.875 C-252.08485596 305.15610596 -252.23221191 304.43721191 -252.3840332 303.6965332 C-255.35789088 288.05024391 -255.99800362 272.57681954 -255.9375 256.6875 C-255.93534485 255.66959381 -255.9331897 254.65168762 -255.93096924 253.60293579 C-255.88129854 238.99386477 -255.63040191 224.66174147 -252.625 210.3125 C-252.42632324 209.33764648 -252.22764648 208.36279297 -252.02294922 207.35839844 C-241.90232806 158.9765226 -219.9858123 114.98821731 -185.625 79.3125 C-184.99287598 78.65314453 -184.36075195 77.99378906 -183.70947266 77.31445312 C-174.56502521 67.82619695 -165.26765991 59.0862956 -154.625 51.3125 C-153.47394983 50.45443848 -152.32290823 49.59636549 -151.171875 48.73828125 C-142.98224019 42.70072604 -134.47961724 37.31792698 -125.625 32.3125 C-124.91778809 31.9103125 -124.21057617 31.508125 -123.48193359 31.09375 C-100.34654164 18.0683259 -75.17537591 9.31948539 -49.1875 4 C-48.46860596 3.85264404 -47.74971191 3.70528809 -47.0090332 3.5534668 C-31.36274391 0.57960912 -15.88931954 -0.06050362 0 0 Z " fill="#6CD4FE" transform="translate(255.625,-0.3125)"/>
<path d="M0 0 C2.25293979 0.7600216 3.72429137 1.68271921 5.61279297 3.11767578 C6.26546143 3.60961426 6.91812988 4.10155273 7.59057617 4.60839844 C8.27724365 5.13739746 8.96391113 5.66639648 9.67138672 6.21142578 C10.38447998 6.75460449 11.09757324 7.2977832 11.83227539 7.85742188 C21.66607047 15.3837037 31.02872863 23.29866809 40.10888672 31.71142578 C43.57388672 27.75142578 43.57388672 27.75142578 47.10888672 23.71142578 C56.67651869 32.43485493 63.42539968 45.15569335 64.27001953 58.19995117 C64.31602114 61.05820211 64.34859813 63.91529875 64.35888672 66.77392578 C64.36573486 67.80509521 64.37258301 68.83626465 64.37963867 69.89868164 C64.3428782 76.65035503 63.47366824 82.04134658 61.44873047 88.46142578 C60.89925595 90.71665852 60.89925595 90.71665852 61.98779297 92.64892578 C63.48866179 94.50697574 63.48866179 94.50697574 66.10888672 96.71142578 C68.94034638 105.20580478 68.09470569 118.32269628 65.10888672 126.71142578 C62.54196361 129.88630437 60.02260596 132.4068527 56.10888672 133.71142578 C52.85888672 133.83642578 52.85888672 133.83642578 50.10888672 133.71142578 C49.55201172 135.59861328 49.55201172 135.59861328 48.98388672 137.52392578 C46.70293043 144.4104493 43.12253468 150.69095385 39.10888672 156.71142578 C38.81933143 159.03451393 38.81933143 159.03451393 38.88183594 161.6418457 C38.881987 162.64265671 38.88213806 163.64346771 38.8822937 164.67460632 C38.89261627 165.75281143 38.90293884 166.83101654 38.91357422 167.94189453 C38.91640411 169.04745193 38.91923401 170.15300934 38.92214966 171.29206848 C38.9333567 174.82779706 38.95846245 178.36327358 38.98388672 181.89892578 C38.99391583 184.29410442 39.0030418 186.68928702 39.01123047 189.08447266 C39.03329775 194.9602099 39.06678054 200.83579983 39.10888672 206.71142578 C39.76896729 206.70815277 40.42904785 206.70487976 41.10913086 206.70150757 C44.12987896 206.68843231 47.15062107 206.68035835 50.17138672 206.67236328 C51.20972656 206.66712646 52.24806641 206.66188965 53.31787109 206.65649414 C76.9425809 206.60961972 97.65997154 215.44716127 114.55419922 232.12548828 C118.5254195 236.36594383 121.42724394 240.27931488 124.04638672 245.46142578 C128.49988225 252.87696517 136.15487493 253.84167829 143.97802734 256.05078125 C152.84409328 258.79958675 160.23685507 264.66627274 167.10888672 270.71142578 C168.25164062 271.71109375 168.25164062 271.71109375 169.41748047 272.73095703 C183.06082571 285.4757804 192.68050364 304.50951563 193.44482422 323.27783203 C193.47462813 325.27635014 193.48708726 327.27518801 193.48388672 329.27392578 C193.48227539 330.32660645 193.48066406 331.37928711 193.47900391 332.46386719 C193.33935709 341.42727588 191.9796281 349.21840198 189.10888672 357.71142578 C188.80853516 358.63826172 188.50818359 359.56509766 188.19873047 360.52001953 C181.32079101 379.60555718 165.33833332 395.27483154 147.3203125 403.97607422 C129.66981649 412.08852159 106.96872527 414.72508093 88.30419922 408.10595703 C78.07019197 403.63952599 68.59447019 399.11143354 60.10888672 391.71142578 C58.96329587 390.7944561 57.81748686 389.87775883 56.67138672 388.96142578 C54.10888672 386.71142578 54.10888672 386.71142578 52.10888672 383.71142578 C49.58040638 383.25860831 49.58040638 383.25860831 46.57171631 383.33961487 C44.80572586 383.32947861 44.80572586 383.32947861 43.00405884 383.31913757 C41.70543915 383.32685684 40.40681946 383.33457611 39.06884766 383.3425293 C37.69226787 383.34006216 36.31568995 383.33622462 34.93911743 383.33111572 C31.96852126 383.32276102 28.99811668 383.32359992 26.02751923 383.33130074 C21.31873212 383.34288032 16.61019132 383.33072007 11.90142822 383.31468201 C0.19410718 383.27846551 -11.5132091 383.27224513 -23.22058105 383.27478027 C-32.29798484 383.27649706 -41.37518737 383.26917946 -50.45253539 383.23480171 C-55.12031847 383.21811833 -59.78760923 383.21970845 -64.4553895 383.23562443 C-67.3820778 383.24147999 -70.30854009 383.23057586 -73.23518753 383.21537781 C-75.21011448 383.20995888 -77.18506597 383.22414268 -79.15994263 383.23924255 C-92.16383247 383.13641381 -103.13194889 380.00441617 -113.89111328 372.71142578 C-114.90173828 372.13392578 -115.91236328 371.55642578 -116.95361328 370.96142578 C-124.22880176 365.38894099 -129.22555576 358.76381954 -133.32861328 350.64892578 C-133.82337158 349.67681152 -133.82337158 349.67681152 -134.328125 348.68505859 C-138.4979178 339.99671877 -139.20022459 331.52613919 -139.19189453 321.98486328 C-139.19832222 320.32603622 -139.19832222 320.32603622 -139.20487976 318.63369751 C-139.21059781 316.30235474 -139.21114205 313.97099415 -139.20678711 311.63964844 C-139.2036412 308.11768226 -139.2270706 304.5965688 -139.25244141 301.07470703 C-139.29550204 286.29378352 -139.09936517 272.0791112 -132.64111328 258.46142578 C-132.33592773 257.79723633 -132.03074219 257.13304687 -131.71630859 256.44873047 C-121.40650578 234.54702193 -104.18785947 218.87692183 -81.43017578 210.42626953 C-71.19877734 207.09927633 -61.50620759 206.5613493 -50.82861328 206.64892578 C-49.77222656 206.6534375 -48.71583984 206.65794922 -47.62744141 206.66259766 C-45.0486042 206.6742666 -42.46989034 206.69063693 -39.89111328 206.71142578 C-39.68628676 199.84753115 -39.54735737 192.98443912 -39.45166016 186.11816406 C-39.41172015 183.78843746 -39.35734667 181.45890757 -39.28759766 179.12988281 C-38.85966241 164.46051441 -39.21760343 154.75943187 -47.89111328 142.71142578 C-49.15554075 139.72522474 -50.02749076 136.84205743 -50.89111328 133.71142578 C-51.48279297 133.69724609 -52.07447266 133.68306641 -52.68408203 133.66845703 C-57.08725635 133.40268631 -59.30579015 133.18466576 -62.82861328 130.33642578 C-67.47412856 124.42395179 -67.52860894 120.05424634 -67.89111328 112.71142578 C-67.95685547 111.57833984 -68.02259766 110.44525391 -68.09033203 109.27783203 C-68.32151444 102.3822188 -67.95258152 98.32580835 -63.89111328 92.71142578 C-62.32075413 90.29548863 -61.77183197 89.30075634 -62.35205078 86.43408203 C-62.65369141 85.55623047 -62.95533203 84.67837891 -63.26611328 83.77392578 C-68.20657013 65.69584152 -64.65924142 48.60118622 -55.64111328 32.54736328 C-53.62677184 29.28305104 -51.51831204 26.49784871 -48.89111328 23.71142578 C-46.22444661 26.37809245 -43.55777995 29.04475911 -40.89111328 31.71142578 C-40.14990234 30.99599609 -39.40869141 30.28056641 -38.64501953 29.54345703 C-30.46386941 21.76238575 -21.80450799 14.87470646 -12.75878906 8.12988281 C-9.63569179 5.75796188 -6.63169841 3.23784956 -3.65283203 0.68798828 C-1.89111328 -0.28857422 -1.89111328 -0.28857422 0 0 Z " fill="#5E3ACE" transform="translate(232.89111328125,35.28857421875)"/>
<path d="M0 0 C3.24759117 1.4276392 5.41926272 3.16427933 7.92801285 5.65957069 C8.70232407 6.42496623 9.47663529 7.19036176 10.27441049 7.9789511 C11.11876775 8.82367708 11.963125 9.66840307 12.83306885 10.53872681 C13.73486807 11.43317265 14.63666728 12.32761849 15.56579375 13.24916875 C18.06964939 15.73300912 20.56720045 18.22310592 23.06372023 20.71431661 C25.7568476 23.3996309 28.4556273 26.07925488 31.15356445 28.75973511 C37.66675611 35.23342495 44.17027475 41.71679086 50.67263854 48.20135361 C53.73433099 51.2542786 56.79700444 54.30621914 59.85955048 57.35828781 C70.03773523 67.5024561 80.21340643 77.64913579 90.38183975 87.80307961 C93.01984058 90.43726063 95.65785184 93.07143122 98.29589844 95.70556641 C98.95157168 96.36027217 99.60724492 97.01497793 100.28278705 97.68952326 C110.91275725 108.30288071 121.55965756 118.89908324 132.2137318 129.48823841 C143.14925467 140.35766795 154.06970684 151.24205381 164.9754312 162.14138258 C171.10009098 168.26170845 177.23119552 174.37526141 183.37915802 180.47218704 C188.61295872 185.66263942 193.83298083 190.86646249 199.03540686 196.08836944 C201.69070372 198.75277428 204.35209126 201.41024625 207.03124237 204.05068207 C209.93438944 206.91223589 212.80568097 209.80376642 215.67486572 212.69937134 C216.52814587 213.53071299 217.38142601 214.36205465 218.26056314 215.21858847 C224.49029306 221.5882792 224.49029306 221.5882792 224.54107285 226.41261864 C224.36251881 227.59645449 224.18396477 228.78029034 224 230 C223.89042969 230.89058105 223.78085937 231.78116211 223.66796875 232.69873047 C223.12583089 235.42760121 222.57917983 238.15368508 222 240.875 C221.77852295 241.9158374 221.5570459 242.9566748 221.32885742 244.02905273 C216.79102329 264.55268256 210.04694976 284.03878359 201 303 C200.63825684 303.76070801 200.27651367 304.52141602 199.90380859 305.30517578 C188.89658163 328.06301486 173.49835665 348.83202366 156 367 C155.36787598 367.65935547 154.73575195 368.31871094 154.08447266 368.99804688 C144.94002521 378.48630305 135.64265991 387.2262044 125 395 C123.84894983 395.85806152 122.69790823 396.71613451 121.546875 397.57421875 C113.35724019 403.61177396 104.85461724 408.99457302 96 414 C95.29278809 414.4021875 94.58557617 414.804375 93.85693359 415.21875 C70.72154164 428.2441741 45.55037591 436.99301461 19.5625 442.3125 C18.84360596 442.45985596 18.12471191 442.60721191 17.3840332 442.7590332 C2.54639337 445.57919256 -12.09244331 446.32443471 -27.16674805 446.26074219 C-30.19404953 446.24997671 -33.22076271 446.26072706 -36.24804688 446.2734375 C-38.22135544 446.27211623 -40.19466365 446.26955451 -42.16796875 446.265625 C-43.04857468 446.26967346 -43.9291806 446.27372192 -44.83647156 446.27789307 C-47.56569417 446.25800246 -50.27414472 446.13875047 -53 446 C-54.06109954 445.95961294 -55.12219908 445.91922588 -56.21545315 445.87761497 C-66.28747738 445.03261634 -71.23116262 441.46146634 -78.04443359 434.31787109 C-79.05868157 433.30023026 -80.07559506 432.28524028 -81.09492493 431.27268982 C-83.83020301 428.54082768 -86.52711805 425.77382012 -89.21821165 422.99851561 C-92.04578891 420.09545848 -94.90784048 417.2267859 -97.76626587 414.35415649 C-103.16287163 408.92038773 -108.52818075 403.45679165 -113.88267386 397.98155463 C-119.98464803 391.74502783 -126.1211049 385.54291018 -132.26056552 379.34331775 C-144.87887664 366.59988125 -157.45366681 353.81428763 -170 341 C-166.44863054 341 -165.57500694 341.78940705 -162.6875 343.75 C-152.01543583 350.30201998 -140.73082976 351.5911512 -128.43896484 351.46655273 C-127.04439107 351.46710325 -125.64981702 351.46948894 -124.25524902 351.47354126 C-121.2847672 351.47866538 -118.31465861 351.47180148 -115.34421921 351.45528984 C-110.64560106 351.42993614 -105.94734141 351.4365157 -101.24868774 351.44776917 C-89.5938906 351.47084139 -77.93920353 351.45246303 -66.28442383 351.42626953 C-57.19273572 351.40632516 -48.10133731 351.39771099 -39.00964892 351.42320591 C-34.33893792 351.43501374 -29.66905573 351.42339226 -24.99843097 351.3939532 C-22.10061892 351.38071048 -19.20312954 351.38810517 -16.30532837 351.40123367 C-14.32139329 351.40397763 -12.33747298 351.3817749 -10.35366821 351.35887146 C-8.58355377 351.37313171 -8.58355377 351.37313171 -6.77767944 351.38768005 C-5.75239325 351.38525016 -4.72710705 351.38282026 -3.67075157 351.38031673 C-0.02811283 352.2255029 0.91614071 353.98665259 3 357 C11.71868466 364.81367499 21.27380348 370.42033742 32 375 C33.04929687 375.45632813 34.09859375 375.91265625 35.1796875 376.3828125 C53.82735793 383.03272989 76.57382168 380.37684843 94.21240234 372.26342773 C101.55770789 368.71886097 107.96576526 364.52951251 114 359 C114.63164062 358.43667969 115.26328125 357.87335938 115.9140625 357.29296875 C128.9589353 345.02389235 137.92624425 326.36433405 139.17700195 308.46728516 C139.72272533 284.61634716 135.54686772 264.08382974 119 246 C118.11441406 244.97712891 118.11441406 244.97712891 117.2109375 243.93359375 C108.54573762 234.51249345 95.02405496 225.91918578 82.34765625 223.4921875 C77.94384515 222.63721031 75.68906154 221.81596272 72.73046875 218.3125 C71.20756915 216.05082073 69.72285373 213.78670105 68.265625 211.484375 C56.8116866 193.43995559 37.38253638 182.90085647 17 178 C10.35472641 176.95788406 3.71587916 176.69386335 -3 176.4375 C-4.06089844 176.39431641 -5.12179687 176.35113281 -6.21484375 176.30664062 C-8.80979151 176.20144004 -11.40482084 176.09929881 -14 176 C-14 178.97 -14 181.94 -14 185 C-14.33 185 -14.66 185 -15 185 C-15.18692317 177.54967065 -15.32828439 170.0995898 -15.41449738 162.64743614 C-15.45591786 159.18532771 -15.51190817 155.72484484 -15.60351562 152.26367188 C-16.32893109 124.13375409 -16.32893109 124.13375409 -7 112 C-5.79399348 109.26388584 -5.79399348 109.26388584 -5 106.75 C-3.97157276 104.26616457 -3.55885671 103.27360693 -1.125 102.08203125 C0.91784427 101.58258587 2.91566519 101.26645105 5 101 C7.88429541 99.98659891 8.80538636 99.25227695 10.6875 96.8125 C13.41228684 90.97367106 13.23262062 84.34774823 13.3125 78 C13.34150391 77.23171875 13.37050781 76.4634375 13.40039062 75.671875 C13.46392856 69.92413606 12.21107278 66.76597074 9 62 C7 59 7 59 7.44555664 56.70068359 C7.74324951 55.81719238 8.04094238 54.93370117 8.34765625 54.0234375 C10.10214229 48.12471772 10.50223622 42.75422523 10.4375 36.625 C10.43065186 35.62057861 10.42380371 34.61615723 10.41674805 33.58129883 C10.16139465 21.74036082 6.65565058 12.3651886 1 2 C0.67 1.34 0.34 0.68 0 0 Z " fill="#519FDF" transform="translate(286,66)"/>
<path d="M0 0 C2.25293979 0.7600216 3.72429137 1.68271921 5.61279297 3.11767578 C6.26546143 3.60961426 6.91812988 4.10155273 7.59057617 4.60839844 C8.27724365 5.13739746 8.96391113 5.66639648 9.67138672 6.21142578 C10.38447998 6.75460449 11.09757324 7.2977832 11.83227539 7.85742188 C21.66607047 15.3837037 31.02872863 23.29866809 40.10888672 31.71142578 C43.57388672 27.75142578 43.57388672 27.75142578 47.10888672 23.71142578 C56.67651869 32.43485493 63.42539968 45.15569335 64.27001953 58.19995117 C64.31602114 61.05820211 64.34859813 63.91529875 64.35888672 66.77392578 C64.36573486 67.80509521 64.37258301 68.83626465 64.37963867 69.89868164 C64.3428782 76.65035503 63.47366824 82.04134658 61.44873047 88.46142578 C60.89925595 90.71665852 60.89925595 90.71665852 61.98779297 92.64892578 C63.48866179 94.50697574 63.48866179 94.50697574 66.10888672 96.71142578 C68.94034638 105.20580478 68.09470569 118.32269628 65.10888672 126.71142578 C62.54196361 129.88630437 60.02260596 132.4068527 56.10888672 133.71142578 C52.85888672 133.83642578 52.85888672 133.83642578 50.10888672 133.71142578 C49.55201172 135.59861328 49.55201172 135.59861328 48.98388672 137.52392578 C46.70293043 144.4104493 43.12253468 150.69095385 39.10888672 156.71142578 C38.92197787 159.1858566 38.84925029 161.54791184 38.86938477 164.02172852 C38.86737061 164.76366959 38.86535645 165.50561066 38.86328125 166.27003479 C38.85973512 167.882391 38.86050362 169.49476111 38.86505699 171.10711479 C38.87065787 173.668989 38.86147578 176.23041161 38.84785461 178.79225159 C38.8107808 186.07677061 38.79211323 193.36114121 38.8034668 200.64575195 C38.80936137 205.10392637 38.79083992 209.56147174 38.7575779 214.0195179 C38.74968425 215.70935366 38.75081792 217.39925912 38.7616024 219.0890789 C38.83624245 231.32231422 37.79258047 242.79619776 28.90966797 252.18408203 C17.12034621 262.18326817 4.74848866 262.74546726 -10.09033203 262.00585938 C-15.87859963 261.39736472 -20.21770057 259.16676816 -24.89111328 255.71142578 C-25.49439453 255.32857422 -26.09767578 254.94572266 -26.71923828 254.55126953 C-33.04423851 250.09501937 -36.85395294 241.96306214 -38.89111328 234.71142578 C-39.05262172 232.13141567 -39.12208542 229.66709692 -39.08300781 227.09228516 C-39.07880074 225.98353531 -39.07880074 225.98353531 -39.07450867 224.85238647 C-39.06803629 223.25479582 -39.0574784 221.65721751 -39.04324722 220.05967712 C-39.02363909 217.51801425 -39.02159724 214.97691143 -39.02511597 212.43518066 C-39.03476145 205.21092145 -39.03559868 197.9872048 -38.97021484 190.76318359 C-38.93141039 186.33375628 -38.93229255 181.90577644 -38.95779037 177.47627258 C-38.96018098 175.80198468 -38.94839278 174.12760588 -38.92120743 172.45353699 C-38.75491474 161.77068553 -40.01800883 154.65151706 -45.97848511 145.6583252 C-48.48329441 141.79901727 -49.67422872 138.12263232 -50.89111328 133.71142578 C-51.48279297 133.69724609 -52.07447266 133.68306641 -52.68408203 133.66845703 C-57.08725635 133.40268631 -59.30579015 133.18466576 -62.82861328 130.33642578 C-67.47412856 124.42395179 -67.52860894 120.05424634 -67.89111328 112.71142578 C-67.95685547 111.57833984 -68.02259766 110.44525391 -68.09033203 109.27783203 C-68.32151444 102.3822188 -67.95258152 98.32580835 -63.89111328 92.71142578 C-62.32075413 90.29548863 -61.77183197 89.30075634 -62.35205078 86.43408203 C-62.65369141 85.55623047 -62.95533203 84.67837891 -63.26611328 83.77392578 C-68.20657013 65.69584152 -64.65924142 48.60118622 -55.64111328 32.54736328 C-53.62677184 29.28305104 -51.51831204 26.49784871 -48.89111328 23.71142578 C-46.22444661 26.37809245 -43.55777995 29.04475911 -40.89111328 31.71142578 C-40.14990234 30.99599609 -39.40869141 30.28056641 -38.64501953 29.54345703 C-30.46386941 21.76238575 -21.80450799 14.87470646 -12.75878906 8.12988281 C-9.63569179 5.75796188 -6.63169841 3.23784956 -3.65283203 0.68798828 C-1.89111328 -0.28857422 -1.89111328 -0.28857422 0 0 Z " fill="#FEB884" transform="translate(232.89111328125,35.28857421875)"/>
<path d="M0 0 C3.50261559 2.84164652 6.78462444 5.8383035 10 9 C10.69996094 9.68707031 11.39992188 10.37414062 12.12109375 11.08203125 C27.68711738 27.43697615 32.52923196 47.84507818 32.28515625 69.80859375 C32.04690919 77.66116891 30.51382053 84.56291849 28 92 C27.69964844 92.92683594 27.39929688 93.85367188 27.08984375 94.80859375 C20.21190429 113.89413139 4.2294466 129.56340576 -13.78857422 138.26464844 C-31.43907023 146.37709581 -54.14016145 149.01365515 -72.8046875 142.39453125 C-83.04783536 137.92411097 -92.49324881 133.38599132 -101 126 C-102.5159375 124.8553125 -102.5159375 124.8553125 -104.0625 123.6875 C-118.92311361 110.09161947 -128.30756022 89.9381879 -129.21484375 69.8515625 C-129.83088328 48.90170523 -124.39846739 30.24920513 -111 14 C-110.38511719 13.22269531 -109.77023437 12.44539063 -109.13671875 11.64453125 C-81.95931466 -21.04712874 -33.40614503 -24.42916332 0 0 Z " fill="#ED5348" transform="translate(394,301)"/>
<path d="M0 0 C28.17027805 -0.46932412 51.47300019 3.26159365 73 23 C79.43011533 29.34794133 84.40878175 36.23478842 89 44 C86.28475676 45.35762162 84.97114919 44.6047831 82 44 C66.07725247 42.94882294 51.16500424 45.39719412 37 53 C36.02675781 53.50273437 35.05351562 54.00546875 34.05078125 54.5234375 C14.55635212 65.15676248 2.09785335 82.68550522 -4.09375 103.71484375 C-7.34066191 117.79982735 -7.2549108 132.16723332 -3 146 C-2.50693359 147.69189453 -2.50693359 147.69189453 -2.00390625 149.41796875 C0.96498294 158.6739174 5.57170489 166.05943607 11 174 C11.33 174.66 11.66 175.32 12 176 C-5.16 176 -22.32 176 -40 176 C-40.02254736 160.37121316 -40.04097937 144.74243914 -40.05181217 129.11364079 C-40.05697505 121.85741151 -40.06401758 114.60119304 -40.07543945 107.3449707 C-40.08538656 101.02266144 -40.09185349 94.70035999 -40.09408849 88.37804312 C-40.09539556 85.0284325 -40.09848113 81.67884426 -40.10573006 78.3292408 C-40.1129362 74.59586355 -40.11399112 70.86253342 -40.11352539 67.12915039 C-40.11712067 66.01065704 -40.12071594 64.8921637 -40.12442017 63.73977661 C-40.1230455 62.72870346 -40.12167084 61.71763031 -40.12025452 60.67591858 C-40.12117631 59.79191911 -40.1220981 58.90791964 -40.12304783 57.9971323 C-40 56 -40 56 -39 55 C-37.3973218 54.89175157 -35.79254252 54.81429355 -34.1875 54.75 C-25.20087764 54.0011148 -16.2219801 50.66640725 -10 44 C-4.97354412 36.76384612 -1.93738069 30.16778497 -1.3671875 21.2890625 C-1.28339844 20.04511719 -1.19960938 18.80117188 -1.11328125 17.51953125 C-1.03464844 16.23433594 -0.95601563 14.94914062 -0.875 13.625 C-0.78863281 12.31660156 -0.70226562 11.00820312 -0.61328125 9.66015625 C-0.40177063 6.44049456 -0.19759089 3.22054094 0 0 Z " fill="#331982" transform="translate(272,242)"/>
<path d="M0 0 C23.21018812 -1.04576567 44.39104953 4.77933195 62.1875 20.375 C63.808634 21.89881474 65.41358648 23.44007085 67 25 C67.69996094 25.68707031 68.39992188 26.37414062 69.12109375 27.08203125 C84.68711738 43.43697615 89.52923196 63.84507818 89.28515625 85.80859375 C89.04690919 93.66116891 87.51382053 100.56291849 85 108 C84.69964844 108.92683594 84.39929688 109.85367188 84.08984375 110.80859375 C77.19209827 129.94909095 61.23315657 145.44737633 43.2421875 154.26464844 C31.67289151 159.64307115 22.02008773 161 9 161 C9 139.88 9 118.76 9 97 C24.84 97 40.68 97 57 97 C57 86.44 57 75.88 57 65 C41.16 65 25.32 65 9 65 C9 43.88 9 22.76 9 1 C6.03 1 3.06 1 0 1 C0 0.67 0 0.34 0 0 Z " fill="#C33345" transform="translate(337,285)"/>
<path d="M0 0 C2.25293979 0.7600216 3.72429137 1.68271921 5.61279297 3.11767578 C6.26546143 3.60961426 6.91812988 4.10155273 7.59057617 4.60839844 C8.27724365 5.13739746 8.96391113 5.66639648 9.67138672 6.21142578 C10.38447998 6.75460449 11.09757324 7.2977832 11.83227539 7.85742188 C21.66607047 15.3837037 31.02872863 23.29866809 40.10888672 31.71142578 C43.57388672 27.75142578 43.57388672 27.75142578 47.10888672 23.71142578 C56.72096845 32.47538265 63.26330666 45.07959445 64.30175781 58.13647461 C64.69403697 70.4647388 64.46344861 81.20005343 59.88378906 92.75390625 C59.03209037 94.90542487 58.23416227 97.07286272 57.44091797 99.24658203 C56.03386007 103.08307156 54.58360775 106.90046285 53.10888672 110.71142578 C52.44888672 110.71142578 51.78888672 110.71142578 51.10888672 110.71142578 C45.82888672 96.52142578 40.54888672 82.33142578 35.10888672 67.71142578 C31.28098062 67.71142578 28.78666215 69.26813495 25.49951172 71.02783203 C24.17436004 71.71669367 22.84882676 72.40482164 21.52294922 73.09228516 C19.44079368 74.17970388 17.36196131 75.2722851 15.28955078 76.37817383 C13.28437686 77.44458786 11.26833417 78.48754157 9.24951172 79.52783203 C8.33350189 80.02773399 8.33350189 80.02773399 7.39898682 80.53773499 C2.87636617 82.83873569 -0.01554186 82.97690864 -4.89111328 81.71142578 C-7.39795658 80.65849985 -9.73717541 79.58247713 -12.13720703 78.33251953 C-12.79318375 78.0009938 -13.44916046 77.66946808 -14.12501526 77.32789612 C-16.19781284 76.27761909 -18.26317188 75.21358381 -20.32861328 74.14892578 C-21.74155442 73.42990185 -23.15496193 72.71179361 -24.56884766 71.99462891 C-28.01508444 70.24410005 -31.45472548 68.48120518 -34.89111328 66.71142578 C-36.55549911 69.20800453 -37.49226193 71.05357249 -38.49511719 73.81567383 C-38.7952774 74.63629807 -39.09543762 75.4569223 -39.4046936 76.30241394 C-39.72247772 77.18375504 -40.04026184 78.06509613 -40.36767578 78.97314453 C-40.69778656 79.87893753 -41.02789734 80.78473053 -41.36801147 81.7179718 C-42.42112226 84.61027772 -43.46867881 87.50455998 -44.51611328 90.39892578 C-45.22928997 92.36064705 -45.94282726 94.32223726 -46.65673828 96.28369141 C-48.40571739 101.09142566 -50.14971795 105.90093971 -51.89111328 110.71142578 C-52.55111328 110.71142578 -53.21111328 110.71142578 -53.89111328 110.71142578 C-55.35875226 106.73563057 -56.81350381 102.75523426 -58.26611328 98.77392578 C-58.88486328 97.0984668 -58.88486328 97.0984668 -59.51611328 95.38916016 C-65.68108532 78.43548706 -68.49663843 59.76826143 -60.89111328 42.71142578 C-57.60099433 35.79593879 -54.16655594 29.30659224 -48.89111328 23.71142578 C-46.22444661 26.37809245 -43.55777995 29.04475911 -40.89111328 31.71142578 C-40.14990234 30.99599609 -39.40869141 30.28056641 -38.64501953 29.54345703 C-30.46386941 21.76238575 -21.80450799 14.87470646 -12.75878906 8.12988281 C-9.63569179 5.75796188 -6.63169841 3.23784956 -3.65283203 0.68798828 C-1.89111328 -0.28857422 -1.89111328 -0.28857422 0 0 Z " fill="#AA4B0A" transform="translate(232.89111328125,35.28857421875)"/>
<path d="M0 0 C2.81510063 1.30712137 5.62694363 2.6206659 8.4375 3.9375 C9.5831543 4.46827148 9.5831543 4.46827148 10.75195312 5.00976562 C19.3513638 9.05045257 27.56535502 13.53459972 36 18 C36 49.02 36 80.04 36 112 C19.70165354 110.18907262 8.26953045 105.18527553 -2.71582031 92.60644531 C-8.49725962 85.37415051 -12.5471881 76.89144313 -15 68 C-15.59167969 67.98582031 -16.18335938 67.97164063 -16.79296875 67.95703125 C-21.19614307 67.69126053 -23.41467687 67.47323998 -26.9375 64.625 C-31.58301528 58.712526 -31.63749566 54.34282055 -32 47 C-32.06574219 45.86691406 -32.13148438 44.73382813 -32.19921875 43.56640625 C-32.426831 36.77728211 -32.22777692 32.43571318 -28 27 C-27.01 26.34 -26.02 25.68 -25 25 C-18 40.35025381 -18 40.35025381 -18 45 C-17.34 45 -16.68 45 -16 45 C-15.89047501 44.44892578 -15.78095001 43.89785156 -15.66810608 43.33007812 C-14.5244229 37.8568488 -12.97291767 32.72479129 -10.99609375 27.5 C-10.71274673 26.73824463 -10.42939972 25.97648926 -10.13746643 25.19165039 C-9.54439759 23.60084055 -8.94849914 22.0110829 -8.34985352 20.42236328 C-7.43022109 17.98067398 -6.52011695 15.53558717 -5.61132812 13.08984375 C-5.03179785 11.53885769 -4.45173916 9.98806894 -3.87109375 8.4375 C-3.59817001 7.7053125 -3.32524628 6.973125 -3.04405212 6.21875 C-1.11627963 1.11627963 -1.11627963 1.11627963 0 0 Z " fill="#FED2AA" transform="translate(197,101)"/>
<path d="M0 0 C0 27.06 0 54.12 0 82 C-4.58412383 80.47195872 -8.44041711 78.89703724 -12.7109375 76.7421875 C-13.32393707 76.43427277 -13.93693665 76.12635803 -14.56851196 75.80911255 C-16.50593658 74.83484937 -18.4404876 73.85503083 -20.375 72.875 C-21.69642788 72.2092647 -23.01804076 71.54389647 -24.33984375 70.87890625 C-27.56204525 69.25684177 -30.78169593 67.62978626 -34 66 C-35.66438583 68.49657875 -36.60114865 70.34214671 -37.60400391 73.10424805 C-37.90416412 73.92487228 -38.20432434 74.74549652 -38.51358032 75.59098816 C-38.83136444 76.47232925 -39.14914856 77.35367035 -39.4765625 78.26171875 C-39.80667328 79.16751175 -40.13678406 80.07330475 -40.47689819 81.00654602 C-41.53000898 83.89885194 -42.57756552 86.7931342 -43.625 89.6875 C-44.33817669 91.64922127 -45.05171398 93.61081148 -45.765625 95.57226562 C-47.51460411 100.37999988 -49.25860467 105.18951393 -51 110 C-51.66 110 -52.32 110 -53 110 C-54.46763898 106.02420479 -55.92239053 102.04380848 -57.375 98.0625 C-57.99375 96.38704102 -57.99375 96.38704102 -58.625 94.67773438 C-64.78997203 77.72406128 -67.60552515 59.05683565 -60 42 C-56.70988105 35.08451301 -53.27544266 28.59516645 -48 23 C-45.33333333 25.66666667 -42.66666667 28.33333333 -40 31 C-39.25878906 30.28457031 -38.51757812 29.56914063 -37.75390625 28.83203125 C-29.62695949 21.10244851 -21.04330987 14.19716248 -12.03662109 7.52050781 C-10.60831426 6.45415742 -9.1901576 5.37413983 -7.77978516 4.28417969 C-7.06483887 3.73407227 -6.34989258 3.18396484 -5.61328125 2.6171875 C-4.64515503 1.86477783 -4.64515503 1.86477783 -3.6574707 1.09716797 C-2 0 -2 0 0 0 Z " fill="#D06210" transform="translate(232,36)"/>
<path d="M0 0 C25.41 0 50.82 0 77 0 C77 35.7504845 77 35.7504845 67.80078125 45.47265625 C56.01145949 55.47184238 43.63960194 56.03404148 28.80078125 55.29443359 C23.01251365 54.68593893 18.67341271 52.45534237 14 49 C13.09507812 48.42572266 13.09507812 48.42572266 12.171875 47.83984375 C5.65667542 43.2495895 2.42048595 35.26145785 0 28 C0 18.76 0 9.52 0 0 Z " fill="#FEB885" transform="translate(194,242)"/>
<path d="M0 0 C32.01 0 64.02 0 97 0 C97 10.56 97 21.12 97 32 C64.99 32 32.98 32 0 32 C0 21.44 0 10.88 0 0 Z " fill="#E9E2E2" transform="translate(297,350)"/>
<path d="M0 0 C7 6 7 6 9.6875 8.5 C16.47897629 14.1111395 25.25683376 17.9851682 34 19 C35.11375 19.14115234 35.11375 19.14115234 36.25 19.28515625 C47.36161919 19.99790814 59.58923767 15.09914247 68 8 C70.22172479 5.89980546 72.37036485 3.76235152 74.46875 1.5390625 C75.22671875 0.77722656 75.22671875 0.77722656 76 0 C76.33 0 76.66 0 77 0 C77 16.17 77 32.34 77 49 C51.59 49 26.18 49 0 49 C0 32.83 0 16.66 0 0 Z " fill="#F9A267" transform="translate(194,193)"/>
<path d="M0 0 C12.54 0 25.08 0 38 0 C38 18.15 38 36.3 38 55 C26.53994075 55 22.9340589 54.54390262 14 49 C13.071875 48.42572266 13.071875 48.42572266 12.125 47.83984375 C5.83326479 43.26850489 2.08394401 35.28943287 0 28 C-0.22705078 24.74853516 -0.22705078 24.74853516 -0.1953125 21.2890625 C-0.19031738 20.16709473 -0.18532227 19.04512695 -0.18017578 17.88916016 C-0.16196777 16.4819873 -0.14375977 15.07481445 -0.125 13.625 C-0.08375 9.12875 -0.0425 4.6325 0 0 Z " fill="#FED2AB" transform="translate(194,242)"/>
<path d="M0 0 C15.84 0 31.68 0 48 0 C48 9.9 48 19.8 48 30 C32.16 30 16.32 30 0 30 C0 20.1 0 10.2 0 0 Z " fill="#FEFEFE" transform="translate(298,351)"/>
<path d="M0 0 C7 6 7 6 9.6875 8.5 C18.35755212 15.59159936 28.09467268 17.66314415 39 20 C38.67 29.57 38.34 39.14 38 49 C25.46 49 12.92 49 0 49 C0 32.83 0 16.66 0 0 Z " fill="#FEB985" transform="translate(194,193)"/>
<path d="M0 0 C5.25490196 -0.0875817 5.25490196 -0.0875817 8 1 C10.02037488 3.77327597 11.2221192 6.66185011 12 10 C11.67 10.66 11.34 11.32 11 12 C9.16364422 10.19047409 7.33083792 8.37759362 5.5 6.5625 C4.97535156 6.04623047 4.45070312 5.52996094 3.91015625 4.99804688 C2.58775448 3.68423213 1.29164432 2.34406495 0 1 C0 0.67 0 0.34 0 0 Z " fill="#59A2DE" transform="translate(174,168)"/>
<path d="M0 0 C0.33 0 0.66 0 1 0 C1 1.98 1 3.96 1 6 C-5.27 6 -11.54 6 -18 6 C-18 5.67 -18 5.34 -18 5 C-16.30230469 4.96132812 -16.30230469 4.96132812 -14.5703125 4.921875 C-13.08850257 4.86560374 -11.60673323 4.80825618 -10.125 4.75 C-9.37863281 4.73582031 -8.63226563 4.72164062 -7.86328125 4.70703125 C-5.42861619 4.64013659 -5.42861619 4.64013659 -2 4 C-0.39662601 2.09371218 -0.39662601 2.09371218 0 0 Z " fill="#5FACEC" transform="translate(192,236)"/>
</svg>
